<svg width="1476" height="205" viewBox="0 0 1476 205" fill="none" xmlns="http://www.w3.org/2000/svg">
<path fill-rule="evenodd" clip-rule="evenodd" d="M546.17 92.2986L546.17 92.2977C543.666 86.4642 541.164 80.6342 539.844 74.482C537.534 63.5798 540.167 53.4629 545.48 43.808C545.832 43.1609 546.24 42.4748 546.662 41.7641L546.662 41.7634C547.959 39.5819 549.393 37.1682 549.776 34.9384C550.192 32.5938 548.256 30.8375 546.576 29.3145C546.204 28.9769 545.845 28.6508 545.526 28.3324C544.405 27.2576 543.283 26.1888 542.163 25.1213C538.854 21.9677 535.558 18.8266 532.314 15.5823C529.687 12.9262 526.969 10.3603 524.252 7.79436L524.252 7.79418C522.621 6.2545 520.99 4.71482 519.379 3.15564C519.247 3.02638 519.115 2.89659 518.984 2.76728C517.38 1.18659 515.847 -0.323796 513.328 0.0605246C511.192 0.389033 508.964 1.93231 506.924 3.34474L506.924 3.34481L506.924 3.34488C506.095 3.91861 505.298 4.47074 504.551 4.91109C494.618 10.778 481.083 14.9356 469.349 15.6285C455.491 16.4138 447.637 15.6285 436.874 11.6557C430.175 9.2073 420.982 3.80239 417.148 0.984441C416.224 0.337699 415.254 -0.031867 414.33 0.0605246C412.085 0.250761 409.872 2.44651 407.406 4.89279C406.878 5.41669 406.338 5.95209 405.784 6.48174C402.525 9.57726 399.281 12.6728 396.04 15.7655L396.013 15.791L395.945 15.8558L395.933 15.8678C390.939 20.6333 385.951 25.3921 380.93 30.134C376.896 33.9883 379.94 39.1066 382.615 43.6053C383.371 44.8759 384.097 46.0971 384.626 47.2264C386.936 52.2618 389.338 57.7591 389.615 63.3488C390.087 72.9579 386.516 81.3717 382.904 89.8857L382.903 89.8864L382.903 89.8868L382.903 89.8873L382.903 89.8877L382.903 89.8881L382.902 89.8886L382.902 89.889L382.902 89.8894L382.902 89.8899L382.902 89.8903L382.901 89.8907C381.912 92.2218 380.92 94.5604 380.007 96.9331C377.697 102.939 376.126 108.99 374.694 115.273C373.493 120.401 373.77 126.637 374.417 131.072C375.757 146.224 382.27 159.898 394.142 169.507C402.65 176.389 413.409 180.241 423.882 183.992L423.883 183.992C427.4 185.251 430.884 186.499 434.24 187.847C440.939 190.526 447.545 193.575 453.319 197.963C454.311 198.719 455.271 199.586 456.223 200.446C459.93 203.792 463.509 207.024 468.287 203.091C478.219 194.961 488.474 189.51 500.485 185.26C501.823 184.786 503.182 184.315 504.554 183.84C514.033 180.555 524.133 177.056 532.083 171.124C542.339 163.455 548.991 153.523 552.271 141.096C555.181 130.056 554.812 118.46 551.855 107.466C550.45 102.272 548.31 97.284 546.17 92.2986ZM476.371 58.7754C476.972 58.7754 477.434 59.2836 477.387 59.8841C477.387 60.4846 476.879 60.9004 476.279 60.9004C475.724 60.9004 475.309 60.4385 475.309 59.8841C475.309 59.2836 475.817 58.8216 476.371 58.8216V58.7754ZM459.648 57.8053C460.387 57.8053 460.942 58.3596 460.988 59.0526C460.988 59.9303 460.341 60.4385 459.648 60.4385C458.955 60.4385 458.355 59.8379 458.355 59.145C458.355 58.4058 458.909 57.8515 459.648 57.8053ZM451.148 52.1232C451.656 52.1232 452.118 52.5852 452.118 53.0933C452.118 53.6015 451.656 54.0634 451.148 54.0634C450.64 54.0634 450.178 53.6477 450.178 53.0933C450.178 52.539 450.594 52.1232 451.148 52.1232ZM439.876 45.5634C440.708 45.5634 441.447 46.2563 441.493 47.1341C441.493 48.0118 440.8 48.7047 439.923 48.7047C439.045 48.7047 438.352 47.9656 438.352 47.0879C438.352 46.2563 439.091 45.5634 439.876 45.5172V45.5634ZM414.561 125.205C413.914 125.251 413.221 124.604 413.221 123.865C413.221 123.172 413.868 122.526 414.607 122.526C415.393 122.526 415.993 123.172 415.993 123.958C415.993 124.604 415.346 125.344 414.607 125.251L414.561 125.205ZM417.287 116.197C416.409 116.197 415.624 115.458 415.624 114.58C415.624 113.702 416.363 112.917 417.24 112.917C418.118 112.917 418.903 113.656 418.903 114.534C418.903 115.411 418.164 116.197 417.287 116.197ZM446.944 109.452C446.944 109.452 446.944 109.175 447.037 109.175C447.868 109.175 448.376 108.713 448.7 107.974L448.792 107.882C449.023 107.974 449.116 108.205 449.162 108.39C449.346 108.805 449.67 109.036 450.132 109.083C450.27 109.083 450.409 109.083 450.548 109.175C450.686 109.175 450.732 109.36 450.64 109.452C449.993 109.96 449.808 110.653 449.993 111.439C449.993 111.439 449.993 111.453 449.985 111.483C449.983 111.488 449.981 111.495 449.979 111.502L449.975 111.513C449.968 111.531 449.959 111.552 449.947 111.577C449.755 111.577 449.585 111.488 449.422 111.403C449.372 111.377 449.323 111.352 449.275 111.329C449.252 111.319 449.23 111.309 449.208 111.3C448.931 111.161 448.654 111.161 448.376 111.3C448.342 111.314 448.307 111.33 448.272 111.347C448.241 111.362 448.209 111.379 448.177 111.395C448.006 111.483 447.822 111.577 447.591 111.577C447.529 111.392 447.55 111.208 447.571 111.023C447.581 110.93 447.591 110.838 447.591 110.746C447.637 110.469 447.591 110.238 447.36 110.007C447.261 109.908 447.175 109.808 447.096 109.717L447.095 109.716L447.074 109.692C447.052 109.667 447.031 109.642 447.01 109.619C446.972 109.576 446.935 109.536 446.898 109.498L446.944 109.452ZM480.621 166.966C480.482 167.705 480.344 168.49 480.251 169.276C480.251 169.548 480.121 169.754 479.997 169.95C479.974 169.987 479.95 170.024 479.928 170.061C479.886 170.158 479.834 170.314 479.765 170.517L479.765 170.518L479.765 170.518C479.315 171.862 478.167 175.289 474.477 177.776C474.015 178.238 473.461 178.561 472.906 178.885C472.611 179.032 472.315 179.195 472.019 179.358C471.576 179.601 471.132 179.845 470.689 180.039C469.673 180.501 468.61 180.779 467.548 181.01C466.809 181.194 466.023 181.379 465.238 181.425C463.852 181.425 462.466 181.287 461.08 181.056C460.497 180.954 459.942 180.783 459.384 180.612L459.384 180.611C458.925 180.47 458.464 180.328 457.985 180.224C457.74 180.183 457.495 180.034 457.282 179.904L457.281 179.904C457.254 179.887 457.226 179.871 457.2 179.855C456.692 179.531 456.137 179.254 455.537 179.023C455.167 178.885 454.844 178.654 454.613 178.376C454.289 178.053 453.966 177.776 453.55 177.499C453.411 177.415 453.305 177.314 453.192 177.207L453.157 177.174L453.122 177.141C453.106 177.126 453.09 177.111 453.073 177.096C453.06 177.084 453.046 177.072 453.033 177.06L453.022 177.05L452.998 177.03C452.982 177.017 452.966 177.004 452.95 176.99C452.812 176.868 452.69 176.721 452.566 176.571C452.315 176.269 452.058 175.959 451.656 175.836C451.595 175.836 451.533 175.753 451.471 175.671C451.441 175.63 451.41 175.589 451.379 175.558C451.01 174.981 450.628 174.403 450.247 173.826L450.246 173.824L450.245 173.823L450.244 173.821L450.243 173.82C449.863 173.244 449.484 172.669 449.116 172.094C449.092 172.046 449.068 171.987 449.045 171.922C449.022 171.859 448.999 171.792 448.977 171.724C448.284 169.969 447.683 168.213 447.499 166.319C447.437 165.731 447.458 165.142 447.479 164.567C447.489 164.285 447.499 164.006 447.499 163.732C447.499 163.138 447.617 162.544 447.734 161.95C447.782 161.713 447.829 161.475 447.868 161.238C447.94 160.855 448.073 160.485 448.205 160.121L448.205 160.121C448.327 159.782 448.448 159.447 448.515 159.113C448.612 158.579 448.875 158.122 449.136 157.667C449.372 157.256 449.606 156.848 449.716 156.387C450.078 156.001 450.364 155.578 450.653 155.149C450.918 154.757 451.186 154.36 451.518 153.985C452.349 153.061 453.273 152.23 454.197 151.444C454.798 150.936 455.444 150.428 456.23 150.197C456.472 150.128 456.715 149.98 456.957 149.833L457.049 149.778L457.098 149.748L457.132 149.728L457.157 149.714L457.2 149.689C458.909 148.903 460.711 148.395 462.605 148.211C463.006 148.18 463.429 148.19 463.844 148.2H463.844H463.845H463.845H463.845C464.05 148.205 464.254 148.211 464.453 148.211C465.515 148.211 466.578 148.257 467.64 148.534C467.75 148.534 467.83 148.563 467.928 148.598C467.954 148.607 467.981 148.617 468.01 148.626C468.194 148.672 468.384 148.698 468.574 148.724C468.954 148.775 469.334 148.826 469.673 149.042C469.916 149.188 470.186 149.296 470.46 149.406L470.461 149.406L470.461 149.406C470.707 149.504 470.957 149.604 471.197 149.735C472.029 150.151 472.814 150.566 473.599 150.982C473.667 150.982 473.71 151.032 473.764 151.095L473.765 151.095L473.784 151.117L473.79 151.124C473.803 151.138 473.816 151.153 473.83 151.167C474.083 151.397 474.337 151.616 474.59 151.835L474.591 151.835L474.592 151.837C474.847 152.056 475.101 152.276 475.355 152.507L475.355 152.507C475.863 152.969 476.371 153.431 476.833 153.939C477.618 154.817 478.219 155.787 478.773 156.803C479.143 157.496 479.466 158.189 479.697 158.928C479.697 159.067 479.743 159.205 479.836 159.298C480.262 160.033 480.363 160.866 480.466 161.715C480.486 161.879 480.506 162.043 480.529 162.208C480.667 162.993 480.667 166.643 480.621 166.966ZM455.906 120.863C455.906 120.031 456.507 119.384 457.338 119.338C458.262 119.338 458.817 120.031 458.817 120.77C458.817 121.602 458.216 122.248 457.385 122.295C456.599 122.295 455.906 121.648 455.906 120.863ZM458.909 110.145C458.909 109.776 459.186 109.452 459.556 109.452C459.925 109.452 460.203 109.729 460.203 110.145C460.203 110.515 459.879 110.792 459.51 110.792C459.186 110.792 458.909 110.515 458.909 110.145ZM470.55 117.629C470.55 116.844 471.151 116.197 471.936 116.197C472.722 116.197 473.368 116.797 473.368 117.583C473.368 118.368 472.722 118.969 471.936 118.969C471.197 118.969 470.597 118.368 470.597 117.629H470.55ZM503.257 112.871C503.244 112.871 503.23 112.87 503.217 112.87C503.629 112.821 503.904 112.499 503.904 112.085C503.904 111.623 503.534 111.3 503.118 111.3C502.749 111.3 502.379 111.716 502.379 112.132C502.424 112.58 502.774 112.854 503.217 112.87L503.211 112.871H503.257ZM507.83 88.7565C507.83 88.2021 508.292 87.8326 508.801 87.8326C509.355 87.8326 509.817 88.3407 509.771 88.8489C509.771 89.357 509.309 89.7728 508.754 89.7728C508.2 89.7728 507.738 89.3108 507.784 88.7565H507.83ZM514.714 94.2538C514.575 94.3923 514.448 94.5308 514.321 94.6693C514.194 94.808 514.067 94.9466 513.928 95.0853C513.651 95.3163 513.559 95.5935 513.651 95.963C513.713 96.2402 513.733 96.5174 513.754 96.7945C513.764 96.9331 513.774 97.0717 513.79 97.2103C513.79 97.3951 513.697 97.4875 513.513 97.3951C513.097 97.2103 512.681 97.0255 512.311 96.8407C512.034 96.7022 511.803 96.7022 511.572 96.8407C511.249 97.0022 510.927 97.141 510.619 97.2731L510.619 97.2733C510.487 97.3302 510.358 97.3857 510.233 97.4413C510.002 97.3027 510.048 97.1641 510.094 97.0255C510.094 96.8869 510.094 96.7484 510.14 96.5636C510.318 95.4969 510.282 95.4565 509.621 94.7144L509.54 94.6234C509.478 94.5464 509.406 94.4796 509.334 94.4129C509.191 94.2794 509.047 94.146 508.985 93.9304C509.294 93.7373 509.635 93.7057 509.982 93.6735C510.05 93.6672 510.118 93.6608 510.186 93.6532C510.679 93.5609 511.033 93.2991 511.249 92.8679C511.322 92.7393 511.389 92.6107 511.453 92.485C511.551 92.2946 511.646 92.1109 511.757 91.944C511.757 91.9209 511.78 91.8978 511.809 91.8689L511.809 91.8686C511.822 91.856 511.836 91.8424 511.849 91.8271C511.866 91.8074 511.883 91.7851 511.896 91.7592C512.086 91.8865 512.19 92.0794 512.296 92.2778L512.3 92.2863L512.317 92.3167L512.333 92.346L512.347 92.3728C512.355 92.3875 512.364 92.4023 512.372 92.4169C512.396 92.4601 512.422 92.5028 512.45 92.5445C512.731 93.0369 512.87 93.2794 513.077 93.4229C513.278 93.5622 513.544 93.6084 514.067 93.6994L514.122 93.7086C514.386 93.7522 514.683 93.801 514.898 93.9304C514.898 94.069 514.852 94.1614 514.76 94.2538H514.714ZM511.942 81.573C511.953 81.1234 512.273 80.8116 512.727 80.857C513.143 80.857 513.42 81.1804 513.42 81.5961C513.42 82.0119 513.097 82.2891 512.681 82.2891C512.272 82.2891 511.953 82.021 511.942 81.573ZM511.942 81.573L511.942 81.5961V81.5499L511.942 81.573ZM520.349 93.0527C519.795 93.0527 519.333 92.6369 519.333 92.0826C519.333 91.5744 519.749 91.1125 520.257 91.0663C520.719 91.0663 521.32 91.4358 521.273 92.0826C521.273 92.6369 520.904 93.0527 520.349 93.0527ZM530.466 59.8379C530.235 60.6232 530.097 61.4086 530.097 62.1939C530.097 62.702 529.958 63.2102 529.82 63.6722C529.681 64.0879 529.542 64.5499 529.45 64.9656C529.265 65.8434 528.849 66.4901 528.11 66.9983C527.648 67.3216 527.14 67.5988 526.632 67.8298C526.078 68.0608 525.523 68.3841 525.015 68.7999C524.599 69.1695 524.091 69.4004 523.537 69.5852C522.428 70.001 521.32 70.2782 520.165 70.4629C519.518 70.6015 518.871 70.5553 518.224 70.4629C517.924 70.3937 517.635 70.3475 517.347 70.3013C517.058 70.2551 516.769 70.2089 516.469 70.1396C515.73 69.9548 515.037 70.1858 514.483 70.6939C514.159 70.9711 513.836 71.2945 513.559 71.664C512.912 72.4956 512.034 72.8189 511.018 73.0037H510.51C510.233 73.0037 509.909 72.9575 509.632 72.9113C508.616 72.8189 507.738 73.2347 507.137 74.02C506.398 75.0363 505.567 75.9602 504.689 76.8842C503.396 78.3162 502.195 79.8407 501.224 81.5037C500.92 82.0111 500.566 82.4937 500.217 82.9697C500.131 83.0863 500.046 83.2026 499.962 83.3186C499.921 83.3758 499.879 83.433 499.839 83.4902C499.526 83.9244 499.214 84.3626 498.901 84.8025C498.148 85.86 497.388 86.9271 496.605 87.9711C496.097 88.7101 495.496 89.3567 494.896 90.0032L494.896 90.0034L494.896 90.0038C493.694 91.2049 492.678 92.5445 491.8 94.0228C491.385 94.7157 491.108 95.4087 491.154 96.194C491.154 96.656 491.061 97.1179 490.923 97.5799C490.652 98.4301 490.705 99.3128 490.757 100.174C490.767 100.342 490.777 100.509 490.784 100.675C490.784 101.045 491.015 101.322 491.385 101.507C491.939 101.784 492.355 102.246 492.724 102.754C493.094 103.308 493.325 103.909 493.417 104.555C493.502 105.024 493.313 105.492 493.138 105.924C493.123 105.961 493.108 105.998 493.094 106.034C493.064 106.101 493.034 106.169 493.005 106.237C492.967 106.324 492.929 106.412 492.892 106.499L492.891 106.5C492.596 107.186 492.298 107.88 491.847 108.482C491.523 108.944 491.385 109.452 491.523 110.007C491.616 110.376 491.616 110.699 491.523 111.069C491.431 111.392 491.477 111.716 491.523 112.039C491.605 112.531 491.683 113.019 491.761 113.504C491.945 114.659 492.127 115.797 492.355 116.936C492.678 118.553 493.371 120.031 494.434 121.325C494.849 121.879 495.404 122.202 496.097 122.295C496.605 122.387 497.113 122.479 497.575 122.479C497.991 122.479 498.36 122.572 498.684 122.757C499.228 123.011 499.743 123.35 500.253 123.685C500.392 123.777 500.531 123.868 500.67 123.958C501.04 124.235 501.224 124.651 501.363 125.066C501.917 126.868 500.531 128.439 498.961 128.439C497.76 128.439 496.512 128.531 495.311 128.623C494.295 128.67 493.371 128.485 492.54 127.838C492.031 127.469 491.569 127.053 491.246 126.498C491.015 126.129 490.692 125.898 490.23 125.806L490.163 125.791L490.106 125.779C490.057 125.769 490.008 125.759 489.959 125.749C489.648 125.686 489.352 125.626 489.029 125.482C488.474 125.297 488.105 124.928 487.828 124.466C487.738 124.325 487.652 124.184 487.567 124.045C487.344 123.68 487.125 123.322 486.857 122.988C486.851 122.978 486.845 122.969 486.838 122.959C486.831 122.949 486.824 122.94 486.817 122.93L486.796 122.901L486.794 122.899C486.713 122.788 486.626 122.671 486.626 122.526C486.58 122.017 486.349 121.556 486.118 121.094C485.934 120.678 485.795 120.262 485.749 119.8C485.472 118.276 485.194 116.751 484.825 115.273C484.825 115.18 484.784 115.088 484.743 114.996L484.729 114.965L484.721 114.947C484.708 114.917 484.696 114.887 484.686 114.857C484.594 114.58 484.409 114.395 484.178 114.303L483.762 114.164C483.069 113.887 482.838 113.471 483.023 112.778C483.06 112.558 483.126 112.367 483.198 112.158C483.21 112.123 483.223 112.087 483.235 112.05L483.254 111.993C483.439 111.531 483.439 111.069 483.254 110.607L482.838 109.36C482.607 108.574 482.423 107.835 482.423 107.004C482.423 106.034 482.146 105.664 481.222 105.387C480.113 105.064 479.097 104.648 478.08 104.14C477.249 103.77 476.371 103.632 475.493 103.724C475.028 103.786 474.562 103.765 474.111 103.744C473.89 103.734 473.673 103.724 473.461 103.724C472.906 103.724 472.398 103.724 471.844 103.77C470.319 103.863 468.841 103.493 467.363 103.077C466.67 102.846 465.931 102.708 465.192 102.661C463.76 102.569 462.374 102.153 461.08 101.507C459.833 100.906 458.586 100.259 457.338 99.6125L455.121 98.5038C454.567 98.2266 454.058 97.8571 453.55 97.4875C452.349 96.656 451.056 96.0092 449.716 95.3625C449.485 95.2701 449.254 95.1777 449.069 95.1315C448.885 95.0853 448.654 95.1315 448.469 95.2701C448.395 95.3226 448.324 95.375 448.254 95.4275C448.171 95.4905 448.089 95.5535 448.007 95.6165C447.857 95.732 447.707 95.8475 447.545 95.963C447.314 96.1478 447.129 96.3788 447.037 96.656C446.489 98.1556 445.725 99.5471 444.958 100.943L444.958 100.943L444.958 100.944L444.958 100.944L444.958 100.944L444.958 100.944L444.958 100.944L444.957 100.945L444.957 100.945L444.957 100.946C444.496 101.785 444.034 102.626 443.618 103.493C442.879 105.064 441.909 106.496 440.939 107.928C440.216 109.044 439.471 110.137 438.718 111.24L438.717 111.243C438.411 111.691 438.104 112.14 437.798 112.594C437.78 112.628 437.757 112.662 437.732 112.699C437.689 112.761 437.642 112.83 437.613 112.917C437.243 113.794 436.643 114.533 436.042 115.272L436.042 115.273L436.042 115.273C435.395 116.104 434.887 117.075 434.471 118.045C434.333 118.414 434.287 118.738 434.379 119.107C434.482 119.553 434.509 120.025 434.534 120.485C434.538 120.555 434.542 120.625 434.546 120.694L434.552 120.783L434.556 120.854L434.56 120.904L434.564 120.955C434.564 121.694 434.702 122.433 435.072 123.126C435.094 123.171 435.117 123.217 435.139 123.264C435.172 123.332 435.205 123.402 435.237 123.473L435.28 123.565L435.28 123.565C435.349 123.715 435.418 123.865 435.488 124.004C435.765 124.604 436.134 125.205 436.55 125.759C436.827 126.129 437.197 126.406 437.659 126.36C438.167 126.36 438.583 126.498 439.045 126.729C439.368 126.891 439.691 127.041 440.015 127.191C440.338 127.341 440.662 127.492 440.985 127.653C441.863 128.069 442.463 128.716 442.833 129.594C442.971 129.871 443.018 130.148 442.971 130.471C442.879 131.21 442.556 131.857 442.048 132.319C441.678 132.642 441.262 132.827 440.754 132.827H440.292C439.923 132.827 439.553 132.827 439.183 133.012C438.444 133.382 437.798 133.151 437.197 132.689C436.966 132.504 436.689 132.273 436.458 132.042C436.088 131.672 435.673 131.534 435.164 131.58C435.026 131.595 434.887 131.606 434.749 131.616C434.471 131.636 434.194 131.657 433.917 131.719C433.548 131.811 433.224 131.719 432.901 131.488C432.346 131.118 432.023 130.61 431.746 130.056C431.555 129.674 431.38 129.276 431.203 128.872C431.079 128.591 430.955 128.307 430.822 128.023C430.479 127.223 430.048 126.476 429.616 125.728L429.616 125.727L429.616 125.727L429.615 125.726L429.615 125.726L429.614 125.725L429.614 125.724L429.614 125.724C429.348 125.263 429.082 124.802 428.836 124.327C428.606 123.926 428.323 123.559 428.042 123.196C427.87 122.974 427.7 122.753 427.542 122.526C427.45 122.387 427.346 122.26 427.242 122.133C427.138 122.006 427.034 121.879 426.942 121.74C426.433 121.047 426.018 120.262 425.925 119.384C425.925 119.2 425.925 118.969 425.833 118.784C425.556 117.721 425.74 116.659 426.11 115.642C426.225 115.296 426.353 114.949 426.48 114.603C426.607 114.257 426.734 113.91 426.849 113.564C426.988 113.102 427.265 112.732 427.588 112.363C427.958 111.901 428.235 111.392 428.512 110.838C428.743 110.33 428.986 109.845 429.228 109.36C429.471 108.875 429.713 108.39 429.944 107.882C430.591 106.496 430.914 105.017 430.637 103.447C430.609 103.262 430.581 103.074 430.552 102.883L430.498 102.521L430.496 102.506C430.451 102.2 430.405 101.894 430.36 101.599C430.221 100.86 430.083 100.074 429.99 99.3353C429.99 99.1043 429.713 99.0119 429.529 99.1505C429.344 99.2891 429.205 99.4277 429.067 99.5663C428.512 100.259 427.865 100.767 427.08 101.183C426.433 101.507 425.833 101.922 425.325 102.43C425.047 102.661 424.77 102.846 424.447 102.985C423.845 103.226 423.313 103.571 422.76 103.93L422.759 103.93C422.676 103.984 422.592 104.039 422.507 104.093C422.299 104.232 422.079 104.359 421.86 104.486C421.641 104.613 421.421 104.74 421.213 104.879C421.134 104.929 421.052 104.978 420.969 105.029C420.669 105.211 420.358 105.4 420.105 105.618L420.038 105.672C419.606 106.018 419.242 106.311 418.626 106.311C418.465 106.311 418.281 106.401 418.106 106.487C418.03 106.524 417.957 106.56 417.887 106.588L417.884 106.59C415.714 107.652 413.544 108.714 411.374 109.729C410.265 110.238 409.156 110.746 408.047 111.208C406.939 111.67 406.061 112.409 405.414 113.379C404.306 114.95 403.335 116.659 402.874 118.553C402.793 118.848 402.701 119.144 402.608 119.441C402.382 120.164 402.154 120.895 402.088 121.648C402.088 121.747 402.075 121.846 402.063 121.938C402.052 122.017 402.042 122.092 402.042 122.156C402.042 122.71 402.181 123.219 402.689 123.542C403.151 123.865 403.613 124.189 404.121 124.466C404.952 124.928 405.414 125.621 405.738 126.498C405.969 127.053 405.83 127.561 405.46 127.977C405.253 128.253 405.02 128.478 404.781 128.709L404.781 128.709L404.72 128.767L404.658 128.827C404.618 128.866 404.577 128.906 404.537 128.947C404.167 129.224 403.751 129.409 403.289 129.316C402.504 129.178 401.765 129.224 401.026 129.501C400.333 129.732 399.686 129.501 399.039 129.27C398.606 129.097 398.376 128.68 398.159 128.286L398.115 128.208C398.023 128.069 397.977 127.884 397.931 127.7C397.792 127.007 397.422 126.452 396.914 125.944C396.267 125.297 396.037 124.466 396.175 123.542C396.175 123.403 396.175 123.311 396.221 123.172C396.298 122.836 396.369 122.499 396.441 122.162L396.442 122.157C396.586 121.479 396.729 120.801 396.914 120.123C397.106 119.411 397.249 118.683 397.391 117.958C397.489 117.46 397.587 116.963 397.7 116.474C397.746 116.151 397.792 115.827 397.884 115.504C398.023 114.996 398.069 114.534 398.069 113.979C398.069 113.252 398.147 112.524 398.225 111.796L398.235 111.701C398.243 111.624 398.252 111.547 398.26 111.47C398.274 111.336 398.287 111.203 398.3 111.069C398.346 110.33 398.67 109.637 399.132 109.036C399.363 108.713 399.594 108.436 399.871 108.113C399.917 108.051 399.973 107.989 400.03 107.928C400.143 107.805 400.256 107.681 400.287 107.558C400.505 106.945 401.015 106.623 401.5 106.316L401.58 106.265C401.819 106.111 402.059 105.958 402.299 105.805L402.637 105.589C404.099 104.657 405.58 103.712 407.031 102.708C407.976 102.065 408.859 101.361 409.756 100.645L409.757 100.645L409.757 100.645L409.757 100.645L409.757 100.644C409.956 100.486 410.156 100.326 410.357 100.167C410.912 99.7049 411.466 99.1505 411.974 98.5962L411.975 98.5953C412.668 97.8564 413.36 97.1176 414.007 96.3326C415.069 95.0853 415.947 93.7918 416.501 92.2212C416.686 91.713 416.963 91.2049 417.24 90.6967C417.471 90.2347 417.656 89.7728 417.749 89.2646L417.877 88.7405L418.018 88.1688L418.022 88.1492C418.484 86.2691 418.941 84.4107 419.365 82.5201C419.55 81.7809 419.781 81.0418 420.197 80.3488C420.474 79.8869 420.474 79.4711 420.197 79.0092C419.735 78.27 419.55 77.4385 419.55 76.5608C419.55 75.7755 419.273 75.1287 418.719 74.5282C418.395 74.2048 418.072 73.9276 417.564 73.9738C416.917 73.9738 416.316 73.9276 415.716 73.789C415.254 73.6505 414.838 73.789 414.469 74.1124C414.284 74.2972 414.099 74.4358 413.914 74.5744C413.175 75.0825 412.297 74.7592 412.344 73.8352C412.344 73.0961 412.066 72.6803 411.42 72.4032C411.143 72.2646 410.866 72.08 410.589 71.8953L410.588 71.895C410.265 71.664 410.126 71.2483 410.265 70.9711C410.45 70.6015 410.681 70.2782 411.096 70.2782H412.066C412.575 70.2782 412.99 70.1858 413.406 69.8624C413.683 69.5852 414.053 69.4466 414.422 69.3542C415.485 69.1233 416.501 68.7999 417.471 68.3841C417.698 68.287 417.902 68.2353 418.115 68.1812C418.206 68.1581 418.298 68.1346 418.395 68.107C419.134 67.9222 419.827 68.0608 420.428 68.4303C421.213 68.9385 422.091 69.2157 422.969 69.4466C424.031 69.7238 425.094 70.001 426.202 70.1858C426.387 70.1858 426.618 70.232 426.803 70.2782C427.542 70.4167 428.235 70.2782 428.836 69.8624C429.067 69.6776 429.344 69.539 429.621 69.4928C430.129 69.3542 430.591 69.1233 431.007 68.8923C431.423 68.6613 431.838 68.4765 432.346 68.4303C433.103 68.3396 433.839 68.1696 434.582 67.9982C434.973 67.9079 435.366 67.8171 435.765 67.7374C436.181 67.645 436.643 67.5988 437.105 67.5526C437.705 67.5526 438.259 67.6912 438.814 67.9222C439.368 68.1532 439.923 68.2455 440.477 68.1532C440.881 68.091 441.285 68.1125 441.675 68.1332C441.864 68.1432 442.051 68.1532 442.232 68.1532C442.625 68.1762 443.006 68.2224 443.387 68.2686C443.768 68.3148 444.149 68.361 444.542 68.3841C444.912 68.4072 445.281 68.4188 445.651 68.4303C446.02 68.4419 446.39 68.4534 446.76 68.4765C447.221 68.4765 447.73 68.5227 448.192 68.5689C448.353 68.5689 448.515 68.592 448.677 68.6151C448.838 68.6382 449 68.6613 449.162 68.6613C450.073 68.6613 450.968 68.7604 451.866 68.8598C452.47 68.9267 453.076 68.9937 453.689 69.0309C454.243 69.0771 454.809 69.1233 455.375 69.1695L456.278 69.2433L456.665 69.2751L457.061 69.3081C457.546 69.3542 458.031 69.3773 458.516 69.4004L458.516 69.4004L458.517 69.4005C459.002 69.4236 459.487 69.4467 459.972 69.4928H461.496C462.189 69.4004 462.836 69.3542 463.529 69.3542C464.453 69.3542 465.284 69.1695 466.116 68.8461L466.116 68.846C467.225 68.4302 468.333 68.0145 469.488 67.6912C470.412 67.414 471.382 67.183 472.352 67.0445C472.814 66.9983 473.276 66.9983 473.738 67.1368C474.385 67.3678 475.031 67.3678 475.678 67.2292C476.14 67.1368 476.556 67.0907 477.018 67.1368C478.496 67.1368 479.928 66.9983 481.36 66.7673L481.672 66.7155C482.409 66.5935 483.173 66.4671 483.901 66.3053C485.214 66.0427 486.403 65.4898 487.624 64.9216L487.828 64.8271C488.105 64.6885 488.382 64.5037 488.613 64.2727C489.947 63.1411 491.386 62.1863 492.839 61.2227L493.054 61.0804L493.259 60.9439L493.464 60.808C494.578 60.0853 495.751 59.4804 496.919 58.8781C497.542 58.5564 498.165 58.2354 498.776 57.8977C499.377 57.5597 500.008 57.3439 500.645 57.1261C500.723 57.0993 500.801 57.0726 500.88 57.0456C500.948 57.0219 501.017 56.998 501.086 56.9738C502.98 56.2808 504.874 55.5417 506.722 54.8026C508.292 54.1558 509.909 53.8325 511.526 53.5091C511.642 53.4833 511.754 53.454 511.865 53.425C512.152 53.3502 512.427 53.2781 512.727 53.2781C514.113 53.2319 515.36 53.6015 516.561 54.2944C517.023 54.5716 517.485 54.8488 517.901 55.1721C518.363 55.4955 518.871 55.7727 519.426 55.9113C519.764 56.019 520.103 56.1371 520.442 56.2551C521.119 56.4913 521.797 56.7274 522.474 56.8814C523.676 57.1586 524.923 57.2509 526.17 57.2509C527.233 57.2509 528.295 57.4357 529.311 57.7591C530.466 58.0825 530.744 59.0064 530.513 59.8379H530.466ZM440.015 123.542C440.015 124.096 439.507 124.558 438.999 124.558C438.444 124.558 437.982 124.05 438.029 123.496C438.029 122.941 438.49 122.479 439.045 122.479C439.599 122.479 440.061 122.988 440.061 123.542H440.015ZM899.294 165.257V6.48175H932.971V165.257H899.294ZM673.536 167.89C662.189 167.884 651.579 165.806 641.752 161.653C631.912 157.496 623.366 151.768 616.067 144.469C608.768 137.17 603.04 128.716 598.882 119.107C594.725 109.498 592.646 99.0582 592.646 87.8326C592.646 76.607 594.771 65.9819 598.975 56.4656C603.225 46.9031 609.092 38.5416 616.668 31.3351C624.244 24.1285 633.021 18.4465 642.999 14.3812C652.978 10.316 663.741 8.23718 675.244 8.23718C688.502 8.23718 700.606 10.6856 711.554 15.5823C722.502 20.4791 731.511 27.1313 738.671 35.5851L715.065 59.1912C710.26 52.7699 704.44 47.9194 697.695 44.6395C690.904 41.3596 683.375 39.6965 675.059 39.6965C666.005 39.6965 657.921 41.6829 650.76 45.702C643.6 49.721 638.056 55.3107 634.037 62.5635C630.018 69.77 628.032 78.2238 628.032 87.8326C628.032 97.4413 630.018 105.71 633.945 112.963C637.872 120.262 643.277 125.99 650.114 130.148C656.951 134.306 664.85 136.384 673.72 136.384C682.589 136.384 690.211 134.675 696.586 131.257C702.915 127.838 707.812 122.849 711.231 116.289C712.631 113.603 713.744 110.699 714.571 107.576L670.44 106.865V77.7619H751.56V82.7972C751.56 101.183 748.233 116.705 741.627 129.363C734.975 142.066 725.782 151.629 714.049 158.143C702.327 164.603 688.808 167.883 673.536 167.89ZM0 165.211V10.8241H34.5545V135.091H103.017V165.257H26.7012V165.211H0ZM162.286 167.428C152.677 167.428 143.992 164.98 136.278 160.083C128.563 155.186 122.465 148.626 118.03 140.403C113.596 132.181 111.378 122.71 111.378 112.085C111.378 101.46 113.596 91.944 118.03 83.5364C122.465 75.175 128.517 68.6152 136.185 63.857C143.854 59.0988 152.539 56.7428 162.332 56.7428C169.492 56.7428 175.914 58.1287 181.688 60.9004C185.464 62.713 188.766 64.98 191.62 67.7013V59.0064H224.65V165.303H191.62V165.257V156.665C188.838 159.3 185.604 161.501 181.919 163.27C176.145 166.042 169.631 167.428 162.332 167.428H162.286ZM169.308 137.031C176.468 137.031 182.196 134.721 186.492 130.009C190.789 125.344 192.96 119.292 192.96 111.854C192.96 107.05 191.99 102.8 190.096 99.0582C188.202 95.3625 185.43 92.406 181.781 90.3272C178.131 88.2022 173.973 87.1397 169.308 87.1397C164.642 87.1397 160.761 88.2022 157.158 90.3272C153.601 92.4522 150.737 95.4087 148.612 99.1968C146.487 102.985 145.424 107.281 145.424 112.085C145.424 116.89 146.487 121.186 148.612 124.974C150.737 128.762 153.555 131.719 157.158 133.844C160.715 135.969 164.78 137.031 169.308 137.031ZM268.352 165.58C274.449 167.243 280.64 168.075 286.922 168.075L286.876 168.167C300.134 168.167 310.667 165.072 318.474 158.882C326.281 152.691 330.162 144.422 330.162 134.074C330.162 127.376 328.96 121.925 326.466 117.767C324.017 113.61 320.784 110.237 316.857 107.697C312.93 105.156 308.773 103.169 304.384 101.784C300.042 100.398 295.93 99.1966 292.05 98.1803C288.216 97.164 284.982 95.9629 282.441 94.6694C279.9 93.3298 278.607 91.5743 278.607 89.4031C278.607 87.5091 279.577 85.9846 281.471 84.8297C283.365 83.6749 286.091 83.0743 290.017 83.0743C293.944 83.0743 298.009 83.9058 302.167 85.5689C306.324 87.2319 310.066 90.0499 313.439 93.9765L332.471 74.5281C327.806 68.384 321.615 63.7645 313.901 60.6231C306.14 57.4818 297.824 55.9112 288.955 55.9112C280.085 55.9112 272.417 57.3894 265.996 60.2998C259.574 63.2101 254.631 67.1829 251.12 72.2183C247.61 77.2536 245.854 83.4901 245.854 90.0499C245.854 96.6097 247.055 101.968 249.55 106.034C251.998 110.099 255.232 113.333 259.159 115.642C263.085 117.998 267.243 119.846 271.631 121.232C275.974 122.618 280.178 123.819 284.197 124.928C288.216 126.036 291.449 127.191 293.944 128.439C296.392 129.64 297.64 131.58 297.64 134.213C297.64 136.384 296.577 138.094 294.452 139.248C292.327 140.403 289.463 141.004 285.814 141.004C279.993 141.004 274.727 139.941 269.968 137.816C265.256 135.691 261.053 132.735 257.403 128.947L238.139 148.21C241.928 152.137 246.362 155.602 251.49 158.604C256.618 161.561 262.207 163.917 268.352 165.58ZM787.546 160.083C795.261 164.98 803.946 167.428 813.554 167.428H813.601C820.899 167.428 827.413 166.042 833.188 163.27C836.873 161.501 840.107 159.3 842.889 156.665V165.257V165.303H875.919V59.0064H842.889V67.7014C840.035 64.98 836.733 62.713 832.957 60.9004C827.182 58.1287 820.761 56.7428 813.601 56.7428C803.807 56.7428 795.122 59.0988 787.454 63.857C779.785 68.6152 773.734 75.175 769.299 83.5364C764.864 91.944 762.647 101.46 762.647 112.085C762.647 122.71 764.864 132.181 769.299 140.403C773.734 148.626 779.831 155.186 787.546 160.083ZM837.761 130.009C833.465 134.721 827.737 137.031 820.576 137.031C816.049 137.031 811.984 135.969 808.427 133.844C804.823 131.719 802.005 128.762 799.88 124.974C797.755 121.186 796.693 116.89 796.693 112.085C796.693 107.281 797.755 102.985 799.88 99.1968C802.005 95.4087 804.87 92.4522 808.427 90.3272C812.03 88.2022 815.91 87.1397 820.576 87.1397C825.242 87.1397 829.4 88.2022 833.049 90.3272C836.698 92.406 839.47 95.3625 841.364 99.0582C843.258 102.8 844.228 107.05 844.228 111.854C844.228 119.292 842.057 125.344 837.761 130.009ZM974.962 160.083C982.677 164.98 991.362 167.428 1000.97 167.428H1001.02C1008.32 167.428 1014.83 166.042 1020.6 163.27C1024.29 161.501 1027.52 159.3 1030.3 156.665V165.257V165.303H1063.33V59.0064H1030.3V67.7013C1027.45 64.98 1024.15 62.713 1020.37 60.9004C1014.6 58.1287 1008.18 56.7428 1001.02 56.7428C991.223 56.7428 982.538 59.0988 974.87 63.857C967.201 68.6152 961.15 75.175 956.715 83.5364C952.28 91.944 950.063 101.46 950.063 112.085C950.063 122.71 952.28 132.181 956.715 140.403C961.15 148.626 967.248 155.186 974.962 160.083ZM1025.18 130.009C1020.88 134.721 1015.15 137.031 1007.99 137.031C1003.47 137.031 999.4 135.969 995.843 133.844C992.24 131.719 989.422 128.762 987.297 124.974C985.172 121.186 984.109 116.89 984.109 112.085C984.109 107.281 985.172 102.985 987.297 99.1968C989.422 95.4087 992.286 92.4522 995.843 90.3272C999.446 88.2022 1003.33 87.1397 1007.99 87.1397C1012.66 87.1397 1016.82 88.2022 1020.47 90.3272C1024.11 92.406 1026.89 95.3625 1028.78 99.0582C1030.67 102.8 1031.64 107.05 1031.64 111.854C1031.64 119.292 1029.47 125.344 1025.18 130.009ZM1075.99 165.257L1114.17 110.95L1078.21 58.9601H1117.34L1135.08 87.608L1152.72 58.9601H1189.45L1153.99 110.542L1191.44 165.21H1152.51L1133.12 133.77L1112.76 165.257H1076.04H1075.99ZM1152.51 165.21L1152.54 165.257L1152.49 165.21H1152.51ZM1148.1 119.107L1148.12 119.078L1148.15 119.107H1148.1ZM1208.34 39.0498C1211.81 42.6992 1216.1 44.5009 1221.23 44.5009C1226.64 44.5009 1230.98 42.6992 1234.26 39.0498C1237.59 35.4003 1239.2 31.1965 1239.2 25.9302C1239.2 20.6638 1237.54 16.3214 1234.26 12.8105C1230.98 9.29966 1226.64 7.54422 1221.23 7.54422C1216.15 7.54422 1211.85 9.29966 1208.34 12.8105C1204.83 16.3214 1203.08 20.8486 1203.08 25.9302C1203.08 31.0117 1204.83 35.4003 1208.34 39.0498ZM1204.37 58.9602V165.211V165.257H1238.05V58.9602H1204.37ZM1305.63 167.428C1296.02 167.428 1287.34 164.98 1279.62 160.083C1271.91 155.186 1265.81 148.626 1261.38 140.403C1256.94 132.181 1254.72 122.71 1254.72 112.085C1254.72 101.46 1256.94 91.944 1261.38 83.5364C1265.81 75.175 1271.86 68.6152 1279.53 63.857C1287.2 59.0988 1295.88 56.7428 1305.68 56.7428C1312.84 56.7428 1319.26 58.1287 1325.03 60.9004C1328.81 62.713 1332.11 64.98 1334.97 67.7014V59.0064H1368V165.303H1334.97V165.257V156.665C1332.18 159.3 1328.95 161.501 1325.27 163.27C1319.49 166.042 1312.98 167.428 1305.68 167.428H1305.63ZM1312.65 137.031C1319.81 137.031 1325.54 134.721 1329.84 130.009C1334.13 125.344 1336.31 119.292 1336.31 111.854C1336.31 107.05 1335.34 102.8 1333.44 99.0582C1331.55 95.3625 1328.78 92.406 1325.13 90.3272C1321.48 88.2022 1317.32 87.1397 1312.65 87.1397C1307.99 87.1397 1304.11 88.2022 1300.5 90.3272C1296.95 92.4522 1294.08 95.4087 1291.96 99.1968C1289.83 102.985 1288.77 107.281 1288.77 112.085C1288.77 116.89 1289.83 121.186 1291.96 124.974C1294.08 128.762 1296.9 131.719 1300.5 133.844C1304.06 135.969 1308.13 137.031 1312.65 137.031ZM1411.74 165.58C1417.84 167.243 1424.03 168.075 1430.31 168.075L1430.27 168.167C1443.53 168.167 1454.06 165.072 1461.87 158.882C1469.67 152.691 1473.55 144.422 1473.55 134.074C1473.55 127.376 1472.35 121.925 1469.86 117.767C1467.41 113.61 1464.18 110.237 1460.25 107.697C1456.32 105.156 1452.16 103.169 1447.78 101.784C1443.43 100.398 1439.32 99.1966 1435.44 98.1803C1431.61 97.164 1428.37 95.9629 1425.83 94.6694C1423.29 93.3298 1422 91.5743 1422 89.4031C1422 87.5091 1422.97 85.9846 1424.86 84.8297C1426.76 83.6749 1429.48 83.0743 1433.41 83.0743C1437.34 83.0743 1441.4 83.9058 1445.56 85.5689C1449.72 87.2319 1453.46 90.0499 1456.83 93.9765L1475.86 74.5281C1471.2 68.384 1465.01 63.7645 1457.29 60.6231C1449.53 57.4818 1441.22 55.9112 1432.35 55.9112C1423.48 55.9112 1415.81 57.3894 1409.39 60.2998C1402.97 63.2101 1398.02 67.1829 1394.51 72.2183C1391 77.2536 1389.25 83.4901 1389.25 90.0499C1389.25 96.6097 1390.45 101.968 1392.94 106.034C1395.39 110.099 1398.62 113.333 1402.55 115.642C1406.48 117.998 1410.63 119.846 1415.02 121.232C1419.37 122.618 1423.57 123.819 1427.59 124.928C1431.61 126.036 1434.84 127.191 1437.34 128.439C1439.78 129.64 1441.03 131.58 1441.03 134.213C1441.03 136.384 1439.97 138.094 1437.84 139.248C1435.72 140.403 1432.85 141.004 1429.21 141.004C1423.38 141.004 1418.12 139.941 1413.36 137.816C1408.65 135.691 1404.44 132.735 1400.8 128.947L1381.53 148.21C1385.32 152.137 1389.75 155.602 1394.88 158.604C1400.01 161.561 1405.6 163.917 1411.74 165.58ZM485.333 96.6098C485.476 98.5694 485.607 100.529 485.739 102.495L485.739 102.498C485.862 104.332 485.985 106.171 486.118 108.02C486.118 108.352 486.156 108.647 486.197 108.971L486.211 109.083C486.211 109.267 486.396 109.267 486.58 109.267C486.719 109.267 486.811 109.221 486.857 109.083V108.805L486.58 104.371C486.442 102.107 486.257 99.8435 486.072 97.6261C486.026 97.0255 485.98 96.425 485.934 95.8706C485.841 94.3924 485.737 92.9257 485.633 91.4589C485.529 89.9922 485.425 88.5255 485.333 87.0472C485.333 86.6777 485.287 86.2619 485.241 85.8923C485.241 85.6614 484.917 85.5228 484.686 85.7076C484.548 85.7999 484.548 85.9385 484.594 86.1233C484.855 89.4264 485.075 92.7704 485.292 96.0783L485.292 96.0843L485.333 96.7022V96.6098ZM496.559 70.9711C496.697 71.2021 496.559 71.4331 496.559 71.4331H496.42C496.328 71.5255 496.235 71.6178 496.097 71.7102C493.741 73.5581 491.338 75.4059 488.936 77.2537C488.85 77.3401 488.745 77.4086 488.634 77.4815C488.567 77.5255 488.498 77.5711 488.428 77.6233C488.382 77.5771 488.347 77.5309 488.313 77.4847C488.301 77.4687 488.289 77.4526 488.276 77.4365C488.252 77.4064 488.227 77.3763 488.197 77.3461C488.151 77.2537 488.105 77.1152 488.197 77.0228C488.223 76.9965 488.25 76.974 488.276 76.953L488.292 76.9406L488.31 76.9268L488.336 76.9073L488.368 76.8832C488.383 76.8717 488.398 76.8601 488.412 76.8477C488.433 76.8307 488.454 76.8124 488.474 76.7918C489.722 75.8217 490.969 74.8631 492.216 73.9045C493.463 72.946 494.711 71.9874 495.958 71.0173C495.977 71.0078 495.994 70.9983 496.01 70.9887C496.033 70.9752 496.053 70.9617 496.073 70.9482L496.074 70.948C496.094 70.9342 496.115 70.9205 496.138 70.9068C496.153 70.8974 496.17 70.8881 496.189 70.8787C496.328 70.7863 496.466 70.8325 496.559 70.9711ZM498.314 71.202C498.961 71.1096 499.515 70.5553 499.515 69.8623C499.515 69.1232 499.007 68.5688 498.314 68.4765H497.529C497.483 68.6612 497.344 68.7536 497.159 68.6612C497.159 68.7998 497.159 68.8922 496.974 68.846C497.021 69.0308 496.974 69.1694 496.79 69.2156C496.851 69.4004 496.831 69.5852 496.81 69.7699L496.804 69.8287C496.801 69.8524 496.799 69.8761 496.797 69.8998C496.793 69.9489 496.79 69.998 496.79 70.0471C496.928 70.7401 497.575 71.2482 498.268 71.1558L498.314 71.202ZM478.496 81.1805C478.635 80.9957 478.866 80.6723 478.866 80.6723L478.912 80.6261C479.084 80.3856 479.249 80.1451 479.413 79.9069C479.69 79.5047 479.961 79.1093 480.252 78.7321C480.436 78.4087 480.483 78.1315 480.39 77.8082C480.252 77.3462 480.125 76.8727 479.997 76.3992C479.87 75.9257 479.743 75.4522 479.605 74.9902C479.598 74.9697 479.59 74.9492 479.582 74.9284C479.536 74.8086 479.487 74.6789 479.605 74.4821C480.067 74.6438 480.54 74.7823 481.014 74.9209C481.487 75.0595 481.961 75.1981 482.423 75.3598C483.023 75.5446 483.485 75.4984 483.993 75.1288C484.425 74.7901 484.897 74.4924 485.369 74.1947C485.605 74.0458 485.841 73.8969 486.072 73.7429C486.534 73.4196 486.627 73.4196 486.627 74.0663C486.673 74.944 486.719 75.868 486.719 76.7457C486.719 77.2538 486.95 77.5772 487.32 77.8544L489.398 79.5174C489.445 79.5636 489.502 79.6098 489.56 79.6561L489.561 79.6564C489.618 79.7025 489.676 79.7485 489.722 79.7946C489.635 80.0104 489.468 80.0649 489.334 80.1088L489.306 80.118C488.428 80.4413 487.551 80.7647 486.627 81.0419C486.257 81.1343 486.026 81.3653 485.888 81.7348C485.749 82.1275 485.599 82.5202 485.449 82.9128C485.298 83.3055 485.148 83.6982 485.01 84.0908C484.99 84.1511 484.972 84.2114 484.954 84.2708C484.891 84.4842 484.831 84.6854 484.686 84.8299C484.551 84.8637 484.49 84.7741 484.431 84.6874C484.409 84.6554 484.388 84.6238 484.363 84.599C484.163 84.3373 483.958 84.0756 483.752 83.8139C483.342 83.2902 482.931 82.7666 482.561 82.243C482.33 81.8734 482.007 81.7348 481.591 81.7348C481.291 81.7348 480.991 81.7233 480.69 81.7117C480.39 81.7002 480.09 81.6886 479.79 81.6886H478.727C478.311 81.6886 478.265 81.55 478.496 81.1805ZM437.328 79.1741L437.274 79.1714C435.897 79.102 434.52 79.0325 433.132 78.9631H432.855C432.716 78.9631 432.67 79.0555 432.624 79.1941C432.531 79.5174 432.624 79.6098 432.947 79.656C433.686 79.7022 434.425 79.7369 435.164 79.7715C435.904 79.8062 436.643 79.8408 437.382 79.887C438.098 79.9332 438.826 79.9678 439.553 80.0025L439.553 80.0025L439.554 80.0025C440.281 80.0372 441.008 80.0718 441.724 80.118C441.955 80.118 442.048 80.0718 442.048 79.7946C442.048 79.5636 442.001 79.4712 441.77 79.4251H441.309L441.401 79.3789L439.731 79.2951L437.338 79.1746L437.328 79.1741ZM445.882 79.5174C446.113 79.4712 446.344 79.4712 446.575 79.4712H446.621C448.977 79.425 451.38 79.3326 453.736 79.2402C455.121 79.194 456.507 79.1363 457.893 79.0785L457.894 79.0785L457.894 79.0785L457.895 79.0785L457.895 79.0784L457.896 79.0784L457.896 79.0784L457.896 79.0784L457.897 79.0784L457.897 79.0783L457.898 79.0783L457.898 79.0783L457.899 79.0783L457.899 79.0782L457.9 79.0782L457.9 79.0782L457.901 79.0782L457.901 79.0781L457.902 79.0781L457.902 79.0781L457.902 79.0781L457.903 79.0781L457.903 79.078L457.904 79.078L457.904 79.078C459.286 79.0204 460.669 78.9629 462.051 78.9169C466.948 78.7321 471.891 78.5473 476.833 78.3625H478.866C479.051 78.3625 479.143 78.4549 479.143 78.6397C479.143 78.8707 479.051 79.0093 478.866 79.0093C478.497 79.0555 478.081 79.0555 477.711 79.0555C475.355 79.1478 472.988 79.2287 470.62 79.3095C468.253 79.3904 465.885 79.4712 463.529 79.5636H462.282C457.986 79.7484 453.643 79.9332 449.347 80.0718C448.284 80.118 447.176 80.1641 446.067 80.1641C445.79 80.1641 445.698 80.0718 445.698 79.7946C445.698 79.656 445.744 79.5174 445.882 79.5174ZM418.026 70.3706C417.656 70.2782 417.333 70.232 417.009 70.3706C416.455 70.6478 416.178 71.2945 416.409 71.8489C416.64 72.4956 417.287 72.819 417.887 72.6342C418.488 72.4494 418.857 71.8951 418.765 71.2945C418.765 71.1646 418.706 71.0494 418.647 70.9322C418.601 70.8411 418.554 70.7489 418.534 70.6478L418.534 70.4681L418.631 70.3705C418.583 70.4193 418.534 70.4193 418.534 70.4193L418.534 70.4168C418.425 70.4895 418.287 70.4478 418.143 70.4042L418.143 70.4041C418.104 70.3923 418.065 70.3804 418.026 70.3706ZM444.034 81.2266C443.341 81.2266 442.741 80.7185 442.741 80.0255C442.741 79.2864 443.341 78.6859 444.034 78.6859C444.727 78.6859 445.328 79.2402 445.328 79.9332C445.328 80.6261 444.819 81.2266 444.034 81.2266ZM455.768 161.33C455.906 162.947 456.276 164.471 457.107 165.857C457.338 166.227 457.569 166.458 457.985 166.596C458.17 166.643 458.355 166.735 458.54 166.827C459.232 167.151 459.972 167.151 460.711 166.966C461.45 166.781 462.004 166.412 462.466 165.811C462.643 165.581 462.786 165.413 462.898 165.283C463.08 165.07 463.177 164.957 463.195 164.833C463.216 164.695 463.14 164.542 462.979 164.22C462.914 164.089 462.835 163.93 462.743 163.732C462.235 162.67 462.05 161.561 462.328 160.406C462.605 159.113 463.298 158.05 464.453 157.265C464.684 157.08 464.684 157.034 464.499 156.711C463.298 154.724 463.159 152.692 464.314 150.613C464.327 150.59 464.341 150.568 464.355 150.546C464.371 150.521 464.387 150.497 464.403 150.472C464.447 150.407 464.494 150.339 464.545 150.266C464.64 150.129 464.748 149.974 464.868 149.781C463.681 149.707 462.643 149.871 461.611 150.034C461.357 150.074 461.104 150.114 460.849 150.151C460.526 150.151 460.341 150.336 460.11 150.567C458.771 152.137 457.616 153.846 456.83 155.787C456.091 157.542 455.722 159.344 455.86 161.284L455.768 161.33ZM460.757 175.558C459.926 175.743 459.048 175.743 458.032 175.743C457.086 175.816 456.026 175.66 454.941 175.5L454.941 175.5C454.648 175.456 454.354 175.413 454.059 175.374C453.782 175.327 453.551 175.235 453.366 175.05C452.488 174.219 451.703 173.202 451.195 172.094C451.056 171.863 451.149 171.724 451.426 171.724H451.934C454.105 171.817 455.63 170.8 456.785 169.045C456.821 168.972 456.857 168.907 456.893 168.843L456.923 168.791L456.956 168.733L456.982 168.687C457.009 168.639 457.035 168.59 457.062 168.537C457.154 168.352 457.339 168.259 457.478 168.352C457.751 168.461 458.041 168.522 458.328 168.582C458.525 168.624 458.721 168.665 458.91 168.721C459.372 168.814 459.833 168.814 460.342 168.814C461.728 168.721 462.79 168.029 463.668 167.012C463.737 166.966 463.783 166.897 463.829 166.827L463.84 166.812L463.859 166.784C463.87 166.767 463.882 166.75 463.895 166.734C463.903 166.725 463.911 166.715 463.919 166.706C463.922 166.702 463.926 166.698 463.93 166.694L463.938 166.686L463.945 166.68C463.959 166.666 463.974 166.654 463.991 166.643C464.128 166.525 464.216 166.366 464.303 166.207C464.42 165.992 464.537 165.779 464.776 165.673C465.077 165.788 465.39 165.8 465.708 165.811C466.025 165.823 466.348 165.834 466.67 165.95C467.733 166.319 468.426 167.012 468.657 168.121C468.657 168.19 468.68 168.248 468.703 168.306C468.726 168.363 468.749 168.421 468.749 168.49C468.764 168.641 468.799 168.797 468.834 168.955L468.834 168.955C468.907 169.28 468.981 169.612 468.888 169.923C468.703 170.431 468.426 170.939 468.056 171.355C467.086 172.463 466.024 173.48 464.684 174.219C463.483 174.866 462.143 175.281 460.757 175.558ZM471.197 170.708C470.689 170.754 470.366 170.893 470.088 171.308C469.975 171.473 469.867 171.638 469.759 171.801C469.384 172.37 469.02 172.92 468.518 173.387C468.393 173.501 468.271 173.614 468.15 173.727C467.777 174.073 467.412 174.413 466.993 174.727C465.792 175.651 464.499 176.298 463.02 176.713C461.866 177.037 460.711 177.268 459.51 177.36C459.29 177.372 459.071 177.389 458.851 177.406C458.193 177.458 457.535 177.51 456.876 177.406C456.784 177.406 456.692 177.406 456.645 177.499C456.599 177.637 456.692 177.683 456.784 177.73C457.031 177.841 457.278 177.958 457.525 178.076L457.526 178.077C458.206 178.401 458.891 178.728 459.602 178.931C461.126 179.393 462.697 179.67 464.037 179.624C464.453 179.577 464.822 179.577 465.163 179.577C465.503 179.577 465.815 179.577 466.116 179.531C467.27 179.346 468.379 179.023 469.488 178.607C470.781 178.145 471.936 177.452 473.045 176.667C473.646 176.251 474.2 175.743 474.708 175.189C474.939 174.958 475.078 174.727 475.078 174.403C475.17 173.572 475.031 172.74 474.477 172.094C473.646 171.124 472.583 170.477 471.151 170.615L471.197 170.708ZM455.444 167.982C454.89 168.952 454.058 169.599 452.996 169.923V169.969C452.257 170.2 451.564 170.107 450.871 169.876C450.27 169.645 449.855 169.183 449.67 168.537C449.439 167.705 449.347 166.874 449.254 166.043L449.254 166.042C449.069 164.333 449.254 162.624 449.716 160.961C450.039 159.806 450.409 158.651 451.01 157.634C451.133 157.434 451.251 157.229 451.369 157.024C451.605 156.613 451.841 156.202 452.118 155.833C452.719 155.047 453.412 154.355 454.105 153.662C454.659 153.2 455.213 152.784 455.814 152.368C455.99 152.222 456.184 152.131 456.385 152.037L456.388 152.036C456.421 152.02 456.456 152.004 456.49 151.988C456.572 151.949 456.655 151.907 456.738 151.86C456.184 152.969 455.675 153.985 455.167 155.047C454.844 155.694 454.613 156.387 454.428 157.126C454.105 158.42 453.828 159.713 453.92 161.053C454.012 162.993 454.428 164.887 455.444 166.55C455.814 167.058 455.722 167.474 455.444 167.982ZM475.632 162.808C476.279 163.686 476.879 164.61 477.341 165.58H477.387C477.803 166.412 478.219 167.243 478.496 168.167C478.589 168.491 478.589 168.768 478.496 169.091C478.265 169.923 477.896 170.662 477.48 171.401C477.392 171.523 477.345 171.673 477.296 171.823C477.217 172.07 477.137 172.32 476.879 172.463C476.72 172.4 476.671 172.27 476.625 172.15C476.604 172.096 476.585 172.044 476.556 172.001C476.048 171.17 475.401 170.477 474.616 169.876C473.646 169.137 472.583 168.906 471.428 168.86H470.828C470.689 168.86 470.55 168.768 470.55 168.629C470.504 168.537 470.504 168.398 470.504 168.26C470.412 167.289 469.95 166.458 469.396 165.719C468.841 164.98 468.056 164.518 467.178 164.24C466.624 164.056 466.069 163.917 465.469 163.917C464.822 163.963 464.499 163.64 464.268 163.132C463.944 162.439 463.852 161.7 463.852 160.961C463.852 160.32 464.247 159.798 464.635 159.284C464.667 159.243 464.698 159.201 464.73 159.159C465.561 158.096 466.716 157.912 467.964 158.096C469.95 158.374 471.705 159.113 473.276 160.36C474.2 161.053 474.939 161.884 475.632 162.808ZM512.635 59.2374C512.958 58.5907 513.189 57.9439 513.42 57.251V57.0662C513.42 56.9738 513.374 56.8814 513.281 56.8814H513.004C512.265 56.9276 511.48 57.0662 510.787 57.2972C510.233 57.482 510.002 57.8977 510.002 58.4521C510.002 58.8217 510.14 59.145 510.371 59.4222C510.879 60.069 512.127 60.3923 512.681 59.2374H512.635ZM474.154 153.662C475.724 155.14 476.972 156.803 477.849 158.743L477.942 158.697C478.542 160.009 478.776 161.352 479.016 162.725V162.725C479.036 162.836 479.055 162.947 479.075 163.058C479.112 163.266 479.149 163.476 479.189 163.686V164.287V164.564C479.189 164.656 479.189 164.795 479.097 164.795C478.958 164.841 478.866 164.749 478.866 164.656C478.788 164.423 478.652 164.205 478.515 163.984C478.408 163.812 478.3 163.638 478.219 163.455C477.828 162.712 477.304 162.034 476.788 161.367L476.787 161.367L476.783 161.362C476.691 161.243 476.6 161.125 476.51 161.007C475.078 159.159 472.583 157.496 470.319 156.803C469.165 156.434 468.01 156.249 466.855 156.249C466.3 156.249 465.977 156.018 465.792 155.556C465.746 155.463 465.7 155.383 465.654 155.302C465.607 155.221 465.561 155.14 465.515 155.048C464.961 154.078 465.099 153.061 465.423 152.045C465.654 151.26 466.254 150.751 466.947 150.382C467.178 150.289 467.409 150.289 467.686 150.289C468.333 150.382 468.98 150.567 469.627 150.844C469.766 150.91 469.906 150.976 470.046 151.041L470.046 151.042C470.874 151.43 471.693 151.815 472.444 152.368C472.523 152.423 472.603 152.477 472.681 152.531L472.78 152.597C473.266 152.927 473.74 153.248 474.154 153.662ZM499.33 63.5336C499.053 63.4874 498.915 63.5336 498.915 63.8107C498.853 64.3249 498.782 64.83 498.71 65.3421C498.621 65.9804 498.529 66.6297 498.453 67.3216C498.453 67.5988 498.453 67.6912 498.776 67.7374C499.053 67.7374 499.099 67.7374 499.146 67.3678C499.192 66.9533 499.249 66.5273 499.307 66.1013L499.307 66.0974C499.365 65.6701 499.423 65.2428 499.469 64.827C499.469 64.6423 499.492 64.469 499.515 64.2958C499.538 64.1226 499.561 63.9493 499.561 63.7645C499.561 63.626 499.469 63.5798 499.33 63.5336ZM486.95 110.376C487.089 110.653 487.319 110.792 487.643 110.838H487.597C487.639 110.844 487.681 110.849 487.722 110.853L487.768 110.857L487.797 110.859C488.036 110.879 488.246 110.897 488.428 111.115C488.367 111.331 488.223 111.464 488.079 111.598C488.007 111.665 487.935 111.731 487.874 111.808C487.689 111.993 487.643 112.178 487.643 112.455L487.643 112.456C487.689 112.779 487.735 113.102 487.735 113.425C487.413 113.465 487.196 113.33 486.992 113.202C486.962 113.184 486.933 113.166 486.904 113.148C486.58 112.963 486.303 112.963 485.98 113.148C485.749 113.287 485.518 113.425 485.241 113.425C485.121 113.185 485.174 112.946 485.22 112.736C485.227 112.703 485.234 112.671 485.241 112.64C485.333 112.224 485.194 111.947 484.917 111.67C484.876 111.615 484.814 111.564 484.751 111.512C484.604 111.39 484.45 111.264 484.548 111.069C484.64 110.838 484.964 110.838 485.194 110.838C485.61 110.838 485.841 110.653 486.026 110.284L486.046 110.234C486.132 110.014 486.23 109.766 486.488 109.637C486.648 109.765 486.742 109.96 486.83 110.145C486.869 110.226 486.908 110.306 486.95 110.376ZM431.33 81.0418C430.961 80.9956 430.591 80.9494 430.268 80.857L430.314 80.7646C429.944 80.6722 429.621 80.7184 429.344 80.9956C429.135 81.2044 428.907 81.3747 428.647 81.5687C428.505 81.6751 428.353 81.7886 428.189 81.9195C428.177 81.8352 428.165 81.7533 428.153 81.6734C428.136 81.5601 428.119 81.451 428.103 81.345L428.103 81.3444C428.043 80.9521 427.99 80.6043 427.958 80.2565C427.912 80.0255 427.819 79.8407 427.588 79.7021C427.219 79.4712 426.849 79.2402 426.526 79.0092C426.295 78.8706 426.295 78.732 426.526 78.6396L427.635 78.0853C427.912 77.9929 428.097 77.8081 428.143 77.5309C428.235 77.069 428.374 76.6532 428.512 76.2374C428.558 76.1451 428.697 76.0989 428.789 76.1912L428.79 76.1916L428.79 76.1919L428.791 76.1927C429.067 76.4692 429.298 76.6999 429.529 76.9766C429.806 77.3461 430.129 77.4847 430.591 77.4385H431.561C431.792 77.4385 431.885 77.5771 431.792 77.7619C431.654 78.0853 431.469 78.4087 431.284 78.6858C431.053 79.0092 431.053 79.3326 431.238 79.7021C431.307 79.8638 431.365 80.0371 431.423 80.2103C431.48 80.3835 431.538 80.5568 431.607 80.7184C431.7 80.9494 431.561 81.0418 431.33 81.0418ZM526.401 62.2863C526.239 62.2632 526.078 62.2286 525.916 62.1939C525.754 62.1593 525.593 62.1246 525.431 62.1015C525.061 62.1015 524.831 61.8705 524.692 61.5934C524.633 61.4881 524.578 61.3828 524.522 61.2759C524.355 60.9611 524.182 60.6331 523.907 60.2537C523.629 60.7157 523.398 61.1314 523.214 61.501C523.029 61.8705 522.798 62.0553 522.428 62.1015C522.21 62.1015 522.007 62.15 521.802 62.1991C521.66 62.2331 521.517 62.2674 521.366 62.2863C521.089 62.3325 521.042 62.5173 521.227 62.7483L521.366 62.8869C521.467 63.0214 521.598 63.1376 521.729 63.2533C521.958 63.4553 522.185 63.6556 522.244 63.9494C522.332 64.3909 522.251 64.8324 522.163 65.3143L522.151 65.3814V65.5662C522.151 65.7972 522.243 65.9358 522.474 65.8434C522.568 65.8061 522.661 65.7614 522.757 65.7152C522.899 65.6468 523.048 65.5752 523.214 65.52C523.38 65.4452 523.506 65.3824 523.606 65.3323C523.783 65.2437 523.881 65.1951 523.98 65.1909C524.101 65.1858 524.224 65.2465 524.498 65.3809C524.579 65.4207 524.673 65.467 524.784 65.52C524.88 65.5608 524.971 65.6097 525.062 65.6583C525.279 65.7747 525.494 65.8896 525.754 65.8896C525.867 65.74 525.858 65.5903 525.85 65.4652C525.848 65.4358 525.847 65.4078 525.847 65.3814C525.847 65.2106 525.803 65.0334 525.758 64.8569C525.683 64.5562 525.609 64.2575 525.754 63.9956C525.947 63.6487 526.236 63.3662 526.514 63.0944L526.515 63.0939C526.57 63.04 526.625 62.9865 526.678 62.933C526.693 62.9181 526.709 62.9031 526.726 62.8877C526.812 62.8083 526.909 62.7183 526.909 62.5635C526.909 62.4315 526.791 62.4174 526.674 62.4032C526.626 62.3976 526.579 62.3919 526.54 62.3787L526.401 62.2863ZM521.366 64.827C521.55 65.0118 521.55 65.3813 521.55 65.3813H521.504C521.284 65.5574 520.98 65.6076 520.712 65.6519L520.673 65.6585C514.39 66.952 508.061 68.2455 501.732 69.539C501.594 69.562 501.467 69.5852 501.34 69.6083C501.272 69.6206 501.205 69.6329 501.135 69.6451C501.074 69.6559 501.012 69.6667 500.947 69.6775C500.624 69.7237 500.485 69.6775 500.439 69.4004C500.347 69.1694 500.439 69.1232 500.762 69.0308C502.194 68.7075 503.58 68.4304 504.965 68.1532L504.966 68.1531C507.229 67.6913 509.48 67.2295 511.732 66.7677C513.984 66.3056 516.237 65.8434 518.502 65.3813C519.472 65.1965 520.442 65.0118 521.366 64.827ZM400.933 122.156C400.979 122.48 400.564 122.757 400.564 122.757V122.849C400.24 123.172 400.148 123.542 400.24 123.958C400.263 124.05 400.298 124.143 400.333 124.235C400.367 124.327 400.402 124.42 400.425 124.512C400.194 124.512 399.963 124.512 399.778 124.374C399.316 124.004 398.854 124.05 398.392 124.374C398.254 124.466 398.115 124.558 397.977 124.466C397.915 124.312 397.936 124.158 397.956 124.004C397.966 123.927 397.977 123.85 397.977 123.773C398.069 123.357 397.931 123.08 397.653 122.803C397.623 122.773 397.589 122.743 397.554 122.712C397.426 122.6 397.284 122.476 397.284 122.295C397.376 122.11 397.607 122.11 397.746 122.11C398.254 122.064 398.623 121.833 398.808 121.325C398.831 121.29 398.852 121.252 398.872 121.215C398.932 121.102 398.993 120.99 399.132 120.955C399.27 120.955 399.363 121.094 399.363 121.186C399.547 121.833 400.055 122.064 400.702 122.11C400.709 122.11 400.717 122.111 400.726 122.113C400.742 122.116 400.76 122.121 400.78 122.127C400.825 122.14 400.879 122.156 400.933 122.156ZM426.572 81.2728C426.48 81.5269 426.376 81.7925 426.272 82.0581C426.168 82.3237 426.064 82.5894 425.971 82.8435C425.291 84.629 424.628 86.4144 423.962 88.2106L423.961 88.2113L423.961 88.2121L423.961 88.2128L423.961 88.2135L423.96 88.2142C423.541 89.3446 423.12 90.4792 422.691 91.6207C422.599 91.8055 422.553 91.9902 422.507 92.175C422.553 92.3598 422.691 92.406 422.83 92.4522C422.969 92.4522 423.107 92.4522 423.153 92.3598C423.246 92.1288 423.338 91.8978 423.431 91.7131C423.87 90.5351 424.308 89.3686 424.747 88.2022C425.186 87.0357 425.625 85.8693 426.064 84.6913C426.249 84.16 426.445 83.6288 426.641 83.0975C426.838 82.5663 427.034 82.035 427.219 81.5038C427.311 81.2728 427.219 81.1804 427.034 81.088C426.849 80.9956 426.711 81.088 426.618 81.2728H426.572ZM427.265 77.2537C427.219 77.5309 426.757 77.5771 426.757 77.5771H426.618C426.572 77.554 426.526 77.5195 426.48 77.4849L426.48 77.4847L426.454 77.4659C426.447 77.4603 426.439 77.4548 426.432 77.4494C426.426 77.4448 426.419 77.4403 426.413 77.4359C426.389 77.4193 426.365 77.4043 426.341 77.3923C425.209 76.6531 424.077 75.9255 422.945 75.1978L422.94 75.1942C421.81 74.4679 420.68 73.7415 419.55 73.0037C419.504 72.9806 419.458 72.946 419.412 72.9113L419.411 72.9112C419.365 72.8766 419.319 72.842 419.273 72.8189C419.042 72.6341 419.042 72.4956 419.273 72.2646C419.29 72.2563 419.306 72.2466 419.323 72.2367C419.4 72.1912 419.483 72.1425 419.596 72.2184C419.683 72.2474 419.752 72.2946 419.814 72.3371C419.851 72.3624 419.885 72.386 419.92 72.4032C421.075 73.1423 422.218 73.8814 423.361 74.6206C424.505 75.3597 425.648 76.0988 426.803 76.838C426.9 76.8704 426.975 76.9255 427.058 76.9874L427.059 76.9879L427.061 76.9895C427.096 77.0152 427.132 77.0421 427.173 77.0689C427.265 77.1151 427.265 77.1613 427.265 77.2537ZM407.77 105.618C407.031 105.618 406.431 106.218 406.431 106.958C406.431 107.743 407.031 108.343 407.816 108.343C408.556 108.343 409.156 107.743 409.156 107.004C409.156 106.172 408.556 105.618 407.77 105.618ZM419.135 95.2702C419.135 94.0229 420.151 93.0066 421.398 93.0066C422.645 93.0066 423.616 93.9305 423.616 95.1778C423.708 96.5637 422.507 97.4876 421.398 97.4876C420.197 97.4414 419.135 96.4713 419.135 95.2702ZM406.154 108.713C406.154 108.713 406.061 108.852 406.015 108.944C404.998 110.655 403.992 112.354 402.986 114.053L402.983 114.058C401.981 115.753 400.978 117.447 399.963 119.153C399.927 119.208 399.898 119.263 399.87 119.314L399.87 119.315C399.827 119.394 399.788 119.467 399.732 119.523C399.64 119.708 399.64 119.8 399.871 119.939C400.056 120.031 400.194 120.031 400.287 119.846C400.323 119.792 400.352 119.737 400.38 119.686L400.38 119.685C400.423 119.605 400.462 119.533 400.518 119.477C401.534 117.767 402.539 116.07 403.543 114.372C404.548 112.674 405.553 110.977 406.569 109.267C406.674 109.127 406.753 108.961 406.825 108.808C406.848 108.759 406.87 108.712 406.893 108.667C406.554 108.39 406.292 108.42 406.107 108.759L406.154 108.713ZM418.58 97.6723C418.719 97.5799 418.996 97.3489 418.996 97.3489H418.95C419.134 97.2103 419.273 97.2565 419.412 97.4413C419.596 97.6261 419.596 97.7647 419.412 97.9033C419.254 98.0349 419.095 98.1674 418.935 98.3006C417.974 99.1026 416.983 99.9289 415.993 100.721C414.831 101.704 413.651 102.668 412.463 103.637C411.809 104.171 411.152 104.707 410.496 105.248C410.357 105.341 410.219 105.433 410.08 105.572C409.849 105.71 409.757 105.618 409.618 105.479C409.6 105.443 409.574 105.414 409.55 105.386C409.513 105.343 409.479 105.304 409.479 105.248C409.541 105.064 409.685 104.961 409.828 104.858C409.9 104.807 409.972 104.756 410.034 104.694C411.464 103.518 412.882 102.353 414.3 101.188C415.723 100.02 417.146 98.8521 418.58 97.6723Z" fill="white"/>
</svg>
