<svg width="328" height="355" viewBox="0 0 328 355" fill="none" xmlns="http://www.w3.org/2000/svg">
<path fill-rule="evenodd" clip-rule="evenodd" d="M153.426 325.974L162.155 354.998L155.509 354.457L154.092 349.248L143.091 348.352L140.819 353.248L134.318 352.728L147.737 325.516L153.426 325.974ZM181.825 325.078C183.7 324.87 185.388 325.016 186.867 325.558C188.367 326.079 189.555 326.932 190.492 328.078C191.409 329.224 191.971 330.599 192.159 332.183C192.367 333.87 192.138 335.371 191.492 336.704C190.846 338.038 189.846 339.121 188.492 339.976L188.513 339.996C187.762 340.475 186.929 340.83 186.013 341.101L196.348 351.79L188.93 352.665L179.241 342.143L178.595 342.226L179.949 353.728L173.678 354.457L170.365 326.433L175.157 325.87L181.825 325.078ZM230.601 341.726L224.247 343.768L220.955 339.496L210.432 342.872L210.203 348.269L203.994 350.269L205.973 319.994H205.994L211.432 318.244L230.601 341.726ZM118.504 319.64L125.255 321.494C126.963 321.953 128.443 322.723 129.651 323.807L129.631 323.828C130.839 324.912 131.672 326.204 132.131 327.725C132.589 329.246 132.568 330.912 132.068 332.704C131.568 334.475 130.756 335.892 129.589 336.976C128.422 338.059 127.046 338.746 125.463 339.059C123.879 339.35 122.233 339.288 120.504 338.809L115.191 337.351L112.482 347.247L106.398 345.581L113.837 318.369L118.504 319.64ZM145.412 343.393L152.696 343.997L149.904 333.725L145.412 343.393ZM96.5223 310.764L86.7293 331.245L98.0223 336.642L95.6473 341.622L83.5623 335.851L78.6659 333.496L90.8338 308.055L96.5223 310.764ZM184.658 330.725C183.908 330.141 182.908 329.912 181.7 330.058L177.22 330.579L178.032 337.517L182.471 336.996C183.7 336.85 184.616 336.434 185.221 335.726L185.242 335.746C185.846 335.038 186.096 334.162 185.971 333.1C185.845 332.1 185.408 331.308 184.658 330.725ZM210.662 337.391L217.621 335.163L211.12 326.745L210.662 337.391ZM245.853 333.98L240.222 336.832L227.475 311.664L233.107 308.812L245.853 333.98ZM116.483 332.621L120.921 333.829C121.671 334.017 122.38 334.059 123.067 333.934C123.755 333.809 124.359 333.496 124.88 332.996C125.401 332.496 125.776 331.85 126.005 331.017V331.037C126.234 330.183 126.255 329.412 126.047 328.725C125.838 328.037 125.484 327.454 124.963 326.995C124.442 326.537 123.817 326.204 123.067 325.995L118.629 324.786L116.483 332.621ZM76.5399 298.824L68.6854 328.1L63.3094 324.141L64.8514 318.973L55.9754 312.41L51.4539 315.39L46.2235 311.514L46.203 311.493L71.9354 295.429L76.5399 298.824ZM253.146 296.845C254.876 296.491 256.522 296.491 258.063 296.845L257.022 302.575C255.835 302.346 254.75 302.283 253.792 302.429C252.833 302.575 251.917 302.951 251.042 303.555C250.146 304.159 249.542 304.826 249.25 305.534C248.958 306.222 249.042 306.889 249.479 307.534C249.875 308.097 250.396 308.43 251.042 308.514C251.688 308.597 252.417 308.555 253.251 308.367C254.084 308.18 254.98 307.951 255.938 307.68C256.897 307.409 257.876 307.18 258.897 306.972C259.918 306.784 260.918 306.743 261.939 306.847C262.96 306.951 263.96 307.284 264.919 307.805L264.836 307.826C265.815 308.368 266.711 309.243 267.565 310.472C269.086 312.701 269.502 314.973 268.794 317.327C268.085 319.682 266.335 321.828 263.522 323.766C261.585 325.099 259.73 325.932 257.938 326.266C256.147 326.599 254.251 326.516 252.251 326.016L253.292 320.349C254.625 320.682 255.918 320.786 257.147 320.619C258.397 320.473 259.606 319.973 260.814 319.14C261.898 318.39 262.585 317.598 262.919 316.785C263.231 315.952 263.148 315.202 262.669 314.493C262.231 313.868 261.689 313.493 261.043 313.368C260.376 313.243 259.626 313.264 258.772 313.431C257.918 313.597 257.021 313.827 256.084 314.098C255.146 314.369 254.167 314.598 253.146 314.785C252.125 314.973 251.104 315.014 250.125 314.973C249.146 314.931 248.167 314.639 247.229 314.118C246.292 313.597 245.437 312.764 244.625 311.597C243.625 310.138 243.124 308.659 243.103 307.159C243.083 305.659 243.52 304.201 244.395 302.805C245.27 301.409 246.499 300.158 248.083 299.074C249.729 297.949 251.417 297.199 253.146 296.845ZM60.5379 309.431L66.4139 313.764L69.4559 303.575L60.5379 309.431ZM224.955 52.4601C228.414 51.9183 230.393 54.2101 232.623 56.3771C238.061 61.6485 243.645 66.7537 249 72.1085C254.459 77.5883 260.127 82.9012 265.711 88.256C267.982 90.4437 271.753 92.9653 271.107 96.6114C270.44 100.383 267.482 104.529 265.648 107.862C258.897 120.114 255.563 132.907 258.501 146.742C261.564 161.202 269.815 174.247 273.69 188.54C277.441 202.458 277.899 217.126 274.232 231.128C270.107 246.838 261.627 259.445 248.667 269.154L248.645 269.175C237.144 277.78 222.059 282.323 208.64 287.073C193.389 292.491 180.428 299.408 167.844 309.68C160.238 315.889 155.03 307.846 148.862 303.158C141.57 297.595 133.193 293.782 124.713 290.365C107.836 283.552 88.3336 278.78 73.9569 267.112C58.9758 254.944 50.7035 237.608 48.995 218.418C48.1407 212.792 47.8071 204.917 49.328 198.416C51.1824 190.478 53.1411 182.81 56.0789 175.184C61.4546 161.203 68.9765 148.159 68.2264 132.657C67.8722 125.552 64.8508 118.635 61.9129 112.238C58.9125 105.696 50.6618 96.7984 57.2459 90.5685C67.7681 80.6089 78.228 70.587 88.7293 60.6066C92.7298 56.7936 96.1469 52.7518 99.5848 52.4601C100.731 52.3559 102.002 52.8141 103.148 53.6476C108.045 57.1898 119.65 64.0451 128.151 67.1495C141.757 72.1292 151.696 73.192 169.261 72.171C184.117 71.3167 201.285 66.0241 213.849 58.6066C217.121 56.6897 221.163 53.0436 224.955 52.4601ZM231.789 302.408L226.789 309.597L223.622 307.847L226.622 299.699L231.789 302.408ZM259.647 269.112C239.124 290.615 211.536 305.305 180.637 309.409C184.366 306.763 188.18 304.367 192.201 302.2C204.953 299.221 216.975 294.345 227.976 287.886C236.477 284.615 245.083 280.677 252.542 275.093C255.063 273.197 257.418 271.196 259.647 269.092V269.112ZM69.9139 272.863C78.7275 280.01 88.8124 284.636 99.0428 288.553C109.607 294.616 121.108 299.22 133.276 302.096C136.672 303.825 139.965 305.784 142.966 308.076L142.986 308.097C143.465 308.43 143.945 308.846 144.466 309.305C115.691 305.325 89.8331 292.158 69.9139 272.863ZM280.858 275.03C282.754 274.968 284.588 275.28 286.38 275.968C288.172 276.676 289.818 277.738 291.318 279.176V279.218C292.797 280.635 293.943 282.218 294.693 283.989C295.443 285.76 295.86 287.573 295.881 289.448C295.902 291.324 295.589 293.178 294.881 294.97C294.172 296.762 293.11 298.429 291.651 299.95C290.172 301.492 288.547 302.659 286.755 303.45C284.963 304.242 283.109 304.659 281.213 304.722C279.317 304.784 277.462 304.471 275.67 303.783C273.878 303.096 272.232 302.033 270.753 300.616C269.253 299.179 268.128 297.574 267.378 295.824C266.607 294.074 266.231 292.261 266.189 290.386C266.168 288.511 266.502 286.677 267.231 284.844C267.961 283.01 269.044 281.344 270.523 279.802C271.961 278.281 273.586 277.113 275.357 276.321C277.128 275.53 278.962 275.093 280.858 275.03ZM48.7245 273.467L39.4725 291.49L58.1629 283.635L62.7049 288.511L34.5555 299.679L30.8465 295.699L44.119 268.529L48.7245 273.467ZM280.588 281.072C279.504 281.072 278.462 281.302 277.441 281.76C276.42 282.218 275.504 282.906 274.649 283.781C273.503 285.011 272.753 286.324 272.398 287.74C272.044 289.157 272.108 290.574 272.587 291.99C273.066 293.407 273.941 294.72 275.212 295.929C276.17 296.845 277.191 297.553 278.254 298.012C279.316 298.47 280.4 298.721 281.483 298.721C282.567 298.742 283.63 298.512 284.63 298.054C285.63 297.595 286.567 296.908 287.442 296.012C288.609 294.783 289.338 293.47 289.672 292.053H289.651C289.964 290.636 289.901 289.219 289.422 287.781C288.942 286.344 288.068 285.01 286.797 283.802C285.859 282.906 284.858 282.218 283.796 281.76C282.733 281.302 281.671 281.072 280.588 281.072ZM162.989 240.088C162.218 240.088 161.426 240.005 160.655 240.088C158.259 240.317 155.967 240.942 153.801 241.963C153.384 242.171 153.008 242.442 152.592 242.588C151.592 242.921 150.758 243.547 150.008 244.193C148.841 245.213 147.674 246.214 146.653 247.401C145.799 248.381 145.237 249.506 144.383 250.443C144.112 251.694 143.132 252.631 142.882 253.923C142.694 254.84 142.237 255.694 142.091 256.632C141.924 257.695 141.632 258.736 141.632 259.799C141.653 260.882 141.528 261.987 141.632 263.091C141.861 265.487 142.611 267.738 143.507 269.946C143.548 270.092 143.59 270.279 143.674 270.404C144.632 271.884 145.591 273.363 146.55 274.821C146.633 274.967 146.737 275.134 146.883 275.176C147.633 275.447 147.945 276.176 148.508 276.655C148.737 276.864 148.966 277.134 149.237 277.301C149.716 277.613 150.174 277.947 150.57 278.385C150.904 278.739 151.3 279.031 151.759 279.197C152.488 279.468 153.175 279.823 153.842 280.239C154.154 280.427 154.467 280.655 154.821 280.718C156.155 280.989 157.384 281.552 158.738 281.76C160.488 282.031 162.218 282.26 163.989 282.197C164.989 282.177 165.927 281.906 166.886 281.697C168.261 281.385 169.594 281.01 170.886 280.447C171.865 280.01 172.761 279.427 173.72 278.947C174.47 278.572 175.115 278.113 175.72 277.551C181.116 273.926 182.221 268.697 182.638 267.779C182.783 267.446 182.991 267.154 183.033 266.758C183.137 265.779 183.283 264.799 183.471 263.841L183.491 263.82C183.574 263.404 183.554 258.798 183.388 257.777C183.179 256.527 183.137 255.256 182.471 254.11C182.387 253.986 182.345 253.819 182.304 253.652C182.033 252.694 181.595 251.819 181.137 250.943C180.449 249.652 179.636 248.401 178.657 247.297C178.095 246.651 177.449 246.088 176.804 245.505C176.158 244.922 175.511 244.38 174.865 243.818C174.761 243.734 174.678 243.65 174.574 243.588C173.553 243.067 172.532 242.505 171.511 242.005C170.886 241.693 170.198 241.525 169.615 241.151C168.948 240.713 168.198 240.796 167.511 240.609C167.344 240.567 167.198 240.525 167.031 240.484C165.698 240.15 164.343 240.088 162.989 240.088ZM171.595 268.612C173.386 268.446 174.719 269.238 175.803 270.487C176.49 271.258 176.679 272.321 176.554 273.384C176.512 273.759 176.345 274.072 176.074 274.363C175.428 275.051 174.74 275.697 173.97 276.238C172.553 277.239 171.094 278.135 169.448 278.697C168.052 279.177 166.656 279.635 165.177 279.843C164.406 279.968 163.614 279.843 162.552 279.968C160.801 280.051 158.843 279.697 156.905 279.093C155.634 278.697 154.488 278.093 153.301 277.551C153.196 277.509 153.071 277.426 153.134 277.28C153.196 277.176 153.321 277.176 153.446 277.176C154.55 277.322 155.654 277.176 156.759 277.093C158.301 276.968 159.781 276.676 161.239 276.259C163.072 275.738 164.74 274.884 166.261 273.717C166.948 273.196 167.573 272.613 168.198 272.009C168.99 271.217 169.553 270.279 170.178 269.362C170.532 268.821 170.948 268.675 171.573 268.612H171.595ZM163.364 262.195C164.156 262.424 164.969 262.216 165.781 262.508C167.135 263.008 167.989 263.862 168.302 265.278C168.322 265.445 168.427 265.591 168.427 265.758C168.489 266.383 168.781 267.009 168.594 267.592C168.385 268.259 168.031 268.863 167.573 269.404C166.344 270.863 164.968 272.134 163.302 273.051C161.739 273.905 160.051 274.405 158.321 274.759C157.259 274.967 156.196 274.988 154.884 275.009L154.863 275.03C153.321 275.155 151.592 274.801 149.842 274.571C149.508 274.53 149.196 274.384 148.967 274.155C147.821 273.051 146.882 271.822 146.216 270.384C146.07 270.092 146.195 269.905 146.528 269.904H147.153C149.903 269.988 151.862 268.717 153.3 266.487C153.425 266.279 153.55 266.07 153.654 265.841C153.758 265.633 153.946 265.529 154.154 265.633C154.738 265.904 155.363 265.946 155.946 266.112C156.55 266.279 157.155 266.278 157.78 266.216C159.53 266.049 160.864 265.174 161.989 263.903C162.114 263.758 162.218 263.549 162.364 263.424C162.78 263.07 162.843 262.445 163.364 262.195ZM163.364 254.006C164.427 252.631 165.885 252.402 167.469 252.631C169.969 252.964 172.24 253.861 174.199 255.465C175.324 256.382 176.303 257.423 177.157 258.59C177.97 259.715 178.741 260.882 179.324 262.132L179.366 262.111C179.866 263.174 180.428 264.237 180.762 265.383C180.866 265.779 180.887 266.154 180.762 266.57C180.47 267.612 180.033 268.571 179.491 269.487C179.22 269.925 179.262 270.55 178.741 270.842C178.449 270.779 178.449 270.488 178.324 270.279C177.699 269.196 176.865 268.321 175.865 267.57C174.657 266.696 173.282 266.404 171.845 266.32H171.094C170.906 266.32 170.802 266.216 170.761 266.028C170.719 265.883 170.678 265.716 170.678 265.55C170.594 264.321 169.99 263.257 169.281 262.319C168.573 261.403 167.551 260.819 166.447 260.444C165.76 260.215 165.031 260.028 164.281 260.049C163.51 260.07 163.093 259.673 162.78 259.027C162.364 258.152 162.197 257.215 162.239 256.277C162.281 255.402 162.822 254.694 163.364 254.006ZM153.259 244.672C152.55 246.047 151.904 247.38 151.258 248.714C150.862 249.547 150.571 250.444 150.342 251.36C149.925 253.006 149.591 254.652 149.695 256.36C149.841 258.819 150.342 261.174 151.634 263.299C152.03 263.966 151.946 264.508 151.592 265.133C150.883 266.383 149.841 267.175 148.487 267.592L148.508 267.612C147.612 267.883 146.695 267.8 145.841 267.487C145.07 267.217 144.57 266.612 144.341 265.8C144.049 264.758 143.923 263.695 143.819 262.633C143.59 260.445 143.799 258.32 144.383 256.194C144.779 254.715 145.237 253.278 146.028 251.965C146.487 251.194 146.924 250.402 147.445 249.693C148.174 248.693 149.049 247.818 149.945 246.964C150.612 246.318 151.342 245.797 152.092 245.297C152.446 245.047 152.863 244.88 153.259 244.672ZM158.343 242.63C159.947 242.401 161.551 242.046 163.405 242.151C163.113 242.588 162.884 242.88 162.718 243.193C161.259 245.818 161.447 248.38 162.947 250.901C163.197 251.318 163.197 251.381 162.885 251.589C161.468 252.547 160.593 253.923 160.218 255.569C159.884 257.028 160.135 258.403 160.76 259.757C161.551 261.507 161.551 260.882 160.405 262.403C159.822 263.154 159.113 263.632 158.196 263.861C157.259 264.091 156.321 264.091 155.426 263.695C155.197 263.591 154.967 263.486 154.738 263.424C154.217 263.299 153.925 262.966 153.654 262.508C152.592 260.716 152.133 258.778 151.967 256.757L152.029 256.735C151.821 254.319 152.342 252.027 153.259 249.798C154.259 247.339 155.717 245.172 157.426 243.172C157.676 242.88 157.968 242.693 158.343 242.63ZM166.177 242.859C166.468 242.693 166.781 242.672 167.136 242.734C167.99 242.88 168.823 243.13 169.615 243.463C170.844 244.005 172.073 244.568 173.178 245.38C173.907 245.901 174.657 246.401 175.324 247.026C177.283 248.86 178.845 250.985 179.971 253.443L179.908 253.465C180.846 255.486 181.117 257.632 181.513 259.778C181.554 260.007 181.554 260.257 181.554 260.507V260.882C181.533 260.986 181.574 261.132 181.429 261.174C181.304 261.216 181.2 261.132 181.158 261.007C180.971 260.465 180.616 259.986 180.346 259.486C179.762 258.34 178.928 257.361 178.157 256.36C176.323 254.006 173.177 251.944 170.323 251.048C168.906 250.59 167.448 250.402 165.969 250.36C165.302 250.34 164.885 250.089 164.656 249.485C164.552 249.256 164.447 249.027 164.322 248.818C163.635 247.547 163.823 246.276 164.219 244.984C164.531 243.964 165.302 243.339 166.177 242.859ZM276.566 106.342C289.318 126.824 296.693 150.952 296.693 176.788C296.693 206 287.255 233.024 271.315 255.048C275.712 248.235 279.024 240.671 281.191 232.4C282.004 229.337 282.587 226.211 283.046 223.044C288.588 208.688 291.672 193.102 291.672 176.809C291.672 153.014 285.15 130.72 273.857 111.571L273.837 111.551C274.774 109.967 275.733 108.217 276.566 106.342ZM9.03109 125.969C-1.30356 167.849 2.07268 212.834 20.6375 251.943C-1.51113 214.585 -6.55424 166.703 9.03109 125.969ZM318.946 125.969C334.552 166.703 329.489 214.585 307.341 251.943C325.905 212.834 329.281 167.87 318.946 125.969ZM49.078 106.592C49.8489 108.634 50.7664 110.488 51.6414 112.092C40.5359 131.115 34.1385 153.223 34.1385 176.788C34.1385 192.499 36.9731 207.543 42.1405 221.461V221.44C43.474 232.108 46.7242 242.088 51.6414 250.964C37.4314 229.732 29.117 204.208 29.117 176.788C29.117 151.056 36.4306 127.011 49.078 106.592ZM224.1 119.947C223.559 119.968 223.08 120.135 222.559 120.239C220.497 120.656 218.433 121.093 216.474 121.885C214.099 122.843 211.704 123.74 209.307 124.636C208.307 125.011 207.328 125.323 206.39 125.844C204.14 127.073 201.806 128.115 199.66 129.532C197.556 130.928 195.43 132.303 193.514 133.949C193.201 134.22 192.868 134.47 192.493 134.657C190.889 135.428 189.284 136.137 187.534 136.512C186.471 136.741 185.408 136.908 184.325 137.096C182.512 137.408 180.678 137.637 178.824 137.596C178.262 137.575 177.699 137.617 177.137 137.721C176.324 137.908 175.491 137.887 174.699 137.596C174.116 137.387 173.532 137.387 172.928 137.471C171.698 137.637 170.49 137.909 169.303 138.263C167.844 138.68 166.427 139.179 165.031 139.721C163.948 140.138 162.864 140.367 161.718 140.367C160.864 140.346 159.989 140.388 159.135 140.513C158.51 140.596 157.863 140.617 157.218 140.555C155.988 140.451 154.738 140.429 153.509 140.304C152.092 140.158 150.654 140.012 149.237 139.929C147.32 139.804 145.424 139.45 143.507 139.45C143.111 139.45 142.695 139.367 142.278 139.325C141.695 139.263 141.09 139.2 140.486 139.179C139.549 139.116 138.61 139.116 137.673 139.054C136.694 138.991 135.735 138.867 134.756 138.783C134.006 138.742 133.256 138.596 132.506 138.741C131.797 138.866 131.089 138.763 130.401 138.471C129.693 138.179 128.985 137.929 128.214 137.971C127.651 138.012 127.088 138.096 126.547 138.2C125.109 138.492 123.692 138.909 122.233 139.075C121.629 139.159 121.067 139.366 120.546 139.679C120.004 140.012 119.421 140.284 118.796 140.45C118.421 140.534 118.066 140.721 117.774 140.93C116.983 141.492 116.129 141.617 115.191 141.45C114.92 141.409 114.649 141.367 114.399 141.325C113.024 141.075 111.69 140.721 110.336 140.388C109.211 140.096 108.106 139.721 107.106 139.096C106.315 138.596 105.44 138.429 104.523 138.679C104.128 138.783 103.711 138.888 103.336 139.033C102.065 139.513 100.793 139.97 99.4598 140.241C98.9389 140.346 98.5223 140.534 98.1473 140.867C97.6681 141.284 97.1262 141.45 96.4803 141.408C96.0637 141.367 95.647 141.387 95.2303 141.408C94.6677 141.45 94.3762 141.846 94.1678 142.305C94.0012 142.701 94.1886 143.18 94.6053 143.492C94.9386 143.742 95.2723 143.993 95.6473 144.159C96.4387 144.493 96.8133 144.993 96.8133 145.951C96.7928 147.076 97.8976 147.534 98.8143 146.867C99.0434 146.68 99.2727 146.493 99.5018 146.284C99.9601 145.889 100.46 145.743 101.064 145.889C101.835 146.076 102.627 146.18 103.419 146.139C104.023 146.118 104.481 146.43 104.877 146.867C105.523 147.597 105.898 148.431 105.898 149.431C105.898 150.535 106.086 151.597 106.69 152.556C107.044 153.118 107.023 153.66 106.69 154.243C106.19 155.097 105.877 156.014 105.648 156.973C104.982 159.827 104.273 162.682 103.586 165.536C103.419 166.161 103.21 166.745 102.919 167.328C102.585 167.974 102.231 168.6 102.002 169.267C101.314 171.225 100.21 172.892 98.8768 174.454C98.0434 175.433 97.1679 176.371 96.2928 177.309C95.6469 177.975 95.0006 178.663 94.2713 179.268C92.8962 180.393 91.5208 181.518 90.0623 182.518C87.8121 184.08 85.4786 185.539 83.1659 187.039C82.4991 187.477 81.8329 187.894 81.5203 188.686C81.4162 188.956 81.1659 189.165 80.9784 189.394C80.6658 189.769 80.3531 190.144 80.0614 190.54C79.4781 191.311 79.0823 192.165 78.9989 193.123C78.8739 194.352 78.6239 195.582 78.6864 196.832C78.7072 197.478 78.645 198.104 78.4784 198.729C78.3742 199.145 78.3322 199.562 78.2489 199.958C77.9363 201.521 77.6861 203.084 77.2694 204.605C76.9152 205.875 76.6861 207.167 76.3944 208.459C76.3527 208.605 76.3322 208.751 76.3114 208.897C76.1447 210.043 76.394 211.106 77.2274 211.918C77.8733 212.564 78.3113 213.251 78.4989 214.126C78.5405 214.355 78.6242 214.585 78.7284 214.773C79.0199 215.314 79.27 215.918 79.8739 216.126C80.6865 216.418 81.4994 216.731 82.3953 216.418C83.3328 216.085 84.3118 216.023 85.2909 216.21C85.9159 216.335 86.4373 216.148 86.8748 215.773C87.2916 215.398 87.7081 215.001 88.0623 214.564C88.4998 214.022 88.667 213.397 88.3963 212.668C88.0004 211.564 87.3955 210.667 86.3328 210.105C85.6871 209.771 85.1036 209.355 84.5203 208.939C83.9161 208.522 83.6867 207.896 83.7284 207.167C83.7284 206.938 83.7915 206.729 83.8123 206.5C83.9582 205.125 84.4995 203.875 84.8328 202.563C85.4371 200.146 86.6455 198.041 88.0623 196.02C88.9165 194.811 90.021 193.853 91.4168 193.27C92.8337 192.686 94.2513 192.082 95.6473 191.415C98.3974 190.123 101.127 188.769 103.877 187.436C104.189 187.29 104.502 187.061 104.814 187.061C105.606 187.061 106.128 186.623 106.69 186.164C107.107 185.81 107.607 185.539 108.086 185.227C108.627 184.873 109.19 184.56 109.711 184.206C110.482 183.685 111.274 183.185 112.149 182.81C112.587 182.622 112.961 182.393 113.295 182.08C113.962 181.455 114.712 180.955 115.504 180.538C116.483 180.038 117.337 179.372 118.024 178.497C118.191 178.31 118.4 178.122 118.608 177.976C118.837 177.788 119.171 177.934 119.213 178.226C119.379 179.184 119.504 180.164 119.713 181.122C119.879 181.893 119.963 182.685 120.088 183.456C120.4 185.435 120.004 187.29 119.191 189.061C118.608 190.331 117.942 191.561 117.358 192.811C117.046 193.477 116.65 194.123 116.191 194.728C115.816 195.207 115.462 195.686 115.274 196.27C114.962 197.145 114.629 198.041 114.316 198.916C113.837 200.208 113.649 201.52 113.982 202.896C114.045 203.146 114.086 203.395 114.107 203.666C114.232 204.791 114.712 205.751 115.379 206.647C115.629 206.98 115.899 207.292 116.149 207.625C116.712 208.375 117.358 209.084 117.796 209.917C118.629 211.459 119.566 212.96 120.296 214.585C120.671 215.439 121.046 216.293 121.463 217.148C121.817 217.856 122.275 218.502 122.942 218.96C123.338 219.231 123.734 219.336 124.213 219.232C124.713 219.107 125.254 219.085 125.775 219.023C126.421 218.939 126.963 219.127 127.422 219.585C127.734 219.877 128.047 220.148 128.359 220.419C129.13 221.044 129.964 221.273 130.881 220.835C131.339 220.606 131.798 220.565 132.298 220.627C132.485 220.648 132.673 220.648 132.86 220.648C133.506 220.668 134.047 220.439 134.506 220.023C135.193 219.377 135.568 218.564 135.693 217.648C135.735 217.273 135.672 216.897 135.506 216.543C135.026 215.418 134.235 214.605 133.151 214.064C132.339 213.668 131.506 213.314 130.693 212.918C130.152 212.647 129.589 212.459 128.964 212.459C128.318 212.48 127.88 212.147 127.526 211.689C126.984 211.001 126.546 210.251 126.192 209.459C126.026 209.084 125.88 208.709 125.692 208.334C125.255 207.48 125.109 206.542 125.067 205.605C125.026 204.813 125.025 204.021 124.838 203.25C124.734 202.792 124.755 202.354 124.942 201.916C125.484 200.666 126.109 199.437 126.942 198.374C127.692 197.437 128.463 196.52 128.922 195.374C128.984 195.249 129.088 195.124 129.172 194.999C130.484 193.02 131.818 191.061 133.131 189.081C134.339 187.268 135.61 185.497 136.527 183.497C137.882 180.559 139.756 177.872 140.84 174.809C140.985 174.455 141.215 174.142 141.507 173.913C141.882 173.622 142.299 173.35 142.674 173.037C142.903 172.85 143.174 172.829 143.424 172.892C143.715 172.954 144.007 173.059 144.278 173.184C145.945 173.955 147.591 174.788 149.112 175.851C149.758 176.309 150.425 176.746 151.112 177.121C152.029 177.621 152.988 178.059 153.926 178.538C155.509 179.33 157.092 180.142 158.676 180.913C160.322 181.726 162.051 182.226 163.864 182.372C164.802 182.435 165.718 182.622 166.614 182.893C168.448 183.455 170.302 183.872 172.261 183.789C172.948 183.768 173.615 183.789 174.303 183.789V183.727C175.178 183.727 176.053 183.81 176.907 183.727C178.053 183.602 179.157 183.768 180.199 184.247C181.491 184.851 182.804 185.393 184.179 185.81C185.366 186.164 185.721 186.665 185.721 187.873C185.721 188.894 185.992 189.873 186.263 190.853C186.408 191.394 186.597 191.915 186.784 192.457C186.992 193.061 187.013 193.645 186.784 194.228C186.659 194.54 186.555 194.874 186.492 195.207C186.305 196.124 186.575 196.624 187.45 196.979C187.638 197.062 187.825 197.083 187.992 197.166C188.325 197.312 188.576 197.541 188.659 197.895C188.701 198.082 188.763 198.249 188.805 198.437C189.284 200.333 189.638 202.25 189.972 204.188C190.076 204.729 190.242 205.292 190.472 205.792C190.742 206.375 191.013 206.938 191.097 207.584C191.117 207.834 191.264 208 191.389 208.188C191.826 208.792 192.243 209.438 192.618 210.084C192.951 210.667 193.451 211.105 194.118 211.376C194.618 211.584 195.118 211.667 195.639 211.772C196.201 211.876 196.639 212.147 196.91 212.626C197.306 213.334 197.931 213.814 198.556 214.293C199.597 215.106 200.785 215.376 202.056 215.293V215.273C203.598 215.168 205.14 215.043 206.681 215.064C208.661 215.084 210.474 213.085 209.745 210.814C209.578 210.251 209.37 209.709 208.89 209.376C208.099 208.834 207.286 208.271 206.39 207.855C205.932 207.646 205.474 207.542 204.973 207.5C204.348 207.458 203.702 207.354 203.077 207.25C202.223 207.104 201.536 206.667 200.994 206C199.64 204.354 198.764 202.499 198.348 200.437C197.91 198.374 197.619 196.291 197.264 194.207C197.181 193.811 197.16 193.394 197.264 192.978C197.369 192.54 197.369 192.082 197.264 191.645C197.119 190.936 197.264 190.311 197.702 189.728C198.389 188.79 198.827 187.686 199.285 186.623C199.535 186.04 199.786 185.414 199.681 184.769C199.556 183.956 199.285 183.164 198.785 182.477C198.327 181.831 197.785 181.247 197.077 180.872C196.64 180.643 196.326 180.289 196.326 179.81C196.305 178.497 196.139 177.163 196.535 175.871C196.722 175.288 196.847 174.705 196.826 174.101C196.784 173.08 197.139 172.184 197.639 171.329C198.744 169.496 200.056 167.787 201.577 166.266C202.389 165.453 203.098 164.599 203.764 163.683C205.119 161.766 206.474 159.869 207.828 157.973C208.411 157.139 209.057 156.348 209.578 155.473C210.87 153.368 212.349 151.452 213.995 149.618C215.058 148.452 216.121 147.285 217.079 146.014C217.85 144.993 218.913 144.472 220.225 144.597L221.35 144.722C221.58 144.763 221.809 144.804 222.017 144.763C223.267 144.554 224.393 144.117 225.226 143.075C225.581 142.638 225.976 142.242 226.414 141.867C227.143 141.242 227.976 140.972 228.934 141.18C229.684 141.346 230.435 141.45 231.164 141.596C231.997 141.762 232.831 141.804 233.643 141.658C235.081 141.367 236.519 141.013 237.894 140.513C238.582 140.263 239.207 139.971 239.769 139.491C240.374 138.97 241.062 138.596 241.791 138.283C242.458 138.012 243.062 137.637 243.666 137.241C244.603 136.616 245.146 135.762 245.375 134.679C245.479 134.137 245.646 133.595 245.812 133.054C246.021 132.45 246.187 131.824 246.187 131.178C246.229 130.157 246.374 129.157 246.666 128.178C246.958 127.178 246.624 125.969 245.166 125.573C243.853 125.198 242.52 124.969 241.166 124.948C239.582 124.928 237.999 124.823 236.457 124.469C235.144 124.156 233.873 123.656 232.581 123.239C231.893 123.01 231.247 122.698 230.664 122.281C230.122 121.886 229.539 121.531 228.956 121.197C227.456 120.364 225.851 119.885 224.1 119.947ZM127.214 214.585C127.859 214.898 128.422 215.21 128.881 215.668C129.318 216.106 129.609 216.606 129.547 217.273C129.505 217.793 129.172 217.981 128.693 217.71C128.276 217.46 127.88 217.168 127.464 216.918V216.94C127.089 216.71 127.047 216.689 127.255 216.252C127.505 215.71 127.339 215.189 127.214 214.585ZM119.066 155.807C119.233 155.807 119.359 155.89 119.4 156.035C119.463 156.16 119.483 156.327 119.483 156.473C119.733 159.181 119.983 161.87 120.233 164.578C120.504 167.391 120.775 170.204 121.046 173.017C121.233 174.975 121.4 176.914 121.588 178.872C121.838 181.539 122.067 184.206 122.317 186.873C122.338 186.977 122.359 187.039 122.442 187.039C122.505 187.039 122.629 187.039 122.63 186.998C122.776 186.707 123.025 186.56 123.296 186.414C124.317 185.893 124.713 184.956 124.713 183.894C124.754 181.643 124.796 179.393 124.713 177.143C124.609 174.413 125.318 171.85 126.339 169.37C127.214 167.266 128.172 165.183 129.089 163.078C129.214 162.787 129.381 162.599 129.756 162.599C131.506 162.64 133.215 162.391 134.902 162.016C136.069 161.766 137.215 161.307 138.34 160.911C139.298 160.578 140.236 160.202 141.174 159.827C141.924 159.515 142.674 159.349 143.486 159.349H145.633C146.174 159.349 146.674 159.494 147.195 159.619C147.424 159.682 147.57 159.807 147.653 160.057C147.882 160.807 148.154 161.536 148.362 162.307C148.445 162.661 148.466 163.079 148.403 163.433C148.299 164.058 148.508 164.495 149.05 164.724C149.696 164.995 150.216 165.391 150.675 165.912C151.05 166.329 151.592 166.329 151.946 165.85C152.384 165.266 152.904 165.161 153.529 165.349C154.05 165.515 154.571 165.433 155.092 165.433C155.675 165.412 156.175 165.537 156.634 165.953C156.925 166.224 157.342 166.391 157.676 166.62C158.155 166.954 158.593 166.787 159.03 166.516C159.322 166.328 159.509 166.058 159.676 165.745L160.613 163.933C161.051 163.099 161.364 162.974 162.26 163.203C162.447 163.245 162.614 163.329 162.802 163.37C163.677 163.599 164.406 163.515 165.031 162.744C165.718 161.89 166.135 161.62 167.094 162.724C167.469 163.161 167.968 163.391 168.552 163.495C169.927 163.745 171.281 163.953 172.698 163.891C173.636 163.849 174.387 163.495 174.887 162.724C175.345 162.057 175.908 161.557 176.616 161.161C177.449 160.682 177.97 159.973 177.866 158.932C177.824 158.432 177.845 157.91 178.012 157.348C179.012 157.89 180.074 158.14 180.887 158.911C181.241 159.245 181.7 159.286 182.158 159.349C182.721 159.411 183.263 159.515 183.825 159.599C184.012 159.62 184.2 159.682 184.221 159.911C184.387 161.244 185.242 161.744 186.471 161.807C186.512 161.807 186.554 161.849 186.575 161.849C186.7 162.015 186.658 162.203 186.658 162.391C186.637 163.141 186.909 163.724 187.534 164.12C187.825 164.308 187.929 164.558 187.95 164.87C187.971 165.058 187.972 165.245 187.972 165.433C188.013 166.641 188.075 167.829 188.075 169.037C188.096 169.537 188.242 169.996 188.325 170.475C188.429 170.996 188.367 171.183 187.909 171.392C185.888 172.308 183.929 173.434 181.638 173.476C181.492 173.497 181.345 173.517 181.199 173.559C179.782 173.871 178.386 173.997 176.97 173.476C176.511 173.288 176.011 173.309 175.532 173.476C175.115 173.622 174.824 173.892 174.762 174.351C174.699 174.746 174.907 175.059 175.22 175.309C175.553 175.559 175.928 175.746 176.345 175.809C176.949 175.913 177.553 175.976 178.137 176.101C178.574 176.184 179.012 176.184 179.471 176.121C180.116 176.017 180.762 176.017 181.387 176.184C181.782 176.288 182.179 176.413 182.533 176.621C184.45 177.684 186.346 178.767 188.242 179.851C188.367 179.934 188.513 180.018 188.638 180.08C188.867 180.184 188.971 180.372 188.95 180.622C188.888 181.497 189.118 182.33 189.264 183.205V183.331C188.909 183.602 188.534 183.435 188.18 183.372C187.763 183.289 187.388 183.268 186.992 183.477C186.575 183.706 186.138 183.644 185.68 183.519C183.804 182.977 181.929 182.393 180.116 181.664C177.741 180.706 175.323 179.852 173.011 178.747C172.448 178.476 171.844 178.205 171.365 177.788C170.74 177.246 170.031 176.934 169.281 176.705C168.614 176.497 168.052 176.1 167.489 175.746C167.177 175.559 167.052 175.246 167.052 174.892C167.072 174.579 167.052 174.246 167.177 173.996C167.552 173.184 167.906 172.35 168.489 171.642C168.656 171.454 168.823 171.246 168.99 171.037C169.886 169.995 170.219 168.745 170.469 167.433C170.51 167.245 170.469 167.057 170.365 166.891C170.032 166.307 169.552 166.016 168.927 165.891C168.385 165.787 167.76 166.308 167.594 166.995C167.489 167.37 167.448 167.746 167.344 168.1C167.135 168.85 166.76 169.495 166.114 169.933C165.531 170.329 165.239 170.85 165.239 171.537C165.218 172.266 164.906 172.829 164.322 173.267C163.905 173.579 163.677 174.017 163.677 174.621C163.697 175.288 163.301 175.559 162.655 175.476C162.468 175.455 162.301 175.371 162.135 175.288C161.78 175.08 161.426 174.996 161.051 175.121C160.509 175.288 160.03 175.142 159.551 174.871C159.072 174.601 158.593 174.684 158.343 175.017C158.009 175.433 158.009 175.892 158.343 176.371C158.405 176.454 158.488 176.538 158.571 176.621C158.675 176.725 158.675 176.83 158.571 176.913C158.509 176.955 158.405 176.976 158.363 176.955C158.155 176.851 157.967 176.726 157.759 176.643C156.884 176.309 156.175 175.829 155.592 175.079C155.009 174.33 154.925 174.35 153.946 174.329C153.529 174.308 153.112 174.371 152.717 174.163C152.508 174.059 152.279 174.059 152.05 174.121C151.487 174.267 150.925 174.121 150.362 174.121C149.633 174.142 148.757 173.371 148.716 172.537V172.079C148.716 171.871 148.632 171.725 148.466 171.6C147.674 170.975 146.966 170.246 146.716 169.204C146.674 169.038 146.507 168.891 146.403 168.745C145.945 168.141 145.445 167.579 145.32 166.787C145.299 166.641 145.195 166.516 145.111 166.391C145.007 166.224 144.841 166.141 144.633 166.183C144.508 166.204 144.403 166.266 144.299 166.266C142.924 166.495 141.674 166.224 140.674 165.203C140.34 164.87 139.944 164.724 139.465 164.724C138.402 164.765 137.36 164.766 136.298 164.766C135.881 164.766 135.589 164.932 135.381 165.286C135.152 165.682 135.34 166.016 135.527 166.35C135.569 166.412 135.631 166.454 135.693 166.495C135.902 166.662 135.943 166.828 135.818 167.078C135.381 167.995 135.444 168.371 136.132 169.079C136.569 169.537 137.048 169.975 137.507 170.412C137.798 170.683 137.964 170.996 137.985 171.392C138.006 171.892 138.131 172.35 138.423 172.767C138.798 173.308 138.798 173.934 138.527 174.496C137.735 176.08 137.236 177.788 136.152 179.226C135.881 179.58 135.694 179.997 135.485 180.393C134.902 181.58 134.319 182.747 133.735 183.935C133.173 185.081 132.506 186.185 131.756 187.227C130.235 189.373 128.797 191.582 127.422 193.832C127.026 194.52 126.588 195.187 125.9 195.624C125.546 195.874 125.317 196.187 125.192 196.604C125.13 196.854 125.025 197.103 124.9 197.332C124.775 197.561 124.609 197.686 124.317 197.77C123.609 197.957 123.442 198.291 123.505 198.999C123.838 202.479 124.171 205.979 124.505 209.459L124.755 212.272C124.776 212.626 124.651 212.751 124.297 212.751C124.088 212.751 123.943 212.668 123.922 212.439C123.859 211.605 123.776 210.793 123.692 209.959C123.505 208.001 123.338 206.063 123.15 204.105C123.109 203.688 123.026 203.271 122.942 202.688C122.651 203.271 122.692 203.73 122.733 204.167C122.775 204.729 122.859 205.271 122.567 205.813C122.421 206.063 122.484 206.334 122.567 206.584C122.755 207.042 122.755 207.522 122.755 208.022C122.734 209.001 122.817 209.959 123.067 210.917C123.151 211.271 123.15 211.668 123.15 212.043C123.15 212.689 123.338 213.231 123.88 213.606C124.505 213.293 125.129 213.418 125.713 213.71C126.629 214.168 127.067 215.251 126.797 216.293C126.568 217.168 125.755 217.731 124.775 217.793C123.463 217.876 122.296 216.689 122.483 215.356C122.525 215.106 122.63 214.856 122.692 214.606C121.921 213.085 121.109 211.605 120.4 210.064C119.921 209.043 119.317 208.105 118.671 207.167C117.879 206.021 117.108 204.875 116.629 203.542C116.004 201.875 116.087 200.229 116.796 198.604C117.358 197.333 117.942 196.062 118.546 194.812C119.087 193.707 119.67 192.603 120.254 191.52C120.462 191.124 120.587 190.665 120.983 190.394C121.067 190.352 121.15 190.227 121.15 190.123C121.275 189.269 121.629 188.456 121.546 187.581C121.275 184.852 121.004 182.102 120.754 179.372C120.566 177.414 120.4 175.475 120.213 173.517C119.942 170.683 119.671 167.828 119.4 164.974C119.213 162.932 119.025 160.911 118.838 158.89C118.754 157.973 118.671 157.077 118.608 156.182C118.587 155.932 118.795 155.807 119.066 155.807ZM81.9364 210.064C82.2906 210.105 82.604 210.25 82.8748 210.48C83.6041 211.084 84.3119 211.689 85.0203 212.293C85.0828 212.355 85.1457 212.397 85.1873 212.459C85.3748 212.647 85.5623 212.855 85.4793 213.147C85.3752 213.501 85.0624 213.438 84.8123 213.397C84.3956 213.313 83.9992 213.417 83.6034 213.522C83.1242 213.647 82.6447 213.752 82.1864 213.898C81.9157 213.981 81.6657 213.939 81.4159 213.856C81.145 213.751 80.9784 213.563 80.9784 213.272C80.9992 213.001 81.0203 212.751 81.0203 212.481V211.814C81.0412 211.564 80.6243 211.376 80.8114 211.126C80.9572 210.939 81.2495 210.855 81.4578 210.709C81.6662 210.563 81.9575 210.438 81.9159 210.084L81.9364 210.064ZM201.056 209.564C201.286 209.564 201.515 209.563 201.723 209.605C202.453 209.75 203.203 209.813 203.953 209.855C204.765 209.896 205.578 210.063 206.328 210.459L206.348 210.439C206.557 210.543 206.766 210.646 206.932 210.792C207.391 211.167 207.349 211.814 206.848 212.126C206.661 212.251 206.452 212.356 206.244 212.418C205.348 212.71 203.431 212.938 202.452 212.834H201.431C201.223 212.834 201.035 212.772 200.91 212.647C200.848 212.584 200.827 212.438 200.848 212.334C200.869 212.209 201.015 212.167 201.119 212.209C201.369 212.313 201.598 212.418 201.827 212.543C202.265 212.793 202.244 212.792 202.577 212.522C203.244 211.959 203.182 211.376 202.411 210.939C201.911 210.668 201.411 210.418 200.931 210.126C200.806 210.043 200.765 209.896 200.806 209.73C200.848 209.605 200.952 209.564 201.056 209.564ZM99.8553 207.522C98.9388 207.522 98.1055 208.334 98.1053 209.23C98.1053 210.167 98.96 211.022 99.8143 210.939H99.8348C100.814 211.043 101.606 210.147 101.606 209.314C101.606 208.334 100.835 207.522 99.8553 207.522ZM130.818 207.542C130.11 207.521 129.506 208.105 129.506 208.814C129.485 209.501 130.068 210.126 130.756 210.126C131.443 210.126 132.068 209.542 132.068 208.855C132.089 208.167 131.506 207.542 130.818 207.542ZM80.2284 205.563C80.3949 205.604 80.4992 205.729 80.5409 205.875C80.8117 206.729 81.4365 207.022 82.2489 207.084C82.353 207.084 82.4582 207.146 82.5623 207.167C82.6248 207.542 82.3117 207.709 82.1034 207.897H82.0828C81.6661 208.313 81.52 208.772 81.6659 209.334C81.7249 209.57 81.803 209.788 81.8817 210.022H81.8963V210.043L81.8846 210.031C81.8882 210.042 81.8918 210.053 81.8953 210.064C81.6036 210.043 81.3114 210.021 81.0614 209.855C80.4573 209.459 79.8741 209.501 79.2909 209.897C79.145 209.98 78.9777 210.063 78.7694 209.98C78.6446 209.688 78.7069 209.396 78.7694 209.105C78.8735 208.605 78.7073 208.23 78.3534 207.897C78.1659 207.73 77.9361 207.563 77.8944 207.272C77.9985 207.001 78.2486 207.042 78.4569 207.022C79.1027 206.959 79.5818 206.688 79.8319 206.042C79.9152 205.855 79.9783 205.625 80.2284 205.563ZM153.988 203.521C152.988 203.541 152.175 204.417 152.196 205.438V205.458C152.217 206.479 153.092 207.313 154.092 207.272C155.113 207.23 155.883 206.396 155.884 205.355C155.863 204.396 155.134 203.563 153.988 203.521ZM194.097 199.374C194.179 199.23 194.384 199.351 194.389 199.354V199.333C195.514 199.958 195.764 201.042 195.91 202.188C195.952 202.5 195.847 202.77 195.576 202.979C195.326 203.145 195.097 203.354 194.889 203.563C194.576 203.854 194.535 204.188 194.806 204.563C195.097 204.979 195.222 205.458 195.306 205.938C195.347 206.083 195.348 206.229 195.348 206.375C195.348 206.688 195.076 206.938 194.764 206.917C194.659 206.917 194.555 206.855 194.472 206.834H193.993C193.806 206.813 193.659 206.709 193.576 206.522C193.451 206.209 193.389 205.896 193.389 205.542C193.409 204.792 193.471 204.042 193.722 203.333C193.826 203.021 193.826 202.75 193.681 202.458C193.451 201.958 193.472 201.937 194.034 201.666C194.305 201.541 194.451 201.354 194.618 201.146C194.826 200.875 194.826 200.583 194.639 200.312C194.472 200.062 194.263 199.833 194.097 199.583C194.055 199.541 194.076 199.437 194.097 199.374ZM118.024 202.125C117.816 201.875 117.233 202.125 117.233 202.438C117.212 203 117.316 203.521 117.649 204.021C118.003 204.542 118.337 205.021 119.046 205.208C119.212 204.708 119.004 204.291 119.046 203.896C119.129 203.062 118.483 202.646 118.024 202.125ZM89.2088 190.061C89.4588 189.658 89.7988 189.63 90.2293 189.978C90.0835 190.228 89.9376 190.498 89.7918 190.748C87.229 195.061 84.6873 199.375 82.1453 203.688C82.0412 203.833 81.9575 204 81.8534 204.167C81.6868 204.438 81.5613 204.458 81.3114 204.313C81.02 204.146 80.9786 204.042 81.1034 203.792C81.1867 203.646 81.2698 203.479 81.3739 203.313C83.9367 199 86.4793 194.686 89.0213 190.373C89.0838 190.269 89.1873 190.081 89.1873 190.081L89.2088 190.061ZM172.49 199.562C171.469 199.562 170.719 200.333 170.74 201.354C170.761 202.312 171.511 203.083 172.47 203.083C173.469 203.104 174.303 202.291 174.303 201.333C174.303 200.333 173.49 199.562 172.49 199.562ZM107.461 159.557C107.627 159.203 108.003 159.14 108.315 159.369C108.336 159.39 108.377 159.411 108.398 159.432C109.565 160.661 110.316 162.037 109.982 163.808C109.899 164.162 109.753 164.453 109.378 164.536C108.919 164.661 108.732 165.016 108.545 165.391C107.482 167.599 106.398 169.787 105.336 171.975C105.232 172.204 105.085 172.434 105.002 172.684C104.96 172.829 104.815 172.871 104.711 172.934C104.502 173.413 104.189 173.892 103.814 174.288C103.856 174.309 103.856 174.351 103.856 174.351C103.815 174.517 103.69 174.705 103.461 174.663H103.377C103.335 174.684 103.293 174.725 103.252 174.746C103.231 174.788 103.21 174.829 103.169 174.892C103.044 175.1 102.897 175.33 102.71 175.476C102.543 175.684 102.376 175.914 102.21 176.143C102.251 176.351 102.044 176.476 101.856 176.601C101.523 176.997 101.189 177.372 100.814 177.705C100.564 177.934 100.293 178.142 100.002 178.351L99.9598 178.372L99.7098 178.56C99.6473 178.684 99.5639 178.747 99.4598 178.726C99.3348 178.809 99.2303 178.872 99.1053 178.955C99.1261 178.997 99.1268 179.017 99.1268 179.038C99.1268 179.267 98.7935 179.496 98.5643 179.476C98.5018 179.476 98.439 179.435 98.3973 179.435C98.3559 179.455 98.335 179.497 98.3143 179.497C98.2101 179.56 98.1262 179.622 98.0428 179.685C98.0636 179.747 98.0843 179.83 98.0428 179.913C97.9178 180.184 97.6258 180.331 97.3758 180.497C97.3134 180.539 97.2302 180.58 97.1678 180.601C97.1053 180.622 97.0428 180.663 96.9803 180.663C96.7094 180.934 96.4592 181.205 96.1883 181.455C96.1467 181.538 96.0847 181.581 96.0223 181.622C95.9872 181.64 95.9812 181.642 95.9803 181.643C95.8554 181.747 95.7097 181.789 95.5848 181.789C95.1472 181.977 94.7925 182.268 94.4383 182.56C93.9591 182.956 93.5006 183.414 92.8963 183.664C92.4589 183.852 92.1463 184.289 91.7713 184.602C91.0213 185.227 90.2922 185.873 89.5213 186.477C89.1046 186.831 88.9169 187.227 89.0418 187.769C89.1043 188.04 89.0418 188.311 89.1043 188.561C89.1877 188.915 89.2082 189.185 88.8123 189.394C88.4375 189.581 88.2501 189.977 88.0418 190.331C87.7293 190.935 87.3745 191.519 87.0828 192.123C86.9162 192.477 86.7084 192.811 86.3543 192.957C85.5626 193.311 85.1249 193.915 84.8748 194.707L84.7498 195.02C84.604 195.186 84.4159 195.124 84.2284 195.124C83.041 195.228 82.4995 195.707 82.2078 196.874V196.854C81.7495 198.645 81.1661 200.395 80.0828 201.916C80.0412 201.958 79.9781 202 79.8114 202.125C79.9989 201.146 80.1662 200.312 80.3328 199.458C80.687 197.646 81.0197 195.833 81.1864 193.999C81.3322 192.541 81.9158 191.332 83.0409 190.373C83.4158 190.061 83.812 189.749 84.2078 189.478C85.458 188.623 86.6462 187.727 87.8338 186.789C88.7922 186.018 89.7925 185.268 90.8133 184.56C91.9799 183.747 93.1255 182.893 94.0838 181.81C94.4797 181.372 94.9386 180.976 95.3553 180.58H95.4803C95.772 180.309 96.0431 180.017 96.3348 179.726C96.7513 179.372 97.0638 178.892 97.6053 178.601V178.643C97.8762 178.434 98.1886 178.246 98.4803 178.059H98.4598C98.2932 178.017 98.3556 177.892 98.3973 177.809C98.6056 177.497 98.814 177.455 99.0223 177.726C99.1265 177.642 99.2306 177.58 99.3348 177.496C99.2531 177.245 100.669 176.163 100.669 176.121C100.649 176.078 102.294 174.121 102.294 174.121V174.079C102.357 173.933 102.877 173.205 102.981 173.101C102.981 173.08 103.647 171.767 103.752 171.579C104.231 170.725 104.585 169.808 104.919 168.892C105.919 166.162 106.544 163.349 107.148 160.516C107.211 160.182 107.336 159.869 107.461 159.557ZM103.189 195.332C102.064 195.332 101.127 196.312 101.127 197.437C101.148 198.562 102.148 199.521 103.252 199.521C104.356 199.5 105.314 198.499 105.314 197.395C105.293 196.27 104.314 195.332 103.189 195.332ZM190.909 191.29C191.222 191.519 191.347 191.895 191.514 192.207C191.701 192.561 191.993 192.748 192.389 192.811L192.409 192.853C192.763 192.894 193.16 192.832 193.431 193.186C193.264 193.561 192.951 193.769 192.701 194.04C192.472 194.269 192.367 194.519 192.409 194.853C192.451 195.249 192.472 195.665 192.514 196.082C192.055 196.145 191.764 195.894 191.451 195.728C191.034 195.499 190.68 195.519 190.284 195.728C189.992 195.874 189.722 196.082 189.347 196.062C189.18 195.749 189.263 195.395 189.347 195.082C189.472 194.561 189.283 194.228 188.95 193.874C188.742 193.666 188.326 193.478 188.472 193.103C188.576 192.832 188.992 192.853 189.284 192.832C189.763 192.77 190.118 192.582 190.326 192.103C190.451 191.811 190.555 191.478 190.909 191.29ZM212.015 193.353C211.495 193.374 211.016 193.895 211.057 194.415C211.099 194.957 211.579 195.374 212.141 195.332C212.662 195.29 213.037 194.873 213.037 194.353C213.016 193.79 212.557 193.353 212.015 193.353ZM143.153 189.019C143.091 189.081 143.028 189.102 143.028 189.123C142.653 190.061 142.007 190.644 140.924 190.644C140.778 190.644 140.715 190.853 140.819 190.978H140.799C140.986 191.207 141.195 191.436 141.403 191.645C141.694 191.895 141.757 192.186 141.694 192.561C141.632 192.915 141.528 193.29 141.653 193.645C142.049 193.645 142.34 193.436 142.632 193.29C142.986 193.124 143.319 193.103 143.694 193.29C143.986 193.457 144.278 193.644 144.653 193.665C144.695 193.54 144.716 193.498 144.716 193.478C144.507 192.478 144.695 191.624 145.528 190.978C145.653 190.894 145.57 190.685 145.403 190.644C145.216 190.602 145.028 190.54 144.841 190.54C144.278 190.498 143.861 190.227 143.632 189.686C143.528 189.436 143.445 189.123 143.153 189.019ZM156.821 190.978C156.342 190.999 156.009 191.374 156.009 191.853C156.009 192.29 156.343 192.645 156.78 192.645C157.28 192.665 157.655 192.311 157.655 191.832C157.655 191.332 157.3 190.978 156.821 190.978ZM191.597 181.56C193.242 181.726 194.513 182.539 195.764 183.352L195.743 183.372C197.16 184.289 197.285 185.914 196.535 187.144C196.16 187.748 195.764 188.331 195.368 188.936C194.743 189.873 194.139 190.832 193.514 191.77C193.264 191.749 193.263 191.52 193.159 191.395C193.034 191.249 192.951 191.082 192.826 190.853C193.472 190.123 194.076 189.373 194.764 188.686C195.326 188.102 195.43 187.415 195.389 186.706C195.326 185.727 194.409 185.06 193.409 185.164C192.93 185.206 192.493 185.518 191.931 185.31C192.055 184.06 191.617 182.831 191.597 181.56ZM188.597 160.891C188.867 160.703 189.242 160.828 189.284 161.141C189.346 161.62 189.388 162.12 189.43 162.599C189.68 166.308 189.951 170.017 190.201 173.746L190.389 175.996H190.367C190.575 178.851 190.784 181.705 190.992 184.56C191.138 186.456 191.243 188.331 191.368 190.206C191.368 190.31 191.389 190.436 191.368 190.54C191.326 190.707 191.201 190.769 191.034 190.769C190.867 190.769 190.638 190.811 190.597 190.561C190.534 190.102 190.493 189.665 190.451 189.206C190.118 184.414 189.784 179.601 189.451 174.788L189.43 174.809C189.117 170.329 188.805 165.87 188.472 161.391C188.451 161.203 188.409 161.016 188.597 160.891ZM91.2088 186.206C92.2296 186.206 92.9791 186.956 92.9793 187.977C92.9793 188.914 92.2297 189.686 91.2713 189.686C90.2504 189.707 89.4998 188.935 89.4998 187.914C89.5 186.956 90.2505 186.206 91.2088 186.206ZM105.419 175.705C105.648 175.539 105.794 175.58 105.981 175.809C106.169 176.038 106.169 176.184 105.94 176.371C104.482 177.559 103.043 178.768 101.585 179.955C99.2514 181.872 96.9388 183.768 94.6053 185.685C94.4386 185.831 94.2505 185.977 94.0838 186.123C93.834 186.331 93.6671 186.227 93.5213 186.019C93.4588 185.915 93.4178 185.81 93.3553 185.727C93.522 185.394 93.8339 185.227 94.0838 185.019C97.6885 182.039 101.294 179.08 104.898 176.121C105.065 175.975 105.231 175.809 105.419 175.684V175.705ZM108.503 170.204C110.086 170.204 111.294 171.392 111.315 172.976C111.398 174.684 109.878 175.871 108.503 175.871C106.982 175.85 105.648 174.579 105.648 173.079C105.628 171.475 106.919 170.183 108.503 170.183V170.204ZM223.142 168.62C223.059 168.704 223.017 168.767 222.975 168.829C222.746 169.225 222.539 169.621 222.309 170.017C222.004 170.545 221.545 170.871 220.933 170.996C220.433 171.1 219.892 171.1 219.413 171.371C219.496 171.788 219.83 171.996 220.08 172.267C221.059 173.329 221.059 173.329 220.85 174.746C220.809 174.934 220.767 175.121 220.767 175.309C220.767 175.496 220.684 175.684 220.975 175.851C221.517 175.622 222.1 175.371 222.663 175.079C222.996 174.913 223.289 174.913 223.622 175.079C224.122 175.329 224.643 175.559 225.164 175.788C225.372 175.871 225.517 175.767 225.517 175.538C225.455 175.017 225.434 174.496 225.33 173.976C225.226 173.517 225.351 173.184 225.684 172.871C226.039 172.538 226.351 172.163 226.684 171.809L226.705 171.746C226.809 171.642 226.892 171.516 226.892 171.35C226.58 171.162 226.205 171.121 225.83 171.059C224.476 170.809 224.497 170.808 223.809 169.6C223.622 169.246 223.517 168.849 223.142 168.62ZM233.685 167.787C233.06 167.808 232.498 168.391 232.498 169.037C232.498 169.746 233.102 170.308 233.81 170.287V170.308C234.477 170.266 234.977 169.745 234.977 169.058C235.019 168.266 234.269 167.766 233.685 167.787ZM115.066 155.327C115.17 155.077 115.337 155.014 115.587 155.118C115.837 155.222 115.941 155.369 115.837 155.64C115.337 156.973 114.857 158.328 114.357 159.661C113.253 162.62 112.149 165.579 111.045 168.537C110.941 168.808 110.857 169.099 110.732 169.37C110.649 169.516 110.502 169.558 110.336 169.517C110.148 169.475 109.982 169.391 109.92 169.162C110.003 168.933 110.086 168.683 110.17 168.433C111.545 164.724 112.92 161.015 114.295 157.327L115.045 155.327H115.066ZM196.556 154.265C196.805 154.369 196.785 154.577 196.785 154.743C196.868 157.014 196.639 159.244 195.889 161.411V161.391C195.472 162.62 194.847 163.724 194.139 164.786C193.243 166.099 192.264 167.329 191.139 168.454C191.097 168.496 191.013 168.495 190.847 168.558C190.867 167.016 190.784 165.558 190.492 164.12C190.45 163.849 190.409 163.578 190.472 163.328C190.763 162.016 190.555 160.702 190.597 159.39C190.596 159.098 190.472 158.806 190.389 158.515C190.305 158.182 190.388 157.932 190.68 157.744C191.242 157.39 191.826 157.014 192.389 156.66C193.659 155.869 194.909 155.035 196.264 154.368C196.368 154.327 196.472 154.306 196.556 154.265ZM219.204 163.641C218.517 163.641 217.975 164.141 217.954 164.828C217.933 165.557 218.475 166.141 219.183 166.141C219.85 166.141 220.413 165.599 220.455 164.953C220.497 164.266 219.912 163.641 219.204 163.641ZM206.14 146.264C206.286 145.91 206.537 145.846 206.87 145.93C207.224 146.013 207.578 145.993 207.786 146.43C207.973 146.805 208.349 147.014 208.765 147.139L208.724 147.159C209.203 147.305 209.224 147.659 208.995 148.034C208.932 148.138 208.87 148.243 208.807 148.326C208.495 148.722 208.203 148.847 207.745 148.534C207.328 148.263 206.911 148.201 206.473 148.472C205.911 148.805 205.786 149.409 206.203 149.909C206.224 149.93 206.265 149.972 206.286 149.993C206.494 150.202 206.807 150.327 206.828 150.681C206.87 151.097 206.64 151.41 206.411 151.701C205.661 152.743 204.891 153.744 204.14 154.785C203.89 155.139 203.64 155.515 203.452 155.932C202.931 157.078 202.306 158.119 201.306 158.932C200.89 159.265 200.639 159.744 200.389 160.202C200.056 160.806 199.765 161.411 199.306 161.911C198.994 162.245 199.098 162.786 198.723 163.099C198.41 163.349 198.118 163.661 197.848 163.974C197.764 164.099 197.639 164.224 197.639 164.37C197.556 165.099 197.077 165.495 196.514 165.828C196.348 165.953 196.348 165.953 196.285 165.766C197.056 164.703 197.764 163.578 198.139 162.307C198.285 161.807 198.41 161.307 198.535 160.786C198.639 160.265 198.806 159.786 199.223 159.411C199.597 159.078 199.723 158.598 199.848 158.119C200.243 156.703 200.639 155.286 201.035 153.89C201.431 152.515 202.139 151.243 202.764 149.972C202.869 149.722 203.057 149.535 203.223 149.326C203.349 149.181 203.557 149.076 203.619 148.909C203.994 148.076 204.723 147.617 205.411 147.117C205.744 146.888 205.995 146.618 206.14 146.264ZM190.409 145.784C191.034 145.388 191.118 145.43 191.139 146.222C191.18 147.347 191.263 148.472 191.242 149.597C191.221 150.263 191.492 150.66 191.972 151.014C192.867 151.701 193.743 152.41 194.618 153.118C194.764 153.243 194.91 153.369 195.035 153.473C194.931 153.764 194.701 153.806 194.493 153.868C193.347 154.285 192.222 154.681 191.076 155.056C190.618 155.222 190.326 155.473 190.159 155.952C189.805 156.952 189.43 157.932 189.055 158.911C188.93 159.224 188.867 159.557 188.638 159.827C188.367 159.91 188.304 159.682 188.2 159.557C187.45 158.578 186.679 157.598 185.95 156.598C185.638 156.16 185.262 155.973 184.721 155.973C183.971 155.973 183.221 155.931 182.471 155.91C182.012 155.91 181.574 155.89 181.116 155.869C180.637 155.848 180.554 155.66 180.846 155.223C180.971 155.015 181.137 154.786 181.283 154.577V154.515C181.846 153.723 182.387 152.91 182.971 152.118C183.241 151.743 183.283 151.389 183.158 150.951C182.804 149.764 182.491 148.555 182.158 147.367C182.116 147.201 182.013 147.013 182.2 146.722C183.408 147.076 184.616 147.389 185.783 147.806C186.533 148.077 187.138 148.014 187.784 147.534C188.617 146.909 189.534 146.368 190.409 145.784ZM224.184 154.806C223.606 154.764 223.191 155.175 223.184 155.751C223.209 156.289 223.603 156.66 224.122 156.66C224.663 156.66 225.059 156.286 225.059 155.765C225.08 155.244 224.705 154.827 224.184 154.806ZM117.441 149.034C117.483 148.868 117.692 148.826 117.796 148.951C118.108 149.285 118.421 149.597 118.713 149.951C119.088 150.389 119.504 150.619 120.088 150.535C120.484 150.473 120.901 150.493 121.317 150.493C121.629 150.493 121.755 150.681 121.63 150.931C121.442 151.327 121.233 151.743 120.983 152.118C120.712 152.535 120.712 152.931 120.921 153.39C121.108 153.806 121.254 154.244 121.4 154.66C121.484 154.931 121.358 155.077 121.046 155.035C120.588 154.973 120.15 154.889 119.713 154.785H119.691C119.212 154.66 118.816 154.744 118.441 155.077C118.025 155.452 117.566 155.765 116.983 156.223C116.858 155.41 116.754 154.765 116.691 154.14C116.65 153.807 116.504 153.577 116.233 153.41C115.796 153.119 115.357 152.827 114.92 152.535C114.649 152.348 114.649 152.181 114.92 152.056C115.399 151.827 115.879 151.597 116.358 151.389C116.691 151.243 116.9 151.035 116.983 150.66C117.108 150.119 117.275 149.576 117.441 149.034ZM137.11 152.098C137.985 152.098 138.735 152.806 138.735 153.66C138.735 154.577 138.069 155.348 137.11 155.327C136.235 155.327 135.506 154.639 135.485 153.785V153.765C135.444 152.89 136.214 152.098 137.11 152.098ZM181.241 151.618C181.47 151.618 181.595 151.722 181.596 151.951C181.596 152.264 181.512 152.431 181.262 152.431C180.783 152.472 180.283 152.514 179.804 152.514C173.824 152.722 167.823 152.952 161.843 153.16H160.26V153.202C154.801 153.411 149.342 153.619 143.883 153.827C142.487 153.89 141.09 153.911 139.694 153.952C139.319 153.952 139.236 153.848 139.236 153.493C139.257 153.348 139.298 153.181 139.465 153.16C139.756 153.119 140.069 153.077 140.361 153.077H140.34C143.361 152.973 146.362 152.868 149.383 152.764C152.883 152.639 156.384 152.493 159.885 152.368C166.135 152.139 172.386 151.91 178.637 151.681C179.512 151.639 180.366 151.618 181.241 151.618ZM123.358 152.389C126.859 152.576 130.339 152.743 133.84 152.931L133.818 152.973C134.006 152.994 134.193 153.014 134.381 153.014C134.672 153.035 134.756 153.161 134.735 153.452C134.694 153.744 134.61 153.827 134.298 153.827C132.464 153.744 130.61 153.639 128.776 153.556C126.901 153.452 125.025 153.369 123.15 153.265C122.754 153.244 122.65 153.077 122.733 152.681C122.775 152.514 122.838 152.389 123.025 152.389H123.358ZM132.839 142.367C133.026 142.096 133.298 141.95 133.61 142.096C134.193 142.367 134.777 142.304 135.381 142.263C136.485 142.179 137.548 142.429 138.632 142.533C139.757 142.637 140.861 142.659 141.986 142.492C143.174 142.305 144.403 142.388 145.591 142.513C146.257 142.575 146.945 142.617 147.612 142.638C148.32 142.659 149.029 142.721 149.717 142.93C149.758 142.951 149.82 143.034 149.82 143.097C149.82 143.159 149.737 143.242 149.695 143.242C148.966 143.326 148.362 143.68 147.737 144.055C146.945 144.534 146.07 144.909 145.236 145.325C144.965 145.471 144.674 145.576 144.445 145.742C144.049 146.034 143.632 146.264 143.174 146.451C142.986 146.514 142.819 146.618 142.674 146.722C141.903 147.264 141.153 147.805 140.382 148.347C140.173 148.493 139.944 148.597 139.715 148.743C139.423 148.931 139.111 149.076 138.882 149.326C138.257 149.993 137.402 150.327 136.84 150.973C136.527 150.931 136.381 150.723 136.215 150.598C134.84 149.514 132.693 149.514 131.381 150.556C130.922 150.91 130.463 151.014 129.922 150.973C128.818 150.889 127.692 150.827 126.567 150.785C125.713 150.744 124.838 150.743 123.984 150.743C123.672 150.743 123.505 150.66 123.359 150.389L123.338 150.431C123.025 149.868 122.692 149.348 122.108 148.993C121.692 148.764 121.484 148.305 121.505 147.847C121.588 146.513 121.859 145.242 122.984 144.325C123.546 143.867 123.859 143.805 124.463 144.284C124.817 144.555 125.172 144.679 125.609 144.638H126.067C126.526 144.659 126.588 144.701 126.692 145.117C126.755 145.347 126.755 145.576 126.839 145.784C126.901 145.951 126.963 146.16 127.109 146.264C127.692 146.66 127.984 147.305 128.422 147.805C128.568 147.971 128.693 148.16 128.859 148.306C129.047 148.472 129.234 148.514 129.484 148.389C129.838 148.201 130.026 147.889 130.234 147.576C130.297 147.493 130.276 147.346 130.276 147.242C130.276 147.18 130.235 147.097 130.193 147.034C129.86 146.451 129.776 145.846 129.964 145.2C130.151 144.575 130.068 144.013 129.547 143.555C129.422 143.451 129.339 143.263 129.256 143.097C129.172 142.951 129.339 142.7 129.506 142.7C129.651 142.7 129.797 142.721 129.943 142.763C130.422 142.909 130.88 143.034 131.339 143.222C131.755 143.388 132.089 143.305 132.36 142.992C132.548 142.805 132.693 142.576 132.839 142.367ZM105.877 143.93C105.981 143.805 106.107 143.743 106.273 143.847C106.398 143.93 106.523 143.992 106.648 144.075C109.544 145.951 112.461 147.826 115.357 149.701C115.503 149.805 115.67 149.91 115.816 150.014C115.899 150.076 115.983 150.16 115.941 150.264C115.9 150.618 115.545 150.827 115.295 150.681L115.316 150.701L114.941 150.451C112.066 148.597 109.191 146.742 106.315 144.888C106.19 144.804 106.064 144.721 105.939 144.638C105.606 144.43 105.585 144.221 105.877 143.93ZM203.161 142.18C203.369 142.055 203.515 142.138 203.639 142.305C203.848 142.555 203.848 142.701 203.639 142.867C203.494 142.992 203.348 143.097 203.202 143.222C200.181 145.555 197.16 147.91 194.118 150.243H194.076C193.868 150.389 193.638 150.535 193.409 150.701C193.284 150.576 193.18 150.472 193.097 150.368C193.013 150.243 192.972 150.097 193.097 149.972C193.201 149.868 193.306 149.764 193.431 149.681C196.577 147.243 199.743 144.826 202.889 142.388C202.973 142.304 203.078 142.242 203.161 142.18ZM206.619 128.282C206.702 128.282 206.807 128.365 206.89 128.428C206.974 128.47 206.974 128.553 206.89 128.615C206.703 128.761 206.536 128.907 206.369 129.053C206.349 129.074 206.411 129.178 206.411 129.24C206.786 129.345 207.037 128.99 207.37 128.99C207.932 128.97 208.412 129.094 208.745 129.573C209.058 130.011 209.119 130.47 208.911 130.97C208.64 131.616 207.973 131.949 207.244 131.803C206.557 131.678 206.141 131.053 206.14 130.324C206.14 129.949 206.473 129.657 206.411 129.261C206.348 129.219 206.244 129.178 206.223 129.178C205.39 129.928 205.244 130.678 205.806 131.657C205.952 131.949 206.077 132.178 205.806 132.449C205.619 132.637 205.557 132.887 205.515 133.157C205.37 134.116 205.223 135.075 205.119 136.033C205.057 136.637 205.14 137.221 204.89 137.804C204.786 138.033 204.786 138.345 204.953 138.554C205.182 138.846 204.89 138.992 204.828 139.2C204.599 139.075 204.494 139.138 204.389 139.45C204.202 139.409 204.12 139.492 204.161 139.679C203.911 139.783 203.849 139.888 203.911 140.096C203.578 140.158 203.64 140.471 203.577 140.7C203.535 140.867 203.494 140.992 203.327 141.055C202.265 141.492 201.473 142.305 200.577 142.992C200.327 143.159 200.077 143.326 199.869 143.492C199.556 143.451 199.535 143.2 199.431 143.013C199.139 142.409 198.848 141.784 198.514 141.2C198.077 140.388 197.618 140.221 196.743 140.45C196.118 140.617 195.576 140.909 195.201 141.492C195.034 141.763 194.889 142.013 194.91 142.325C194.931 142.784 194.848 143.222 194.723 143.659C194.431 143.784 194.138 143.576 193.847 143.617C193.263 143.68 192.742 143.471 192.222 143.242C191.513 142.909 190.763 142.722 189.951 142.659C188.159 142.493 186.45 142.784 184.783 143.472C183.721 143.909 182.637 144.347 181.616 144.909C181.283 145.097 180.949 145.243 180.574 145.409C180.47 145.18 180.366 145.013 180.324 144.847C180.095 144.076 179.616 143.45 179.054 142.888L179.032 142.93C178.845 142.742 178.657 142.554 178.512 142.346C178.366 142.158 178.408 141.826 178.616 141.742C179.762 141.221 180.825 140.471 182.158 140.388C183.116 140.325 184.075 140.2 185.033 139.95C185.512 139.825 186.013 139.846 186.492 139.783C187.2 139.7 187.908 139.596 188.575 139.283C190.992 138.137 193.388 136.992 195.639 135.533C197.118 134.575 198.473 133.449 199.889 132.387C201.91 130.866 204.098 129.616 206.306 128.407C206.411 128.345 206.515 128.283 206.619 128.282ZM104.939 141.533C105.752 141.346 106.585 141.346 107.294 141.783C108.606 142.575 110.065 142.909 111.545 143.159C112.024 143.243 112.483 143.388 112.962 143.513C113.128 143.555 113.211 143.701 113.232 143.847C113.253 143.993 113.19 144.139 113.045 144.222C112.274 144.638 111.503 144.805 110.753 144.159C110.149 143.638 109.441 143.284 108.67 143.075C108.211 142.95 107.731 142.826 107.231 142.992L107.211 143.013C106.69 143.2 106.232 142.763 105.711 142.805C105.669 142.805 105.565 142.638 105.544 142.533C105.44 142.138 105.293 141.783 104.939 141.533ZM102.898 141.575C103.336 141.367 103.773 141.408 104.211 141.533H104.189C104.398 141.596 104.606 141.721 104.814 141.596C104.773 141.679 104.752 141.784 104.794 141.888C104.898 142.159 105.044 142.43 105.106 142.722C105.252 143.493 104.752 144.242 104.002 144.45C103.189 144.679 102.419 144.263 102.106 143.472C101.835 142.743 102.19 141.909 102.898 141.575ZM205.848 139.2C206.765 139.263 207.39 139.992 207.39 140.93C207.369 141.763 206.702 142.493 205.869 142.597C205.015 142.701 204.161 142.055 203.994 141.18V141.2C203.952 140.846 204.077 140.492 203.952 140.138C204.244 140.096 204.265 139.908 204.203 139.679C204.39 139.72 204.473 139.638 204.431 139.45C204.661 139.534 204.828 139.429 204.89 139.2C205.203 139.2 205.536 139.179 205.848 139.2ZM104.836 141.616V141.596C104.837 141.595 104.847 141.585 104.862 141.573C104.852 141.586 104.844 141.6 104.836 141.616ZM104.862 141.573C104.876 141.555 104.894 141.537 104.919 141.513H104.939C104.916 141.536 104.884 141.557 104.862 141.573ZM235.06 134.512C235.227 134.762 235.269 134.97 235.269 135.22C234.978 135.449 234.582 135.471 234.227 135.554C226.226 137.2 218.225 138.846 210.224 140.492C209.891 140.576 209.558 140.638 209.224 140.7C208.766 140.805 208.641 140.721 208.557 140.366L208.536 140.346C208.474 140.054 208.557 139.95 208.973 139.866C210.744 139.491 212.516 139.117 214.287 138.763C219.996 137.575 225.726 136.408 231.435 135.241C232.665 134.991 233.873 134.762 235.06 134.512ZM234.352 136.304C234.644 136.387 234.936 136.575 235.102 136.846L235.123 136.824C235.54 137.47 236.144 137.762 236.873 137.908C236.852 138.2 236.623 138.262 236.435 138.346C235.248 138.908 233.81 139.138 232.373 138.95C233.29 138.513 233.768 137.949 233.831 137.074C233.873 136.741 234.082 136.554 234.352 136.304ZM206.64 133.22C206.682 132.887 206.807 132.804 207.182 132.887C207.349 132.908 207.453 132.991 207.453 133.157C207.432 133.595 207.39 134.054 207.328 134.491C207.203 135.575 207.057 136.637 206.911 137.721C206.849 138.116 206.765 138.2 206.432 138.158L206.453 138.179C206.099 138.137 206.015 138.033 206.056 137.658C206.244 136.096 206.432 134.658 206.64 133.22ZM238.227 128.761C238.748 129.344 238.957 129.907 239.249 130.428L239.227 130.449C239.436 130.845 239.728 131.074 240.186 131.115C240.582 131.157 240.999 131.262 241.394 131.345C241.582 131.366 241.812 131.345 241.853 131.574C241.895 131.783 241.707 131.887 241.582 132.032C241.186 132.491 240.707 132.887 240.436 133.407C240.165 133.949 240.561 134.575 240.561 135.179C240.561 135.408 240.624 135.617 240.457 135.846C239.999 135.825 239.623 135.554 239.227 135.366C238.04 134.825 238.415 134.866 237.249 135.387C236.936 135.533 236.644 135.699 236.332 135.824C236.061 135.929 235.894 135.804 235.935 135.491C235.935 135.408 235.977 135.345 235.977 135.262C236.019 134.658 236.186 134.032 236.082 133.47C235.978 132.887 235.352 132.553 234.977 132.095C234.936 132.032 234.874 131.99 234.832 131.928C234.603 131.636 234.665 131.428 234.998 131.365C235.456 131.261 235.894 131.157 236.332 131.115C236.853 131.074 237.144 130.803 237.352 130.365C237.602 129.844 237.894 129.365 238.227 128.761ZM215.996 123.219C216.058 123.323 216.121 123.386 216.121 123.448C216.058 125.178 215.975 126.907 215.704 128.615C215.6 129.24 215.433 129.866 214.871 130.282C214.725 130.366 214.808 130.595 214.974 130.595C216.391 130.762 217.809 130.928 219.225 131.095C221.559 131.366 223.872 131.636 226.184 131.907C228.372 132.157 230.581 132.428 232.79 132.678C233.456 132.74 234.144 132.824 234.81 132.907C235.123 132.949 235.185 133.032 235.185 133.345C235.165 133.699 235.06 133.804 234.685 133.762C234.06 133.679 233.415 133.616 232.79 133.532C229.269 133.116 225.768 132.699 222.247 132.282C219.372 131.928 216.495 131.616 213.62 131.282C212.682 131.178 211.765 131.053 210.828 130.928L210.787 130.97C210.558 130.949 210.432 130.574 210.578 130.345C210.682 130.178 210.829 130.178 210.974 130.178C211.433 130.22 211.871 130.261 212.329 130.303C212.475 130.303 212.621 130.365 212.766 130.178C212.537 129.949 212.308 129.72 212.099 129.47C211.308 128.491 210.912 127.386 211.12 126.115C211.224 125.511 211.516 125.073 212.037 124.761C212.266 124.615 212.495 124.469 212.724 124.364C213.787 123.885 214.871 123.448 215.996 123.219ZM178.102 126.865C177.399 126.853 176.762 127.495 176.762 128.22C176.762 128.928 177.303 129.491 178.012 129.532C178.783 129.574 179.387 129.011 179.408 128.261C179.429 127.513 178.828 126.87 178.102 126.865ZM235.602 127.053C235.707 126.761 235.915 126.719 236.144 126.761C236.457 126.803 236.748 126.886 237.04 126.928C237.936 127.053 238.812 127.219 239.728 127.219C240.707 127.219 240.999 127.594 240.874 128.573C240.853 128.74 240.749 128.824 240.582 128.845C240.311 128.866 240.082 128.803 239.832 128.678C238.686 128.095 238.082 128.219 237.144 129.198C236.957 129.386 236.81 129.49 236.56 129.386C236.081 129.219 235.602 129.387 235.102 129.47H235.082C234.978 129.199 234.853 128.97 234.769 128.72C234.665 128.387 234.602 128.074 234.998 127.845C235.29 127.678 235.477 127.365 235.602 127.053ZM156.898 125.636C155.985 125.66 155.279 126.388 155.279 127.303C155.279 128.199 156.03 128.97 156.926 128.97C157.759 128.949 158.634 128.302 158.593 127.219C158.551 126.328 157.808 125.623 156.898 125.636ZM224.83 124.489C224.955 124.51 225.017 124.594 225.017 124.719C224.997 124.802 224.996 124.886 224.975 124.948C224.705 125.802 224.372 126.636 223.997 127.448V127.469C223.289 128.948 221.704 128.553 221.058 127.72C220.767 127.345 220.621 126.927 220.621 126.469C220.6 125.74 220.934 125.24 221.621 125.011C222.538 124.698 223.517 124.573 224.455 124.489H224.83ZM146.133 118.427C145.466 118.427 144.924 118.989 144.924 119.655C144.924 120.343 145.466 120.885 146.133 120.885C146.779 120.885 147.362 120.301 147.362 119.655C147.362 119.01 146.778 118.427 146.133 118.427ZM131.86 110.092C130.818 110.113 129.922 111.009 129.901 112.051C129.881 113.134 130.797 114.093 131.881 114.093C132.985 114.114 133.881 113.196 133.881 112.092C133.88 110.988 132.923 110.071 131.86 110.092ZM304.507 84.631C306.028 83.7559 307.549 83.3598 309.05 83.464C310.57 83.5474 311.987 84.089 313.3 85.089C314.612 86.0891 315.758 87.4017 316.717 89.0685C317.717 90.7977 318.301 92.5479 318.53 94.298C318.759 96.048 318.613 97.6944 318.134 99.1945L312.508 97.6945C312.862 96.5277 312.987 95.4439 312.925 94.4855C312.862 93.5273 312.571 92.569 312.029 91.6525C311.487 90.7149 310.862 90.0692 310.195 89.715C309.508 89.3816 308.841 89.3817 308.175 89.7775C307.591 90.1316 307.216 90.6311 307.07 91.256C306.924 91.8811 306.903 92.6315 307.028 93.465C307.153 94.2984 307.32 95.2152 307.508 96.1945C307.695 97.1736 307.841 98.1736 307.966 99.1945L307.945 99.1739C308.07 100.195 308.028 101.216 307.841 102.216C307.653 103.216 307.257 104.175 306.653 105.092C306.049 106.009 305.09 106.842 303.799 107.592C301.465 108.925 299.173 109.155 296.881 108.259C294.61 107.363 292.61 105.446 290.901 102.487C289.734 100.445 289.047 98.5277 288.859 96.715C288.672 94.9024 288.901 93.0269 289.567 91.0685L295.131 92.5695C294.693 93.8611 294.485 95.1319 294.548 96.382C294.61 97.6321 295.006 98.8824 295.735 100.153C296.381 101.279 297.11 102.029 297.902 102.425C298.694 102.8 299.465 102.779 300.194 102.362C300.84 101.987 301.257 101.487 301.444 100.841C301.632 100.195 301.673 99.4446 301.569 98.5695C301.465 97.7153 301.32 96.7983 301.111 95.84C300.903 94.8816 300.756 93.9022 300.652 92.8605C300.548 91.8397 300.548 90.819 300.694 89.84C300.819 88.8607 301.194 87.9224 301.777 87.0265C302.381 86.1306 303.278 85.3393 304.507 84.631ZM23.6795 81.047C22.6169 81.2345 21.6162 81.6507 20.6786 82.3175C19.741 82.9634 18.9078 83.8809 18.1786 85.0685C17.5327 86.1102 17.1366 87.1726 16.9491 88.256C16.7616 89.3393 16.8033 90.4018 17.0741 91.4435C17.3449 92.4853 17.8451 93.4652 18.5536 94.382C19.262 95.2987 20.1791 96.0902 21.2625 96.757C22.4085 97.4653 23.5131 97.9242 24.659 98.1534C25.8048 98.3825 26.8885 98.3826 27.951 98.1534C29.0135 97.9451 29.9721 97.5073 30.868 96.8614C31.7639 96.2155 32.5141 95.3612 33.16 94.3195C33.9308 93.0903 34.3885 91.9233 34.576 90.7775C34.7635 89.6315 34.7011 88.5266 34.3885 87.464L40.2645 86.0685C40.6603 87.8602 40.6814 89.6935 40.369 91.5685C40.0356 93.4228 39.2649 95.3401 38.0565 97.3195L38.035 97.2989C36.9308 99.0907 35.5975 100.57 34.035 101.716C32.4723 102.862 30.7631 103.675 28.9295 104.112C27.0961 104.571 25.221 104.633 23.325 104.341C21.429 104.049 19.6163 103.362 17.8661 102.278C16.1158 101.195 14.6992 99.8821 13.5741 98.3195C12.4489 96.7568 11.6779 95.069 11.2821 93.2355C10.8654 91.402 10.8231 89.5269 11.1356 87.631C11.4481 85.7141 12.157 83.8597 13.2821 82.047C14.4697 80.1301 15.8245 78.6298 17.3455 77.5255C18.8665 76.4213 20.5124 75.6499 22.2625 75.1915L23.6795 81.047ZM301.34 67.087L286.547 93.548L282.317 88.381L285.088 83.755L278.087 75.213L272.982 76.9835H272.962L268.836 71.9415L297.715 62.6691L301.34 67.087ZM41.5145 53.6261C43.3689 53.4802 45.1614 53.6888 46.9325 54.2931C48.7035 54.8973 50.3493 55.8978 51.912 57.3146C53.433 58.6897 54.5795 60.232 55.3504 61.9405C56.1212 63.6489 56.5167 65.4197 56.5584 67.253C56.6001 69.1074 56.2665 70.9202 55.5789 72.712C54.8914 74.5039 53.8288 76.1708 52.412 77.7335L48.9745 81.5255L44.7235 86.1935H44.703L23.825 67.212L26.5965 64.1691L31.451 58.8146C32.8886 57.252 34.4721 56.0227 36.1805 55.1476C37.8889 54.2725 39.6602 53.772 41.5145 53.6261ZM283.255 73.4415L287.88 79.088L293.339 69.9415L283.255 73.4415ZM43.4315 59.7941C41.994 59.4608 40.5981 59.5229 39.244 60.0021C37.8897 60.4813 36.6396 61.336 35.5145 62.5861L35.535 62.5655L32.201 66.2325L44.911 77.796L48.245 74.129C49.3908 72.8581 50.141 71.5249 50.4745 70.129C50.8078 68.733 50.7242 67.3362 50.245 65.9611C49.7657 64.5861 48.8493 63.2943 47.537 62.0861C46.2243 60.8984 44.8692 60.1483 43.4315 59.7941ZM285.872 49.9923L266.589 70.5851L261.98 66.2696L281.264 45.6769L285.872 49.9923ZM211.015 6.82922L204.578 28.6027L216.579 32.1652L215.204 36.8116L237.207 16.5597L242.353 19.0392L240.124 48.0216L255.376 42.6251L255.709 25.9562L261.793 30.3732L261.293 41.1661L271.273 37.2286L277.108 41.4376L261.668 47.0011L260.939 64.5655L254.959 60.2316L255.771 48.4386L244.603 52.7306L239.249 48.8546L234.018 46.3341L234.582 40.9581L224.642 36.1446L220.746 39.8956L215.079 37.1456L214.996 37.4161V37.4366L202.994 33.8741L196.931 32.0821L204.953 5.03723L211.015 6.82922ZM110.378 37.2081L104.377 40.1456L100.502 36.3956L90.5838 41.2501L91.1258 46.6261L85.4793 49.3966L85.6453 49.6261L74.2694 57.6896V57.6476L70.2899 60.4611L53.9959 37.4366L59.1424 33.7911L72.2479 52.3136L82.4578 45.0841L85.2498 49.0216L82.9159 19.2052L88.0418 16.7052L110.378 37.2081ZM162.927 43.0001C179.324 43.0001 195.056 45.9799 209.599 51.4181C209.537 51.4389 209.474 51.4809 209.432 51.5226C208.557 52.1268 207.744 52.6889 207.161 53.0431C206.14 53.6473 205.057 54.2101 203.973 54.7726C191.055 50.4179 177.553 48.0216 162.905 48.0216C148.258 48.0216 134.194 50.5218 121.067 55.0431C119.067 53.9388 117.129 52.8137 115.399 51.7511H115.42C130.193 46.1045 146.529 43.0001 162.927 43.0001ZM113.003 6.89172C114.92 6.32915 116.754 6.12087 118.504 6.32922C120.254 6.51673 121.816 7.03723 123.171 7.84973L120.4 12.9757C119.338 12.3715 118.337 11.9959 117.379 11.8292C116.42 11.6625 115.441 11.7257 114.42 12.0382C113.378 12.3507 112.607 12.7879 112.107 13.3712C111.607 13.9546 111.461 14.6215 111.69 15.3507C111.878 16.0174 112.274 16.4968 112.857 16.7677C113.441 17.0386 114.149 17.2263 115.004 17.3097C115.858 17.3722 116.774 17.434 117.774 17.4757C118.774 17.5174 119.795 17.6007 120.816 17.7257C121.837 17.8507 122.838 18.1215 123.755 18.5382C124.672 18.9549 125.526 19.5596 126.276 20.3722C127.026 21.1847 127.63 22.2892 128.047 23.7267C128.818 26.3102 128.505 28.6021 127.109 30.6232C125.713 32.6234 123.379 34.1243 120.108 35.1036C117.858 35.7703 115.837 35.9783 114.024 35.7491C112.212 35.4991 110.44 34.8325 108.69 33.7491L111.44 28.6857C112.607 29.4358 113.795 29.9155 115.024 30.1446C116.254 30.3947 117.567 30.2899 118.963 29.8732C120.212 29.4982 121.108 28.9775 121.671 28.2902C122.233 27.6026 122.4 26.8518 122.15 26.0392C121.942 25.331 121.546 24.81 120.963 24.4767C120.379 24.1433 119.671 23.9354 118.796 23.8312C117.921 23.727 117.004 23.6645 116.024 23.6437C115.045 23.6228 114.024 23.5395 113.003 23.3937C111.982 23.2478 111.003 22.9978 110.065 22.6437C109.128 22.2895 108.295 21.7264 107.565 20.9347V20.9552C106.836 20.1635 106.252 19.1014 105.856 17.7472C105.356 16.0595 105.336 14.4964 105.773 13.0587C106.211 11.6212 107.065 10.3713 108.336 9.30871C109.607 8.24617 111.169 7.43345 113.003 6.89172ZM90.0623 35.8321L96.6258 32.6241H96.6473L88.9998 25.2062L90.0623 35.8321ZM228.559 32.3527L235.144 35.5411L236.248 24.9562L228.559 32.3527ZM187.284 1.82824L194.868 31.1652L188.242 30.3527L187.034 25.1017L176.074 23.7687V23.7892L173.595 28.6027L167.136 27.8107L181.616 1.14074L187.284 1.82824ZM152.05 0.0362488C154.467 -0.109596 156.717 0.182395 158.759 0.953241C160.821 1.72417 162.551 2.8287 163.947 4.28723L159.926 8.87121C158.988 7.7669 157.863 6.95363 156.592 6.43273C155.321 5.91198 153.925 5.70358 152.404 5.80773C150.758 5.9119 149.3 6.37027 148.05 7.18273C146.8 7.9953 145.841 9.09997 145.195 10.4542C144.549 11.8085 144.299 13.3711 144.403 15.1212C144.528 16.8505 144.966 18.3509 145.778 19.6427C146.57 20.9137 147.633 21.8936 148.925 22.5812C150.216 23.2478 151.675 23.5388 153.3 23.4347C154.925 23.3305 156.28 22.9351 157.405 22.2267C158.53 21.5391 159.363 20.5594 159.905 19.3302C160.134 18.8302 160.301 18.2885 160.405 17.7052L152.362 18.1007L152.029 12.7882L166.822 11.8292L166.885 12.7462C167.093 16.1008 166.677 18.9555 165.614 21.3517C164.551 23.7478 162.988 25.6025 160.926 26.9152C158.842 28.2276 156.425 28.9776 153.634 29.1652C151.55 29.2902 149.591 29.0396 147.758 28.3937C145.903 27.7478 144.278 26.8107 142.861 25.5607C141.444 24.3313 140.299 22.8512 139.424 21.1427H139.402C138.527 19.4343 138.027 17.5593 137.902 15.5177C137.777 13.4549 138.027 11.5166 138.694 9.72473C139.361 7.933 140.34 6.32864 141.632 4.93273C142.923 3.53679 144.465 2.39051 146.236 1.53625C148.007 0.661164 149.945 0.161284 152.05 0.0362488ZM178.574 18.9347L185.825 19.8097L183.45 9.43371L178.574 18.9347Z" fill="#E13C64"/>
</svg>
