<svg width="422" height="479" viewBox="0 0 422 479" fill="none" xmlns="http://www.w3.org/2000/svg">
<path d="M268.987 180.491C274.598 176.188 280.17 171.845 285.742 167.541C286.011 167.311 286.28 167.118 286.549 166.888C286.933 166.58 286.933 166.312 286.549 165.85C286.318 165.543 286.049 165.389 285.665 165.62C285.511 165.735 285.319 165.85 285.165 166.004C279.363 170.5 273.522 174.958 267.719 179.454C267.488 179.608 267.296 179.8 267.104 179.992C266.874 180.222 266.95 180.491 267.104 180.722C267.258 180.914 267.45 181.106 267.681 181.337C268.103 181.029 268.526 180.76 268.91 180.491H268.987Z" fill="white"/>
<path d="M272.254 201.089C273.637 197.093 274.06 192.981 273.906 188.792C273.906 188.485 273.944 188.1 273.483 187.908C273.33 187.985 273.137 188.023 272.945 188.1C270.447 189.33 268.142 190.867 265.798 192.327C264.76 192.981 263.684 193.672 262.647 194.326C262.109 194.672 261.955 195.133 262.109 195.748C262.262 196.286 262.493 196.824 262.493 197.362C262.416 199.782 262.8 202.203 262.262 204.624C262.147 205.086 262.224 205.585 262.301 206.085C262.839 208.736 262.992 211.426 262.954 214.27C263.261 214.155 263.415 214.155 263.492 214.078C265.567 212.003 267.373 209.735 269.026 207.314C270.332 205.355 271.485 203.318 272.254 201.051V201.089Z" fill="white"/>
<path d="M260.379 225.76C260.994 234.637 261.609 243.514 262.224 252.352C262.301 253.198 262.378 254.005 262.493 254.85C262.57 255.311 262.992 255.234 263.3 255.234C263.607 255.234 263.838 255.119 263.915 254.812C263.953 254.619 263.915 254.389 263.915 254.197C263.684 250.738 263.492 247.28 263.223 243.783C262.839 238.518 262.454 233.253 262.07 227.989C262.07 227.989 262.07 227.989 262.109 227.989C261.993 226.605 261.878 225.222 261.763 223.838C261.302 216.96 260.802 210.12 260.341 203.279C260.264 202.396 260.187 201.473 260.072 200.589C259.995 200.013 259.303 199.782 258.804 200.128C258.458 200.359 258.535 200.705 258.573 201.051C259.188 209.313 259.764 217.536 260.341 225.798L260.379 225.76Z" fill="white"/>
<path d="M291.698 158.203C292.313 158.28 292.467 158.126 292.582 157.396C292.851 155.398 293.12 153.438 293.351 151.44C293.466 150.633 293.543 149.788 293.581 148.981C293.581 148.673 293.389 148.519 293.082 148.481C292.39 148.327 292.159 148.481 292.082 149.096C291.698 151.747 291.352 154.399 291.006 157.281C290.93 157.973 291.083 158.165 291.737 158.242L291.698 158.203Z" fill="white"/>
<path d="M245.315 188.485C245.046 188.869 244.739 189.292 244.508 189.676C243.97 190.483 244.124 190.829 245.008 190.867C245.853 190.906 246.66 190.944 247.506 190.944C248.889 190.982 250.273 191.059 251.656 191.059C252.655 191.059 253.347 191.405 253.923 192.212C255.268 194.057 256.69 195.863 258.074 197.669C258.266 197.899 258.381 198.322 258.881 198.168C259.303 197.669 259.419 197.054 259.649 196.478C260.341 194.671 261.033 192.865 261.686 191.021C261.993 190.137 262.531 189.676 263.377 189.368C265.49 188.677 267.565 187.947 269.679 187.178C270.063 187.063 270.486 186.986 270.678 186.448C270.447 186.256 270.178 186.025 269.909 185.795C268.295 184.488 266.681 183.181 265.029 181.913C264.145 181.26 263.646 180.53 263.684 179.3C263.722 177.225 263.569 175.15 263.492 173.075C263.454 171.615 263.3 171.538 262.147 172.268C260.533 173.344 258.842 174.343 257.305 175.496C256.114 176.38 254.999 176.495 253.616 175.995C251.464 175.227 249.235 174.65 247.006 173.997C246.66 174.535 246.853 174.881 246.929 175.188C247.544 177.379 248.121 179.608 248.774 181.798C249.005 182.605 248.928 183.258 248.428 183.95C247.352 185.41 246.353 186.909 245.315 188.369V188.485Z" fill="white"/>
<path d="M103.17 164.429C102.363 164.198 101.556 164.121 100.749 164.505C99.4424 165.12 98.7891 166.657 99.2886 168.002C99.865 169.463 101.287 170.231 102.786 169.809C104.169 169.424 105.091 168.041 104.822 166.619C104.707 166.081 104.438 165.581 104.246 165.082C104.169 164.89 104.207 164.698 104.284 164.544C103.9 164.774 103.516 164.544 103.131 164.429H103.17Z" fill="white"/>
<path d="M157.815 185.449C151.359 185.103 144.941 184.795 138.485 184.45C138.293 184.45 138.063 184.45 137.87 184.45C137.525 184.45 137.409 184.68 137.332 184.988C137.179 185.718 137.371 186.025 138.101 186.064C141.56 186.256 145.018 186.409 148.477 186.602C151.858 186.755 155.278 186.947 158.66 187.101C159.236 187.101 159.39 186.947 159.467 186.409C159.505 185.871 159.352 185.641 158.814 185.602C158.468 185.602 158.122 185.564 157.776 185.526L157.815 185.449Z" fill="white"/>
<path d="M138.485 180.761C138.754 181.26 139.062 181.414 139.638 181.414C141.214 181.414 142.828 181.414 144.403 181.491C146.478 181.568 148.554 181.683 150.59 181.836C151.589 181.913 152.435 181.721 153.28 181.068C155.701 179.147 159.659 179.147 162.195 181.145C162.503 181.375 162.772 181.76 163.348 181.836C164.386 180.645 165.961 180.03 167.114 178.801C167.537 178.34 168.113 178.071 168.651 177.725C169.074 177.456 169.497 177.264 169.881 176.995C171.303 175.995 172.686 174.996 174.108 173.997C174.377 173.805 174.685 173.613 175.03 173.498C175.876 173.152 176.644 172.729 177.375 172.191C177.797 171.884 178.335 171.691 178.835 171.422C180.372 170.654 181.986 169.962 183.446 169.078C184.599 168.387 185.713 167.733 187.058 167.58C187.135 167.58 187.289 167.426 187.289 167.311C187.289 167.195 187.174 167.042 187.097 167.003C185.829 166.619 184.522 166.504 183.216 166.465C181.986 166.427 180.718 166.35 179.488 166.235C177.298 166.004 175.03 165.85 172.84 166.196C170.765 166.504 168.728 166.465 166.653 166.273C164.655 166.081 162.695 165.62 160.658 165.774C159.544 165.85 158.468 165.966 157.392 165.466C156.816 165.197 156.316 165.466 155.97 165.966C155.701 166.35 155.432 166.773 155.086 167.119C154.587 167.695 153.972 167.849 153.203 167.541C152.358 167.195 151.512 166.965 150.629 166.696C150.36 166.619 150.091 166.581 149.822 166.581C149.514 166.581 149.207 167.042 149.36 167.311C149.514 167.618 149.668 167.964 149.898 168.156C150.859 169.002 151.013 170.039 150.667 171.192C150.321 172.383 150.475 173.498 151.09 174.574C151.167 174.689 151.243 174.843 151.243 174.958C151.243 175.15 151.282 175.419 151.167 175.573C150.782 176.149 150.436 176.726 149.783 177.071C149.322 177.302 148.976 177.225 148.63 176.918C148.323 176.649 148.092 176.303 147.823 175.995C147.016 175.073 146.478 173.882 145.402 173.152C145.133 172.96 145.018 172.575 144.903 172.268C144.749 171.884 144.749 171.461 144.634 171.038C144.442 170.27 144.326 170.193 143.481 170.154C143.212 170.154 142.905 170.154 142.636 170.154C141.829 170.231 141.175 170.001 140.522 169.501C139.408 168.617 138.831 168.733 137.794 169.578C135.719 171.269 135.219 173.613 135.065 176.072C135.027 176.918 135.411 177.763 136.18 178.186C137.256 178.839 137.87 179.8 138.447 180.837L138.485 180.761Z" fill="white"/>
<path d="M169.843 185.718C169.305 185.718 168.728 185.795 168.19 185.872C167.883 185.91 167.806 186.217 167.767 186.486C167.767 187.14 167.921 187.332 168.613 187.332C171.188 187.255 173.762 187.216 176.337 187.101C186.405 186.717 196.473 186.333 206.541 185.948C206.541 185.948 206.541 185.91 206.541 185.872C207.502 185.872 208.501 185.872 209.462 185.872C220.491 185.487 231.558 185.065 242.587 184.68C243.471 184.68 244.393 184.603 245.277 184.527C245.738 184.527 245.892 184.219 245.892 183.643C245.892 183.22 245.661 183.028 245.239 183.028C243.625 183.028 242.049 183.066 240.435 183.143C228.907 183.566 217.378 183.989 205.85 184.411C199.394 184.642 192.938 184.911 186.482 185.141C180.91 185.334 175.376 185.526 169.804 185.718H169.843Z" fill="white"/>
<path d="M160.85 187.024C160.889 188.6 162.234 189.868 163.848 189.868C165.616 189.906 166.845 188.485 166.845 186.794C166.845 185.218 165.462 183.912 163.848 183.912C162.195 183.912 160.774 185.372 160.85 186.986V187.024Z" fill="white"/>
<path d="M299.806 144.869C301.536 145.099 303.227 145.33 304.956 145.522C310.259 146.137 315.562 146.713 320.865 147.366C327.359 148.135 333.815 148.904 340.31 149.672C341.462 149.826 342.654 149.941 343.807 150.095C344.498 150.172 344.69 149.979 344.729 149.326C344.729 148.75 344.614 148.596 344.037 148.519C342.807 148.366 341.539 148.212 340.31 148.097C336.236 147.635 332.163 147.136 328.128 146.675C323.862 146.175 319.597 145.676 315.293 145.176C312.68 144.869 310.067 144.561 307.454 144.254C307.146 144.254 306.992 143.831 307.261 143.677C308.299 142.909 308.606 141.756 308.799 140.603C309.298 137.452 309.452 134.262 309.567 131.073C309.567 130.958 309.452 130.842 309.337 130.65C307.261 131.073 305.263 131.88 303.303 132.764C302.881 132.956 302.458 133.225 302.035 133.494C301.075 134.07 300.537 134.877 300.344 135.992C299.96 138.336 300.69 140.372 302.151 142.179C302.535 142.64 302.957 143.062 303.38 143.485C303.111 143.831 302.842 143.716 302.573 143.716C301.728 143.639 300.921 143.562 300.075 143.485C299.806 143.485 299.537 143.485 299.345 143.793C299.076 144.215 299.307 144.907 299.73 144.945L299.806 144.869Z" fill="white"/>
<path d="M227.408 398.801C226.255 398.917 225.487 399.186 224.833 400.185C223.68 401.876 222.643 403.605 221.183 405.065C220.03 406.18 218.877 407.256 217.609 408.216C214.804 410.368 211.729 411.944 208.348 412.905C205.658 413.673 202.929 414.211 200.086 414.442C198.049 414.595 196.012 414.864 193.976 414.595C193.745 414.595 193.514 414.595 193.399 414.788C193.284 415.057 193.514 415.21 193.707 415.287C195.897 416.286 198.01 417.401 200.355 418.131C203.928 419.245 207.541 419.898 210.769 419.745C212.728 419.514 214.189 419.745 215.611 419.514C218.339 419.13 220.914 418.285 223.488 417.401C226.524 416.363 229.214 414.711 231.827 412.866C233.249 411.867 234.517 410.676 235.708 409.408C236.208 408.87 236.515 408.293 236.592 407.601C236.823 405.642 236.477 403.682 235.209 402.26C233.211 399.954 230.751 398.494 227.446 398.801H227.408Z" fill="white"/>
<path d="M242.894 370.826C240.819 366.291 237.937 362.372 234.325 358.99C233.095 357.837 231.712 356.915 230.367 355.954C228.33 354.455 226.063 353.418 223.796 352.419C222.335 351.804 220.798 351.343 219.223 351.074C218.569 350.959 217.993 350.997 217.455 351.304C215.841 352.188 214.419 353.341 213.843 355.224C213.113 357.607 212.767 359.951 214.035 362.295C214.266 362.679 214.458 363.102 214.65 363.525C215.073 364.639 215.841 365.1 217.071 365.138C219.799 365.215 222.489 365.561 225.102 366.407C230.367 368.059 236.17 371.863 239.551 376.206C240.973 378.05 242.51 379.856 243.586 381.97C244.086 382.892 244.739 383.776 245.085 384.775C245.162 385.006 245.354 385.16 245.584 385.083C245.853 385.006 245.777 384.737 245.815 384.545C245.815 384.314 245.815 384.084 245.815 383.853C245.815 383.392 245.815 382.931 245.738 382.508C245.008 378.55 244.508 374.592 242.779 370.864L242.894 370.826Z" fill="white"/>
<path d="M241.703 386.85C240.627 384.545 239.205 382.393 237.707 380.318C236.131 378.166 234.325 376.244 232.25 374.553C228.638 371.594 224.449 369.942 219.838 369.327C216.917 368.904 214.227 369.327 212.267 371.863C211.268 373.131 210.269 374.438 210.192 376.052C210.115 377.781 210.423 379.511 211.191 381.125C211.768 382.316 212.536 383.046 213.958 383.008C215.341 382.969 216.686 383.315 217.955 383.738C219.991 384.429 221.874 385.505 223.181 387.196C224.487 388.925 225.602 390.885 225.756 393.153C225.756 393.46 225.832 393.767 225.909 394.036C225.986 394.382 226.178 394.574 226.524 394.574C226.985 394.574 227.446 394.574 227.907 394.574C230.559 394.728 233.095 395.266 235.324 396.88C237.169 398.263 238.706 399.877 239.859 401.876C240.089 402.26 240.089 402.798 240.627 402.913C241.588 402.375 241.511 401.222 242.011 400.415C243.01 398.725 243.817 396.957 244.355 395.036C244.585 394.267 244.547 393.575 244.355 392.845C243.74 390.732 242.702 388.772 241.78 386.812L241.703 386.85Z" fill="white"/>
<path d="M196.627 410.599C199.048 410.561 201.008 410.522 202.968 410.138C206.157 409.485 209.27 408.562 212.152 406.987C215.226 405.296 217.763 402.952 220.03 400.262C220.875 399.263 221.528 398.148 221.913 396.919C222.259 395.843 221.721 394.69 221.605 393.537C221.605 393.23 221.413 392.961 221.375 392.653C220.798 390.04 219.223 388.464 216.725 387.542C215.226 387.004 213.728 387.389 212.267 386.966C211.307 387.427 211.191 388.58 210.423 389.233C210.154 389.464 209.962 389.848 209.731 390.117C207.656 392.461 205.197 394.075 201.969 394.382C200.816 394.498 199.701 394.498 198.587 394.19C197.511 393.883 196.358 393.806 195.282 393.306C194.898 393.114 194.552 393.306 194.36 393.691C194.168 394.113 193.937 394.498 193.707 394.882C191.055 398.994 187.443 401.338 182.37 401.184C181.986 401.184 181.602 401.184 181.217 401.184C180.603 401.184 180.372 401.53 180.641 402.068C181.871 404.72 183.6 406.987 185.713 409.024C186.136 409.446 186.713 409.715 187.327 409.792C190.555 410.215 193.745 410.868 196.589 410.638L196.627 410.599Z" fill="white"/>
<path d="M184.83 396.919C187.327 396.15 189.249 394.69 190.555 392.384C191.209 391.231 191.362 390.232 190.632 389.002C188.25 385.083 187.327 380.74 187.058 376.206C186.866 373.055 187.481 370.019 188.25 366.983C188.672 365.292 189.21 363.64 189.941 362.103C191.132 359.643 192.323 357.184 193.63 354.648C192.9 355.032 192.131 355.339 191.478 355.801C190.094 356.723 188.749 357.684 187.52 358.875C185.867 360.45 184.253 362.064 182.908 363.909C181.948 365.215 181.141 366.676 180.295 368.098C178.835 370.519 177.989 373.17 177.259 375.898C176.183 379.818 175.799 383.738 176.222 387.773C176.414 389.733 176.644 391.692 177.182 393.614C177.605 395.113 178.527 396.227 179.949 396.726C181.525 397.303 183.216 397.457 184.868 396.957L184.83 396.919Z" fill="white"/>
<path d="M104.323 164.544C104.323 164.544 104.438 164.467 104.515 164.39C104.515 164.39 104.515 164.39 104.476 164.39C104.4 164.467 104.361 164.505 104.323 164.582V164.544Z" fill="white"/>
<path d="M241.204 166.926C242.241 167.964 243.125 169.117 243.548 170.539C243.625 170.846 243.817 171.153 244.009 171.576C244.701 171.269 245.315 171 245.93 170.654C247.813 169.616 249.812 168.809 251.771 168.002C254.846 166.734 257.997 166.196 261.302 166.504C262.8 166.619 264.184 166.965 265.49 167.58C266.451 168.002 267.412 168.387 268.488 168.271C269.026 168.195 269.564 168.579 270.102 168.348C270.332 167.541 270.486 166.734 270.447 165.889C270.409 165.312 270.678 164.851 270.985 164.352C271.677 163.276 272.676 162.738 273.829 162.43C275.443 162.008 276.288 162.315 277.095 163.814C277.71 164.89 278.248 166.043 278.786 167.157C278.978 167.503 279.017 167.964 279.593 168.041C279.978 167.733 280.439 167.426 280.9 167.119C282.552 165.85 284.013 164.352 285.972 163.545C286.28 163.429 286.357 163.199 286.434 162.891C286.549 162.469 286.434 161.892 287.048 161.777C286.933 161.393 287.048 161.201 287.51 161.008C287.433 160.663 287.586 160.509 287.932 160.586C288.124 160.009 288.316 159.894 288.739 160.125C288.854 159.74 289.392 159.471 288.97 158.933C288.662 158.549 288.662 157.973 288.854 157.55C289.316 156.474 289.162 155.398 289.277 154.284C289.469 152.516 289.738 150.748 290.007 148.98C290.084 148.481 290.199 148.02 290.545 147.674C291.045 147.174 290.814 146.752 290.545 146.214C289.508 144.408 289.777 143.024 291.314 141.641C291.352 141.641 291.544 141.718 291.66 141.794C291.775 142.525 291.16 143.063 291.16 143.754C291.16 145.099 291.929 146.252 293.197 146.483C294.542 146.752 295.772 146.137 296.271 144.946C296.655 144.023 296.54 143.178 295.964 142.371C295.349 141.487 294.465 141.256 293.427 141.295C292.813 141.295 292.351 141.948 291.66 141.756C291.66 141.641 291.544 141.449 291.583 141.41C291.89 141.141 292.198 140.872 292.544 140.603C292.697 140.488 292.697 140.334 292.544 140.257C292.39 140.142 292.198 139.988 292.044 139.988C291.852 139.988 291.66 140.104 291.468 140.219C287.394 142.448 283.359 144.753 279.632 147.559C277.019 149.518 274.521 151.594 271.792 153.361C267.642 156.051 263.223 158.165 258.765 160.278C257.536 160.855 256.229 161.047 254.922 161.201C254.039 161.316 253.116 161.277 252.233 161.508C250.465 161.969 248.697 162.2 246.929 162.315C244.47 162.469 242.51 163.852 240.397 164.813C240.012 164.967 239.936 165.581 240.205 165.927C240.474 166.312 240.819 166.657 241.165 167.003L241.204 166.926Z" fill="white"/>
<path d="M291.506 291.549C290.123 290.819 288.624 290.511 287.125 290.434C285.742 290.357 284.358 290.242 283.013 289.973C282.629 289.896 282.207 289.896 281.784 289.896C281.592 289.896 281.4 289.973 281.323 290.204C281.246 290.511 281.323 290.78 281.553 290.934C282.437 291.472 283.359 291.933 284.282 292.433C285.703 293.24 285.819 294.316 284.589 295.353C283.974 295.853 284.013 295.853 283.206 295.392C282.783 295.161 282.36 294.969 281.899 294.777C281.707 294.7 281.438 294.777 281.399 295.007C281.361 295.199 281.4 295.468 281.515 295.584C281.745 295.814 282.091 295.93 282.476 295.93C283.09 295.93 283.705 295.93 284.358 295.93C286.165 296.122 289.7 295.699 291.352 295.161C291.737 295.046 292.121 294.854 292.467 294.623C293.389 294.047 293.466 292.855 292.621 292.164C292.313 291.895 291.929 291.702 291.545 291.51L291.506 291.549Z" fill="white"/>
<path d="M287.202 163.775C287.51 165.389 289.085 166.581 290.661 166.388C292.198 166.196 293.427 164.851 293.466 163.314C293.466 161.585 292.313 160.24 290.622 160.125C290.046 160.086 289.431 160.125 288.854 160.125C288.739 160.547 288.432 160.739 288.009 160.586C288.086 160.932 287.932 161.085 287.586 161.008C287.702 161.431 287.663 161.777 287.125 161.854C287.356 162.507 287.125 163.16 287.202 163.814V163.775Z" fill="white"/>
<path d="M324.093 138.451C324.785 136.953 325.4 135.415 325.899 133.84C325.938 133.725 325.938 133.571 325.976 133.417C325.976 133.187 325.861 133.033 325.63 132.994C325.438 132.994 325.207 132.994 324.938 132.994C323.209 133.148 321.403 133.379 319.712 133.955C318.444 134.378 317.829 135.3 317.868 136.645C317.868 137.49 318.137 138.259 318.675 138.951C319.866 140.488 322.786 141.218 324.093 138.49V138.451Z" fill="white"/>
<path d="M191.247 376.936C191.555 380.663 192.4 384.237 194.36 387.542C194.859 388.387 195.397 389.002 196.358 389.233C196.781 389.348 197.203 389.54 197.626 389.732C199.279 390.463 201.008 390.463 202.737 390.04C204.428 389.617 205.735 388.733 206.81 387.35C208.924 384.545 208.924 385.698 207.464 382.47C206.311 379.972 205.85 377.435 206.465 374.745C207.156 371.71 208.77 369.173 211.383 367.406C211.96 367.021 211.96 366.906 211.499 366.138C208.732 361.488 208.386 356.761 211.076 351.919C211.383 351.343 211.806 350.805 212.344 349.998C208.924 349.806 205.965 350.459 203.006 350.882C202.314 350.997 201.776 351.343 201.315 351.881C198.164 355.57 195.474 359.566 193.63 364.101C191.939 368.213 190.978 372.44 191.362 376.897L191.247 376.936Z" fill="white"/>
<path d="M344.575 142.179C345.498 142.025 346.381 141.717 347.265 142.025C347.726 142.217 347.995 142.025 348.341 141.679C350.07 139.873 351.185 139.642 353.298 140.718C353.76 140.949 354.182 141.064 354.682 141.026C354.989 140.987 355.181 140.834 355.22 140.526C355.45 138.72 354.912 138.028 353.106 138.028C351.415 138.028 349.802 137.721 348.149 137.49C347.611 137.414 347.073 137.26 346.497 137.183C346.074 137.106 345.69 137.183 345.498 137.721C345.267 138.297 344.921 138.874 344.383 139.181C343.653 139.604 343.768 140.18 343.96 140.795C344.114 141.256 344.345 141.679 344.537 142.179H344.575Z" fill="white"/>
<path d="M265.798 259C265.067 258.885 264.529 258.539 264.184 257.886C263.876 257.309 263.646 256.618 263.069 256.195C262.416 256.541 262.224 257.156 261.993 257.694C261.609 258.577 260.956 258.923 260.072 259.038C259.534 259.077 258.765 259.038 258.573 259.538C258.304 260.23 259.073 260.576 259.457 260.96C260.072 261.613 260.418 262.228 260.187 263.189C260.033 263.765 259.88 264.418 260.187 264.995C260.879 265.033 261.378 264.649 261.916 264.38C262.646 263.996 263.3 263.957 264.068 264.38C264.645 264.687 265.183 265.149 266.028 265.033C265.951 264.265 265.913 263.496 265.836 262.766C265.759 262.151 265.951 261.69 266.374 261.267C266.835 260.768 267.412 260.383 267.719 259.692C267.219 259.038 266.489 259.154 265.836 259.077L265.798 259Z" fill="white"/>
<path d="M272.023 241.554C269.717 240.055 267.373 238.556 264.337 238.249C264.376 240.593 265.183 242.86 264.952 245.166C265.99 245.55 266.797 244.974 267.681 244.897C269.525 244.705 271.216 245.935 271.331 247.741C271.408 249.047 271.216 250.315 270.178 251.391C268.91 252.659 267.796 254.043 266.605 255.388C266.835 255.811 266.989 256.118 267.219 256.387C267.412 256.618 267.412 257.04 267.873 257.079C269.026 255.349 270.14 253.582 271.293 251.852C272.023 250.738 272.753 249.662 273.445 248.548C274.828 246.28 274.598 243.283 271.985 241.592L272.023 241.554Z" fill="white"/>
<path d="M269.487 271.067C269.487 271.067 269.102 270.836 268.949 271.105C268.91 271.22 268.872 271.412 268.949 271.489C269.256 271.95 269.64 272.373 269.948 272.834C270.294 273.334 270.294 273.872 269.909 274.371C269.602 274.756 269.333 275.102 268.833 275.332C267.796 275.832 267.757 275.87 268.18 276.792C268.449 277.33 268.449 277.83 268.257 278.406C267.796 279.713 267.681 281.096 267.642 282.48C267.642 283.133 267.757 283.709 267.988 284.286C268.142 284.632 268.411 284.824 268.757 284.862C269.026 284.862 269.295 284.862 269.64 284.862C269.794 284.901 269.986 285.016 270.178 285.016C270.755 285.054 271.254 284.593 271.254 284.017C271.254 283.748 271.254 283.479 271.178 283.21C271.024 282.326 270.793 281.442 270.255 280.674C269.756 279.982 269.833 279.367 270.409 278.829C270.793 278.445 271.216 278.061 271.677 277.753C272.177 277.369 272.369 276.869 272.292 276.293C272.023 274.179 271.562 272.181 269.487 271.028V271.067Z" fill="white"/>
<path d="M131.76 188.869C132.567 189.061 133.374 189.215 134.22 189.33C134.796 189.407 135.027 189.138 134.873 188.638C134.604 187.87 134.335 187.063 133.989 186.294C133.605 185.449 133.605 184.719 134.105 183.95C134.566 183.258 134.95 182.49 135.296 181.76C135.526 181.298 135.296 180.953 134.719 180.953C133.951 180.953 133.182 180.914 132.452 181.029C131.376 181.183 130.608 180.76 129.916 179.953C129.378 179.3 128.801 178.724 128.225 178.109C128.033 177.878 127.649 177.955 127.572 178.263C127.264 179.262 126.957 180.261 126.726 181.26C126.573 181.952 126.188 182.336 125.573 182.605C124.69 182.989 123.806 183.412 122.922 183.835C122.422 184.065 122.422 184.373 122.922 184.719C123.729 185.257 124.536 185.795 125.343 186.333C125.842 186.64 126.111 187.063 126.188 187.678C126.304 188.83 126.496 190.022 126.726 191.52C127.802 190.675 128.648 190.098 129.416 189.407C130.108 188.792 130.838 188.638 131.722 188.869H131.76Z" fill="white"/>
<path d="M146.056 303.461C146.824 303.923 147.554 304.461 148.323 304.922C149.207 305.421 149.822 305.075 149.898 304.115C150.014 302.885 149.476 301.963 148.669 301.156C147.823 300.31 146.786 299.734 145.595 299.157C145.825 300.272 146.133 301.233 145.671 302.232C145.287 303.039 145.364 303.077 146.056 303.5V303.461Z" fill="white"/>
<path d="M260.033 241.285C259.764 239.671 259.342 238.134 259.457 236.52C259.495 236.059 259.303 235.713 258.881 235.521C258.65 235.405 258.381 235.252 258.15 235.098C254.653 233.1 251.157 231.101 247.621 229.141C246.968 228.757 246.238 228.527 245.508 228.335C244.355 228.027 243.163 228.027 241.972 228.219C241.127 228.335 240.32 228.335 239.513 228.181C238.437 227.95 237.322 227.835 236.208 227.643C235.439 227.528 234.748 227.182 234.133 226.721C233.556 226.259 233.172 225.683 233.287 224.953C233.403 224.107 233.941 223.608 234.709 223.339C235.593 223.031 236.515 222.993 237.361 223.339C239.974 224.3 242.549 224.069 245.162 223.493C245.431 223.416 245.7 223.377 245.969 223.339C250.196 223.262 253.808 221.187 257.536 219.496C258.381 219.112 258.496 218.766 258.304 217.805C258.15 216.921 257.881 216.076 257.843 215.154C257.843 212.925 257.728 210.734 257.651 208.506C257.651 208.16 257.651 207.814 257.612 207.468C257.574 206.892 257.382 206.43 256.844 206.085C255.691 205.355 255.191 204.279 255.23 202.895C255.23 202.549 255.307 202.203 255.076 201.896C255.038 201.896 254.961 201.819 254.884 201.819C252.617 201.704 251.041 200.782 250.734 198.322C250.695 197.899 250.35 197.784 250.004 197.746C248.966 197.592 247.967 197.4 246.929 197.285C246.084 197.169 245.239 197.092 244.585 196.478C243.087 195.056 241.127 194.595 239.282 193.596C238.975 194.633 238.936 195.594 239.013 196.516C239.205 198.437 238.245 199.744 236.708 200.628C235.401 201.358 234.363 202.28 233.518 203.51C232.596 204.932 231.212 205.585 229.483 205.662C226.87 205.777 224.372 205.393 221.836 204.932C220.76 204.74 219.838 204.317 219.146 203.51C217.378 201.473 216.61 201.973 215.342 203.548C214.189 204.97 212.844 205.124 211.23 204.701C210.884 204.624 210.576 204.471 210.231 204.394C208.578 203.971 208.002 204.202 207.195 205.739C206.618 206.853 206.042 207.968 205.465 209.082C205.158 209.658 204.812 210.158 204.274 210.504C203.467 211.003 202.66 211.311 201.776 210.696C201.162 210.273 200.393 209.966 199.855 209.466C199.01 208.698 198.087 208.467 197.011 208.506C196.051 208.506 195.09 208.659 194.129 208.352C192.976 208.006 192.016 208.198 191.209 209.274C190.555 210.158 189.556 210.158 188.865 209.389C188.019 208.429 187.058 207.699 185.867 207.199C184.868 206.776 184.484 205.969 184.676 204.817C184.791 204.163 184.753 203.395 184.599 202.741C184.215 201.32 183.715 199.975 183.292 198.591C183.139 198.13 182.87 197.899 182.447 197.784C181.486 197.554 180.564 197.285 179.565 197.285C178.258 197.285 176.913 197.285 175.607 197.285C174.108 197.285 172.725 197.592 171.341 198.168C169.612 198.86 167.883 199.552 166.115 200.167C164.04 200.897 161.926 201.742 159.774 202.203C156.662 202.895 153.511 203.356 150.283 203.279C149.591 203.279 149.284 203.625 149.053 204.163C147.362 208.044 145.594 211.887 143.981 215.769C142.098 220.341 140.791 225.068 140.983 230.102C141.137 234.252 141.06 238.403 140.983 242.553C140.983 244.513 140.253 246.242 138.37 247.203C137.87 247.472 137.409 247.741 137.14 248.279C137.14 248.356 136.91 248.356 136.794 248.356C136.641 248.356 136.602 248.24 136.564 248.048C136.103 243.129 135.68 238.211 135.219 233.292C134.873 229.679 134.566 226.106 134.22 222.493C133.72 217.306 133.221 212.118 132.721 206.93C132.26 201.934 131.799 196.977 131.338 191.982C131.338 191.713 131.299 191.405 131.184 191.175C131.107 190.906 130.877 190.752 130.569 190.752C130.07 190.752 129.685 190.982 129.724 191.444C129.839 193.096 129.993 194.748 130.146 196.439C130.492 200.167 130.838 203.894 131.184 207.66C131.684 212.925 132.183 218.189 132.683 223.416C133.028 227.028 133.336 230.602 133.682 234.214C134.143 239.248 134.642 244.321 135.142 249.355C135.296 250.969 134.642 252.467 134.412 254.043C134.412 254.235 134.258 254.466 134.104 254.542C133.374 255.042 133.144 255.887 132.759 256.618C131.684 258.616 130.608 260.653 129.608 262.689C128.494 264.995 127.418 267.339 126.38 269.683C125.074 272.681 124.92 275.716 126.073 278.791C126.957 281.25 128.379 283.364 129.839 285.477C131.03 287.206 132.145 288.936 133.028 290.819C134.335 293.662 135.834 296.391 137.256 299.196C137.14 299.657 136.948 300.118 136.871 300.579C136.525 303.039 138.677 305.229 141.098 305.075C142.905 304.96 144.403 303.923 144.826 302.309C145.326 300.387 144.519 298.389 142.828 297.544C141.752 297.006 140.599 296.775 139.446 297.351C138.447 296.66 138.101 295.661 138.101 294.469C138.101 293.778 138.101 293.047 137.947 292.394C137.486 290.626 137.332 288.859 137.371 287.053C137.371 286.13 137.371 285.247 137.025 284.401C136.871 283.94 136.756 283.44 137.025 282.979C137.563 281.98 137.409 280.981 137.332 279.943C137.256 279.136 137.179 278.291 137.717 277.215C137.87 278.291 138.024 279.06 138.101 279.828C138.447 283.44 138.754 287.014 139.1 290.626C139.254 292.164 139.408 293.662 139.523 295.199C139.561 295.622 139.83 295.776 140.215 295.776C140.868 295.776 141.098 295.545 141.06 294.892C140.906 293.163 140.753 291.433 140.599 289.704C139.984 283.287 139.369 276.831 138.754 270.413C138.639 269.107 138.946 268.492 140.253 268.146C140.791 267.992 141.098 267.762 141.329 267.339C141.56 266.916 141.752 266.455 141.867 265.994C142.098 265.225 142.52 264.649 143.174 264.188C144.442 263.381 145.249 262.151 145.979 260.883C148.515 256.733 151.167 252.659 153.972 248.701C155.355 246.78 156.585 244.743 157.622 242.63C158.698 240.439 159.774 238.287 160.85 236.097C161.235 235.367 161.581 234.598 162.08 233.945C164.078 231.293 165.001 228.142 166.461 225.222C166.961 224.184 166.961 223.031 166.269 222.032C165.731 221.264 165.5 220.418 165.462 219.496C165.423 218.766 165.116 218.189 164.578 217.69C163.733 216.883 162.849 216.076 162.042 215.231C160.774 213.924 160.658 213.232 161.465 211.541C161.696 211.08 161.619 210.773 161.235 210.465C161.119 210.389 161.004 210.312 160.927 210.196C160.581 209.582 160.236 208.967 160.658 208.237C161.043 207.583 161.581 207.276 162.349 207.276C164.309 207.276 166.23 207.276 168.19 207.199C169.074 207.199 169.804 207.468 170.419 208.083C172.264 209.966 174.569 210.465 177.106 210.043C177.298 210.043 177.49 209.927 177.72 209.889C178.105 209.812 178.412 209.966 178.604 210.273C178.758 210.504 178.95 210.734 178.989 211.003C179.219 212.464 180.141 213.501 180.987 214.616C181.179 214.885 181.486 215.154 181.563 215.461C182.024 217.382 183.331 218.727 184.791 219.88C185.099 220.111 185.252 220.38 185.252 220.764C185.252 221.033 185.252 221.341 185.252 221.61C185.329 223.147 186.943 224.569 188.288 224.53C189.326 224.53 190.363 224.799 191.401 224.53C191.823 224.415 192.246 224.415 192.63 224.607C193.361 224.991 194.129 224.876 194.898 224.914C196.704 224.953 196.858 224.914 197.934 226.298C199.01 227.681 200.316 228.565 201.93 229.18C202.314 229.334 202.66 229.564 203.045 229.756C203.121 229.795 203.314 229.756 203.429 229.679C203.621 229.526 203.621 229.334 203.429 229.141C203.275 228.988 203.121 228.834 203.006 228.68C202.391 227.797 202.391 226.951 203.006 226.183C203.467 225.568 204.351 225.414 205.235 225.914C206.119 226.413 207.003 226.682 208.002 226.375C208.693 226.144 209.347 226.298 210 226.682C210.307 226.836 210.615 226.99 210.961 227.028C212.152 227.182 212.882 226.682 212.844 225.452C212.844 224.338 213.266 223.531 214.035 222.955C215.111 222.148 215.687 221.11 215.726 219.765C215.726 218.497 216.264 217.536 217.34 216.806C218.531 215.999 219.223 214.808 219.607 213.424C219.799 212.771 219.876 212.079 220.068 211.388C220.376 210.12 221.528 209.159 222.528 209.351C223.68 209.582 224.564 210.12 225.179 211.196C225.371 211.503 225.448 211.849 225.371 212.195C224.91 214.616 224.295 216.921 222.643 218.843C222.335 219.227 222.028 219.611 221.721 219.957C220.645 221.264 219.991 222.801 219.3 224.3C219.069 224.761 219.107 225.376 219.069 225.952C219.069 226.605 219.3 227.182 219.876 227.528C220.914 228.181 221.951 228.911 223.181 229.295C224.564 229.718 225.871 230.294 227.024 231.293C227.908 232.062 229.022 232.562 230.059 233.061C234.325 235.098 238.783 236.673 243.163 238.441C246.507 239.786 249.965 240.862 253.424 241.861C254.269 242.092 255.076 242.207 255.845 241.784C256.575 241.4 257.267 241.438 258.035 241.592C258.688 241.707 259.38 242.015 260.033 241.515V241.285ZM130.531 281.865C129.224 281.519 128.609 280.635 127.956 279.674C127.341 278.752 127.149 277.791 127.187 276.754C127.187 276.177 128.263 275.716 128.648 276.177C129.493 277.138 130.684 277.907 130.531 279.444C130.454 280.174 130.838 280.943 130.531 281.865Z" fill="white"/>
<path d="M352.222 143.946C351.684 142.986 351.3 141.948 350.339 140.872C349.725 141.986 349.187 142.87 348.725 143.831C348.341 144.638 347.803 145.138 346.842 145.214C346.035 145.291 345.228 145.483 344.383 145.676C343.768 145.791 343.653 146.175 344.076 146.713C344.152 146.828 344.268 146.905 344.345 147.021C345.036 147.866 346.189 148.481 346.381 149.557C346.573 150.594 346.266 151.747 346.189 152.862C346.189 153.015 346.112 153.131 346.112 153.284C346.035 153.861 346.343 154.091 346.842 153.899C347.419 153.669 347.957 153.361 348.533 153.092C350.685 152.132 349.994 152.055 352.184 153.054C352.914 153.4 353.606 153.899 354.451 153.938C354.759 153.515 354.643 153.131 354.643 152.708C354.643 151.594 353.913 150.441 354.413 149.442C354.912 148.481 355.796 147.751 356.526 146.905C356.757 146.636 357.103 146.444 357.026 146.06C356.949 145.637 356.526 145.676 356.18 145.637C355.45 145.483 354.682 145.291 353.952 145.214C353.106 145.138 352.568 144.715 352.184 143.985L352.222 143.946Z" fill="white"/>
<path d="M369.592 399.801C393.494 381.893 409.134 358.644 416.743 329.669C423.506 303.846 422.661 276.792 415.744 251.122C408.596 224.761 393.379 200.705 387.73 174.036C382.312 148.519 388.46 124.924 400.911 102.329C404.292 96.1802 409.749 88.533 410.979 81.5776C412.17 74.8526 405.215 70.2028 401.026 66.1679C390.727 56.2919 380.275 46.4927 370.207 36.3861C360.331 26.5101 350.032 17.0952 340.002 7.37289C335.89 3.37637 332.24 -0.850709 325.861 0.148421C318.867 1.22441 311.412 7.94931 305.379 11.4847C282.206 25.1651 250.542 34.9258 223.142 36.5014C190.747 38.3844 172.417 36.4245 147.324 27.2402C131.645 21.5144 110.241 8.8716 101.21 2.33882C99.0965 0.801697 96.7523 -0.0437194 94.6388 0.148421C88.2982 0.686414 81.996 8.14147 74.6178 15.1738C55.25 33.5809 35.9591 52.0648 16.5529 70.4334C4.40962 81.9234 19.6272 98.3322 25.1608 110.399C30.5792 122.196 36.1512 134.954 36.8045 148.058C38.1879 176.649 24.3154 200.705 14.4009 226.49C8.98257 240.555 5.37033 254.696 1.95023 269.337C-0.855026 281.327 -0.240175 295.853 1.33538 306.228C1.79651 303.385 1.33538 306.497 1.33538 306.228C4.48648 341.621 19.7424 373.593 47.3722 396.035C73.8876 417.554 109.856 426.354 140.983 438.92C156.623 445.223 172.071 452.255 185.521 462.515C196.896 471.162 206.503 485.995 220.529 474.543C243.74 455.598 267.642 442.84 295.771 432.849C320.519 424.087 348.341 415.71 369.553 399.839L369.592 399.801ZM302.227 263.65C301.19 263.727 300.306 262.958 300.229 261.959C300.152 260.998 301.036 260.038 301.997 259.999C302.996 259.999 303.841 260.806 303.88 261.844C303.88 262.804 303.188 263.573 302.227 263.65ZM312.949 207.391C312.987 206.123 313.986 205.201 315.255 205.201C316.561 205.201 317.637 206.354 317.56 207.622C317.483 208.813 316.446 209.812 315.216 209.812C313.91 209.812 312.91 208.736 312.949 207.391ZM329.05 220.265C328.435 220.918 327.859 221.61 327.206 222.224C326.591 222.801 326.36 223.416 326.552 224.261C326.745 225.222 326.783 226.182 326.898 227.143C326.898 227.566 326.629 227.758 326.245 227.604C325.284 227.182 324.324 226.759 323.401 226.298C322.786 225.99 322.248 225.99 321.634 226.298C320.596 226.836 319.52 227.297 318.521 227.72C317.983 227.412 318.137 227.066 318.137 226.72C318.137 226.375 318.214 226.029 318.29 225.683C318.675 223.07 318.675 223.07 316.869 221.11C316.407 220.61 315.793 220.226 315.639 219.458C316.523 218.958 317.522 218.958 318.444 218.766C319.571 218.535 320.417 217.933 320.98 216.96C321.403 216.23 321.787 215.5 322.21 214.769C322.287 214.654 322.364 214.539 322.517 214.385C323.209 214.808 323.401 215.538 323.747 216.191C325.015 218.42 324.977 218.42 327.475 218.881C328.166 218.996 328.858 219.073 329.434 219.419C329.434 219.727 329.281 219.957 329.089 220.149L329.05 220.265ZM322.594 190.675C322.594 189.599 323.363 188.83 324.439 188.907C325.4 188.946 326.091 189.714 326.053 190.675C326.053 191.636 325.323 192.327 324.324 192.327C323.363 192.327 322.633 191.636 322.594 190.636V190.675ZM342.193 217.459C340.886 217.498 339.772 216.46 339.772 215.154C339.772 213.962 340.809 212.886 341.962 212.848C343.038 212.81 344.421 213.732 344.345 215.192C344.345 216.46 343.422 217.421 342.193 217.498V217.459ZM239.436 137.375C240.781 137.375 241.895 138.566 241.857 139.95C241.818 141.333 240.704 142.371 239.282 142.294C237.976 142.217 236.976 141.18 236.976 139.873C236.976 138.528 238.168 137.337 239.474 137.375H239.436ZM200.316 135.108C202.007 135.069 203.39 136.376 203.467 138.028C203.544 140.027 201.93 141.218 200.393 141.256C198.741 141.256 197.357 139.835 197.357 138.182C197.357 136.491 198.664 135.146 200.355 135.108H200.316ZM180.487 121.812C181.678 121.812 182.754 122.888 182.754 124.079C182.754 125.27 181.678 126.346 180.487 126.346C179.257 126.346 178.258 125.347 178.258 124.079C178.258 122.849 179.257 121.812 180.487 121.812ZM154.164 106.441C156.124 106.402 157.891 108.093 157.891 110.13C157.891 112.166 156.239 113.857 154.202 113.819C152.204 113.819 150.513 112.051 150.552 110.053C150.59 108.131 152.243 106.479 154.164 106.441ZM95.0615 292.433C93.486 292.586 91.9104 291.011 91.9104 289.281C91.9104 287.629 93.4475 286.13 95.1384 286.13C96.9445 286.13 98.3663 287.629 98.3663 289.435C98.3663 290.972 96.9061 292.625 95.0999 292.433H95.0615ZM101.402 271.374C99.3655 271.374 97.5209 269.606 97.4825 267.531C97.4825 265.456 99.2118 263.65 101.287 263.65C103.362 263.65 105.168 265.379 105.207 267.454C105.207 269.491 103.439 271.336 101.402 271.374ZM170.688 255.618C170.496 255.388 170.611 255.004 170.88 255.004C172.878 255.004 174.07 253.928 174.761 252.198C174.761 252.16 174.877 252.121 174.992 252.006C175.53 252.198 175.684 252.775 175.876 253.236C176.299 254.235 177.067 254.735 178.105 254.811C178.45 254.811 178.796 254.927 179.142 255.004C179.45 255.08 179.603 255.465 179.373 255.618C177.836 256.81 177.49 258.385 177.874 260.23C177.874 260.268 177.836 260.345 177.759 260.576C177.067 260.537 176.529 260.191 175.991 259.884C175.299 259.538 174.685 259.577 174.031 259.884C173.493 260.153 172.955 260.537 172.225 260.537C171.995 259.884 172.187 259.192 172.302 258.539C172.417 257.847 172.302 257.309 171.764 256.848C171.38 256.464 170.995 256.041 170.65 255.618H170.688ZM249.35 390.001C249.004 391.769 248.735 393.575 248.543 395.381C248.467 396.112 248.082 396.65 247.813 397.264C247.045 398.955 245.008 408.601 235.055 415.287C233.941 416.325 232.749 417.17 231.366 417.862C229.598 418.746 227.946 419.822 226.14 420.629C223.757 421.666 221.298 422.358 218.762 422.934C216.994 423.319 215.265 423.818 213.42 423.857C210.154 423.972 206.964 423.549 203.736 423.05C201.238 422.665 198.971 421.628 196.512 421.128C195.858 421.013 195.282 420.59 194.706 420.244C193.476 419.476 192.208 418.823 190.863 418.323C190.017 418.016 189.287 417.478 188.672 416.824C187.942 416.017 187.097 415.402 186.213 414.826C185.713 414.519 185.291 414.019 184.868 413.635C183.83 412.751 183.254 411.406 181.871 410.906C181.602 410.83 181.409 410.522 181.256 410.253C179.488 407.563 177.72 404.835 175.953 402.106C175.799 401.876 175.722 401.53 175.645 401.261C173.993 397.188 172.609 393.037 172.187 388.618C171.995 386.581 172.225 384.545 172.187 382.546C172.187 380.587 172.725 378.665 173.032 376.705C173.301 374.976 174.147 373.401 174.492 371.71C174.954 369.327 176.76 367.598 177.259 365.292C178.835 363.563 179.872 361.488 181.448 359.682C183.331 357.491 185.483 355.647 187.635 353.764C189.018 352.573 190.555 351.42 192.4 350.805C193.168 350.536 193.86 350.036 194.629 349.652C198.625 347.769 202.852 346.616 207.272 346.193C208.693 346.04 210.154 346.193 211.576 346.193C214.073 346.193 216.571 346.309 219.031 346.924C219.338 347 219.607 347.077 219.914 347.154C221.183 347.5 222.566 347.346 223.796 348.153C224.872 348.845 226.14 349.152 227.293 349.729C229.176 350.651 231.059 351.689 232.942 352.649C233.134 352.765 233.287 352.918 233.48 353.072C234.671 354.11 235.862 355.109 237.053 356.185C238.245 357.261 239.436 358.298 240.473 359.49C242.28 361.526 243.778 363.832 245.046 366.215C245.892 367.828 246.699 369.442 247.198 371.21C247.275 371.518 247.352 371.825 247.506 372.056C248.735 374.169 248.812 376.513 249.197 378.819C249.504 380.702 249.542 389.194 249.389 389.963L249.35 390.001ZM191.67 282.288C191.631 280.405 193.13 278.791 194.975 278.752C197.088 278.829 198.433 280.366 198.472 282.134C198.472 284.055 197.05 285.592 195.167 285.669C193.322 285.746 191.708 284.209 191.67 282.326V282.288ZM198.702 257.232C198.702 256.349 199.317 255.657 200.201 255.618C201.085 255.618 201.738 256.272 201.738 257.194C201.738 258.078 201.046 258.731 200.124 258.693C199.317 258.693 198.702 258.039 198.702 257.232ZM225.871 274.756C225.832 272.873 227.216 271.451 229.099 271.451C230.943 271.451 232.442 272.873 232.442 274.717C232.442 276.485 230.905 277.984 229.06 277.945C227.293 277.945 225.909 276.523 225.871 274.756ZM283.628 300.464C281.284 300.618 279.094 300.118 277.172 298.619C276.019 297.736 274.867 296.852 274.136 295.545C273.637 294.661 272.83 294.162 271.792 293.97C270.832 293.778 269.909 293.624 268.987 293.24C267.757 292.74 266.835 291.933 266.22 290.857C265.529 289.666 264.76 288.474 263.953 287.36C263.722 287.014 263.453 286.707 263.415 286.246C263.261 285.054 262.762 284.017 262.262 282.941C261.839 282.019 261.532 280.981 261.34 279.982C260.725 276.408 260.072 272.873 259.188 269.376C259.111 269.03 258.996 268.722 258.919 268.377C258.765 267.723 258.304 267.301 257.689 267.032C257.382 266.878 257.036 266.839 256.69 266.686C255.076 266.032 254.577 265.11 254.922 263.419C255.038 262.804 255.23 262.19 255.46 261.613C255.883 260.537 255.845 259.461 255.46 258.347C255.115 257.348 254.769 256.387 254.5 255.388C254 253.582 253.501 251.776 253.501 249.893C253.501 247.664 252.847 246.742 250.657 246.088C248.121 245.32 245.7 244.321 243.317 243.206C241.396 242.322 239.359 242.015 237.245 242.245C235.67 242.399 234.056 242.245 232.442 242.245V242.361C231.174 242.361 229.944 242.322 228.676 242.361C225.064 242.514 221.644 241.746 218.262 240.708C216.61 240.209 214.919 239.863 213.189 239.748C209.846 239.479 206.657 238.556 203.621 237.058C200.7 235.636 197.78 234.137 194.859 232.677C193.13 231.793 191.362 230.986 189.671 230.064C188.403 229.372 187.174 228.565 185.982 227.72C183.177 225.76 180.141 224.223 177.067 222.801C176.568 222.57 176.03 222.378 175.492 222.263C175.03 222.148 174.531 222.186 174.108 222.532C173.416 223.108 172.648 223.608 171.956 224.146C171.418 224.569 170.995 225.145 170.726 225.798C168.728 231.447 165.27 236.404 162.772 241.823C161.081 245.512 158.737 248.778 156.508 252.121C154.087 255.772 151.628 259.384 149.207 263.035C149.053 263.266 148.861 263.496 148.746 263.727C147.9 265.84 146.478 267.531 145.095 269.26C143.558 271.22 142.405 273.487 141.406 275.793C141.06 276.6 141.022 277.407 141.214 278.253C141.56 279.674 141.56 281.135 141.636 282.595C141.713 284.324 141.982 286.053 142.789 287.629C143.135 288.321 143.404 289.012 143.711 289.704C144.365 291.164 145.172 292.548 146.171 293.816C146.824 294.661 147.631 295.276 148.822 295.238C149.975 295.238 151.013 295.584 152.012 296.083C153.511 296.813 155.048 297.467 156.546 298.197C158.545 299.196 160.005 300.695 160.889 302.77C161.196 303.423 161.312 304.115 161.235 304.806C161.004 306.497 160.312 307.996 159.044 309.187C158.199 309.956 157.2 310.378 156.008 310.34C155.663 310.34 155.317 310.34 154.971 310.302C154.049 310.186 153.203 310.263 152.358 310.686C150.667 311.493 149.13 311.07 147.708 309.917C147.132 309.418 146.555 308.918 145.979 308.38C145.133 307.535 144.134 307.189 142.943 307.343C141.982 307.458 140.983 307.496 140.061 307.727C139.177 307.919 138.447 307.727 137.717 307.227C136.487 306.382 135.642 305.191 134.988 303.884C134.22 302.309 133.528 300.733 132.836 299.157C131.491 296.16 129.762 293.393 128.225 290.55C127.418 289.012 126.227 287.706 125.189 286.322C124.728 285.708 124.228 285.131 123.767 284.516C122.538 282.864 121.654 281.096 121.423 279.021C121.385 278.522 121.308 278.06 121.193 277.599C120.578 275.063 120.924 272.642 121.807 270.26C122.384 268.646 122.999 266.993 123.575 265.379C123.921 264.303 124.574 263.419 125.266 262.535C126.111 261.421 126.842 260.23 127.418 259C128.494 256.694 129.724 254.427 130.8 252.083C132.298 248.817 133.028 245.397 132.452 241.746C132.221 240.324 132.068 238.864 131.76 237.442C131.376 235.674 131.145 233.868 130.838 232.1C130.761 231.562 130.146 231.293 129.724 231.639C129.339 231.908 128.955 232.254 128.648 232.6C127.38 234.214 125.804 235.444 123.998 236.366C122.538 237.135 121.154 238.057 119.924 239.21C119.31 239.786 118.618 240.209 117.811 240.555C116.197 241.246 114.737 242.169 113.315 243.129C112.354 243.783 111.317 244.359 110.317 245.012C109.434 245.589 108.511 246.088 107.743 246.742C106.705 247.587 105.745 248.394 104.284 248.394C103.708 248.394 103.131 248.817 102.555 249.086C97.4825 251.545 92.4484 254.043 87.3759 256.425C84.8012 257.655 82.1881 258.77 79.575 259.846C77.0003 260.921 74.9636 262.689 73.3881 264.918C70.775 268.646 68.5461 272.527 67.4317 276.984C66.8169 279.405 65.8177 281.711 65.5487 284.247C65.5103 284.67 65.395 285.054 65.395 285.477C65.3182 286.822 65.7409 287.975 66.8553 288.743C67.9313 289.512 69.0073 290.281 70.1985 290.895C72.1584 291.933 73.2728 293.585 74.0029 295.622C74.5025 296.967 74.1951 298.12 73.3881 299.119C72.7348 299.926 71.9662 300.656 71.1977 301.348C70.3907 302.04 69.43 302.385 68.2771 302.155C66.471 301.809 64.6649 301.924 62.9356 302.539C61.2832 303.116 59.7845 302.539 58.2858 302.001C57.1714 301.617 56.7103 300.502 56.1723 299.503C55.9801 299.157 55.8264 298.735 55.7496 298.312C55.4037 296.698 54.5967 295.43 53.4054 294.239C51.8683 292.74 51.4072 290.78 51.7146 288.667C51.753 288.398 51.7915 288.129 51.8683 287.86C52.4063 285.477 52.829 283.095 53.4823 280.75C54.2509 277.945 54.712 275.063 55.2884 272.181C55.4421 271.451 55.519 270.682 55.7111 269.914C56.0186 268.761 56.1338 267.608 56.0954 266.417C55.9801 264.111 56.4413 261.844 56.6718 259.577C56.8256 257.809 57.5557 256.233 58.6317 254.811C59.1697 254.081 59.7461 253.39 60.3225 252.698C60.6684 252.275 61.1295 251.891 61.3216 251.391C61.8981 249.931 63.1278 249.163 64.3575 248.356C68.623 245.589 72.9269 242.899 77.0772 240.017C79.7671 238.172 82.3034 236.097 84.8396 234.022C86.1846 232.907 87.3759 231.639 88.5672 230.41C90.1811 228.68 91.7951 226.951 93.3323 225.145C95.7917 222.263 97.8283 219.189 99.0965 215.576C99.5192 214.347 100.172 213.194 100.787 212.003C101.325 210.927 101.71 209.851 102.017 208.698C103.285 203.433 104.592 198.168 105.821 192.904C106.244 191.136 106.821 189.445 107.743 187.87C108.358 186.794 108.396 185.795 107.743 184.757C106.628 182.989 106.283 181.029 106.283 178.993C106.283 177.148 105.591 175.611 104.4 174.266C103.669 173.459 102.824 172.883 101.71 172.921C100.249 172.998 98.789 172.806 97.3672 172.46C96.2528 172.191 95.3305 172.46 94.4851 173.19C94.0624 173.574 93.6397 173.92 93.217 174.266C91.5261 175.496 89.4894 174.65 89.5279 172.575C89.5279 170.808 88.8362 169.885 87.3759 169.27C86.6842 168.963 86.0693 168.502 85.4545 168.041C84.6859 167.464 84.3401 166.581 84.6475 165.85C85.0318 165.005 85.5698 164.275 86.6073 164.198C87.3759 164.16 88.1445 164.121 88.913 164.198C90.1043 164.275 91.1034 163.967 91.9873 163.199C92.679 162.584 93.4475 162.238 94.4082 162.046C96.8676 161.546 99.2118 160.701 101.556 159.817C102.248 159.548 103.016 159.356 103.746 159.164C105.437 158.703 107.051 159.01 108.511 159.932C110.356 161.085 112.393 161.777 114.468 162.315C116.966 162.93 119.425 163.583 121.961 164.044C122.422 164.121 122.922 164.198 123.421 164.275C125.151 164.582 126.726 164.352 128.187 163.314C128.725 162.93 129.378 162.584 130.07 162.43C131.222 162.123 132.298 161.623 133.297 161.008C134.258 160.432 135.296 160.048 136.41 159.894C139.1 159.587 141.713 158.818 144.365 158.28C145.364 158.088 146.401 157.934 147.439 157.857C148.861 157.78 150.167 158.242 151.474 158.78C152.742 159.318 154.049 159.51 155.355 159.279C156.739 159.01 158.122 159.279 159.505 159.356C161.312 159.51 163.079 159.74 164.885 159.856C166.615 159.971 168.344 159.971 170.073 160.086C171.188 160.125 172.302 160.24 173.378 160.355C174.147 160.432 174.915 160.586 175.645 160.586C179.181 160.586 182.678 161.239 186.213 161.47C188.826 161.623 191.478 161.892 194.091 162.161C196.358 162.392 198.664 162.43 200.931 162.622C202.122 162.738 203.313 162.699 204.466 162.546C206.042 162.315 207.656 162.238 209.231 162.277C211.345 162.277 213.343 161.854 215.341 161.085C217.916 160.086 220.529 159.164 223.219 158.395C225.41 157.742 227.638 157.242 229.906 156.935C231.02 156.781 232.096 156.781 233.172 157.166C234.632 157.704 236.169 157.742 237.668 157.396C238.706 157.204 239.743 157.127 240.781 157.166C244.201 157.242 247.583 156.82 250.926 156.243C252.924 155.898 254.884 155.59 256.844 155.167C260.072 154.476 263.031 153.169 265.99 151.747C266.681 151.401 267.296 150.94 267.873 150.441C271.408 147.405 275.328 144.869 279.209 142.294C283.167 139.681 287.471 137.759 291.621 135.492C293.351 134.531 295.157 133.955 297.001 133.263C301.42 131.611 305.84 129.959 310.22 128.191C313.833 126.731 317.637 125.924 321.441 125.155C322.402 124.963 323.286 124.655 324.285 124.617C327.513 124.502 330.472 125.386 333.239 126.923C334.315 127.538 335.391 128.191 336.39 128.921C337.466 129.69 338.657 130.266 339.925 130.689C342.308 131.457 344.652 132.38 347.073 132.956C349.917 133.609 352.837 133.801 355.758 133.84C358.256 133.878 360.715 134.301 363.136 134.993C365.826 135.723 366.441 137.952 365.903 139.796C365.365 141.602 365.096 143.447 365.019 145.33C365.019 146.521 364.711 147.674 364.327 148.788C364.02 149.787 363.712 150.787 363.52 151.786C363.098 153.784 362.098 155.36 360.369 156.512C359.255 157.242 358.14 157.934 356.911 158.434C355.566 159.01 354.298 159.702 353.183 160.663C352.146 161.546 350.993 162.084 349.725 162.546C347.188 163.468 344.537 164.121 341.885 164.659C340.387 164.928 338.849 164.851 337.312 164.544C335.967 164.275 334.584 164.083 333.2 163.775C331.433 163.391 329.896 163.891 328.551 165.043C327.744 165.735 327.014 166.465 326.36 167.272C324.823 169.194 322.748 170.001 320.442 170.385C320.058 170.462 319.635 170.385 319.213 170.308C318.521 170.231 317.829 170.154 317.138 170.077C314.717 169.847 312.757 170.808 311.335 172.691C309.567 175.035 307.607 177.187 305.648 179.339C302.612 182.72 299.883 186.256 297.501 190.137C296.54 191.751 295.349 193.211 294.273 194.748C291.775 198.245 289.277 201.742 286.779 205.278C285.55 206.968 284.243 208.544 282.744 210.043C279.939 212.848 277.518 215.999 275.481 219.381C274.559 220.956 273.906 222.609 273.983 224.492C274.021 225.606 273.791 226.682 273.445 227.758C272.715 230.141 273.022 232.6 273.06 235.021C273.06 235.905 273.637 236.558 274.444 236.981C275.75 237.673 276.75 238.748 277.595 239.94C278.517 241.208 279.017 242.668 279.247 244.167C279.44 245.358 278.978 246.511 278.517 247.587C277.672 249.547 276.865 251.583 275.597 253.313C274.79 254.389 274.521 255.542 274.79 256.848C274.982 257.655 274.982 258.501 274.79 259.308C274.598 260.076 274.636 260.845 274.79 261.575C275.443 265.418 275.981 269.26 276.788 273.065C277.557 276.869 279.171 280.289 281.668 283.325C282.667 284.555 283.936 285.362 285.511 285.631C286.664 285.823 287.855 286.015 289.008 286.092C289.93 286.169 290.776 286.361 291.621 286.745C293.274 287.514 294.772 288.551 296.233 289.55C297.116 290.165 297.501 291.164 297.808 292.202C299.153 296.391 295.81 300.08 292.159 300.041C289.316 300.003 286.472 300.233 283.628 300.426V300.464ZM154.548 288.59C154.548 289.858 153.395 290.934 152.127 290.934C150.859 290.934 149.783 289.781 149.822 288.513C149.822 287.206 150.936 286.13 152.243 286.169C153.511 286.169 154.587 287.322 154.548 288.59Z" fill="white"/>
<path d="M296.002 174.766C295.234 174.535 294.542 174.151 294.196 173.459C293.812 172.652 293.158 172.691 292.505 172.537C291.89 172.383 291.429 172.498 291.16 173.152C290.891 173.805 290.43 174.305 289.815 174.727C288.547 175.65 287.202 176.495 286.51 178.032C286.395 178.339 286.011 178.532 285.78 178.801C285.473 179.185 285.127 179.531 284.935 179.992C283.782 182.336 282.475 184.68 281.745 187.216C281.015 189.791 280.285 192.404 279.555 195.017C279.324 195.901 279.094 196.785 278.402 197.4C277.633 198.092 277.326 198.975 277.134 199.936C276.903 200.897 276.673 201.819 276.404 202.741C275.712 205.085 274.406 207.161 272.984 209.12C273.099 209.466 273.099 209.466 273.406 209.236C274.444 208.621 275.328 207.891 275.482 206.546C275.482 206.277 275.712 206.046 275.866 205.816C276.365 205.239 276.903 204.663 277.48 204.202C278.171 203.625 277.979 202.626 278.556 202.011C279.401 201.089 279.939 199.975 280.554 198.86C281.015 198.015 281.476 197.131 282.245 196.516C284.089 195.017 285.242 193.096 286.203 190.982C286.549 190.214 287.01 189.522 287.471 188.869C288.854 186.947 290.276 185.103 291.66 183.181C292.082 182.643 292.505 182.067 292.428 181.298C292.39 180.645 291.813 180.415 291.429 180.03C291.391 179.992 291.314 179.915 291.275 179.877C290.507 178.954 290.737 177.84 291.775 177.225C292.582 176.726 293.351 176.841 294.119 177.34C294.965 177.917 295.503 177.686 296.079 176.956C296.194 176.802 296.31 176.61 296.425 176.418C296.848 175.726 296.809 175.073 295.925 174.804L296.002 174.766Z" fill="white"/>
<path d="M295.618 162.277C295.772 162.93 296.002 163.084 296.848 162.891C297.462 162.776 298.077 162.661 298.692 162.507C313.448 159.471 328.205 156.435 342.961 153.4C343.615 153.246 344.345 153.208 344.883 152.785C344.883 152.324 344.806 151.939 344.498 151.478C342.308 151.939 340.079 152.362 337.812 152.823C327.283 154.975 316.715 157.127 306.186 159.318C302.919 159.971 299.653 160.663 296.386 161.354C295.618 161.508 295.464 161.7 295.579 162.238L295.618 162.277Z" fill="white"/>
<path d="M344.575 155.782C344.268 155.283 343.73 154.937 343.192 154.783C342.692 155.244 342.308 155.59 342.231 156.205C342.116 157.819 341.232 158.856 339.541 159.663C342.193 160.009 344.844 159.587 347.035 158.549C347.381 158.395 347.803 158.28 347.842 157.742C346.497 157.473 345.382 156.935 344.614 155.744L344.575 155.782Z" fill="white"/>
<path d="M111.086 217.267C108.166 217.267 105.783 219.65 105.821 222.609C105.821 225.376 108.281 227.72 111.086 227.758C113.622 227.758 116.428 225.568 116.274 222.417C116.235 219.496 114.007 217.306 111.086 217.306V217.267Z" fill="white"/>
<path d="M62.015 290.782C62.015 290.782 62.015 290.782 62.015 290.742C62.015 290.742 62.015 290.742 61.975 290.742L62.015 290.782Z" fill="white"/>
<path d="M62.3977 286.822C62.782 286.476 63.3584 286.169 63.2431 285.477C63.051 285.439 62.8588 285.323 62.6667 285.323C61.168 285.208 60.0151 284.67 59.5156 283.094C59.4387 282.825 59.2466 282.595 58.9392 282.518C58.478 282.633 58.3627 283.056 58.209 283.402C57.7479 284.593 56.864 285.093 55.6728 285.208C55.2885 285.246 54.8273 285.17 54.6352 285.669C54.712 286.207 55.1348 286.515 55.4806 286.822C56.1339 287.437 56.4413 288.129 56.2492 289.051C56.1339 289.589 56.0186 290.127 56.2492 290.665C56.6335 290.819 56.9409 290.665 57.2099 290.511C58.2859 289.781 59.3619 289.704 60.4763 290.434C60.9374 290.742 61.4754 290.78 62.0134 290.819C61.8597 290.357 61.706 289.935 61.5907 289.474C61.3217 288.436 61.5907 287.591 62.3593 286.822H62.3977Z" fill="white"/>
<path d="M62.5898 266.494C63.1278 264.342 64.1269 263.458 66.3173 263.266C66.6632 263.266 67.0091 263.381 67.278 263.074C67.3549 262.881 67.4318 262.689 67.5086 262.497C67.9698 261.037 68.7767 259.922 70.237 259.269C70.8903 259 71.2746 258.385 71.582 257.732C72.12 256.618 72.7733 255.542 73.3497 254.427C73.734 253.774 74.0798 253.044 74.7715 252.698C75.5017 252.314 75.4632 251.814 75.3095 251.161C75.1942 250.7 75.3095 250.2 75.1942 249.701C74.9637 248.701 75.3095 247.971 76.0781 247.318C77.4999 246.204 78.8449 245.012 80.2283 243.86C80.92 243.283 81.4964 242.476 82.3034 242.13C83.4178 241.669 84.2633 240.824 85.1471 240.094C85.8004 239.556 86.4537 239.018 87.2607 238.672C87.4912 238.672 87.7602 238.595 87.9908 238.403C87.9908 238.403 87.9908 238.403 88.0676 238.364C88.1829 238.287 88.2982 238.211 88.3751 238.057C88.8746 237.596 89.3358 237.096 89.8353 236.597C89.9506 236.597 90.0659 236.52 90.1812 236.481C90.2965 236.443 90.4502 236.366 90.5655 236.289C91.0266 235.982 91.5646 235.713 91.7952 235.213C91.872 235.059 91.8336 234.906 91.7952 234.79C91.9489 234.675 92.1026 234.56 92.2947 234.445C92.3332 234.445 92.3716 234.368 92.4485 234.329C92.5253 234.329 92.6406 234.406 92.7559 234.406C93.1786 234.445 93.7934 234.022 93.7934 233.599C93.7934 233.561 93.7934 233.522 93.755 233.445C93.9856 233.292 94.1777 233.176 94.4083 233.023C94.6004 233.061 94.7542 232.946 94.8694 232.715C95.0232 232.6 95.1768 232.485 95.3306 232.369L95.4074 232.331C95.9454 231.947 96.445 231.562 96.9061 231.14C97.5978 230.525 98.2127 229.833 98.8275 229.103C99.1734 228.873 99.5577 228.642 99.4808 228.258C99.7882 227.835 100.096 227.412 100.403 227.028C100.749 226.759 101.018 226.336 101.248 225.952C101.325 225.837 101.364 225.76 101.402 225.683C101.479 225.645 101.556 225.568 101.633 225.529C101.671 225.529 101.71 225.529 101.786 225.529C102.209 225.606 102.44 225.26 102.517 224.953C102.517 224.953 102.517 224.876 102.44 224.838C103.131 224.107 103.708 223.224 104.092 222.34C104.284 222.224 104.553 222.148 104.63 221.879C104.784 221.417 105.053 220.995 105.245 220.572C107.205 216.537 109.203 212.502 111.163 208.429C111.509 207.737 111.855 207.084 112.7 206.853C113.392 206.7 113.661 206.162 113.814 205.508C114.429 202.242 113.046 199.706 110.894 197.438C110.856 197.4 110.779 197.362 110.74 197.323C110.164 196.9 109.472 197.016 109.165 197.669C108.934 198.245 108.704 198.822 108.588 199.437C107.474 204.663 106.321 209.851 104.476 214.885C103.862 216.576 103.208 218.266 102.324 219.842C102.132 220.188 100.903 222.609 100.903 222.647C100.711 222.839 99.7498 224.184 99.6345 224.453C99.6345 224.453 99.6345 224.492 99.6345 224.53C99.6345 224.53 96.5987 228.142 96.6371 228.219C96.6371 228.296 94.024 230.294 94.1777 230.756C93.9856 230.909 93.7934 231.025 93.6013 231.178C93.217 230.679 92.8327 230.756 92.4485 231.332C92.3716 231.486 92.2563 231.716 92.5637 231.793C92.5637 231.793 92.5637 231.793 92.6022 231.793C92.0642 232.139 91.4878 232.485 90.9882 232.869C90.9882 232.869 90.9882 232.831 90.9882 232.792C89.9891 233.33 89.4126 234.214 88.6441 234.867C88.1061 235.405 87.6065 235.943 87.0685 236.443C86.9917 236.443 86.9148 236.443 86.838 236.443C86.0694 237.173 85.224 237.903 84.4938 238.71C82.7261 240.708 80.6126 242.284 78.4606 243.783C76.5776 245.089 74.7331 246.473 72.9654 247.894C70.775 249.624 68.5846 251.276 66.2789 252.852C65.5488 253.351 64.8187 253.928 64.1269 254.504C62.0518 256.272 60.9758 258.501 60.7068 261.191C60.3994 264.572 59.7846 267.915 59.1313 271.259C58.8239 272.834 58.5164 274.371 58.1706 276.178C58.478 275.947 58.5933 275.87 58.6702 275.793C60.6684 272.988 61.7444 269.76 62.5898 266.455V266.494Z" fill="white"/>
<path d="M62.0518 290.857C62.1287 291.51 61.5907 291.741 61.2064 292.01C60.8221 292.279 60.2841 292.433 60.0151 292.778C59.6693 293.24 60.4378 293.585 60.3994 294.047C60.3994 294.469 60.3994 294.854 60.3994 295.276C60.3994 295.776 60.361 296.237 60.3226 296.737C60.3226 297.275 60.63 297.62 61.1296 297.813C61.5907 297.966 62.0518 298.043 62.5514 297.889C63.3968 297.62 64.2807 297.428 65.1645 297.198C65.8946 297.006 66.6248 296.813 67.3933 296.967C67.8545 297.044 68.4309 297.159 68.623 296.506C68.7768 295.968 68.4309 295.584 68.085 295.238C68.0082 295.123 67.8929 295.046 67.7776 294.93C66.4711 293.816 65.1645 292.702 63.8195 291.587C63.32 291.164 62.7435 290.895 62.0903 290.819L62.0518 290.857Z" fill="white"/>
<path d="M123.614 181.298C124.075 181.567 124.728 181.183 124.805 180.53C124.882 180.338 124.728 180.184 124.574 180.069C124.305 179.877 123.998 179.685 123.729 179.492C118.387 176.034 113.007 172.575 107.666 169.117C107.435 168.963 107.205 168.848 106.974 168.694C106.667 168.502 106.436 168.617 106.244 168.848C105.706 169.386 105.745 169.77 106.359 170.154C106.59 170.308 106.821 170.462 107.051 170.615C112.354 174.036 117.657 177.456 122.96 180.876C123.191 181.029 123.421 181.183 123.652 181.337L123.614 181.298Z" fill="white"/>
<path d="M105.399 227.412C105.053 227.643 104.745 227.95 104.438 228.219C97.79 233.676 91.1419 239.133 84.4938 244.628C84.0327 245.012 83.4563 245.32 83.1489 245.935C83.2641 246.088 83.341 246.28 83.4563 246.473C83.7253 246.857 84.0327 247.049 84.4938 246.665C84.8013 246.396 85.1471 246.127 85.4545 245.858C89.7585 242.322 94.024 238.825 98.328 235.29C101.018 233.1 103.669 230.871 106.359 228.68C106.782 228.335 106.782 228.066 106.436 227.643C106.09 227.22 105.821 227.143 105.399 227.451V227.412Z" fill="white"/>
<path d="M79.1908 246.818C77.4231 246.818 76.0396 248.202 76.0396 249.969C76.0396 251.852 77.4231 253.274 79.306 253.236C81.0737 253.236 82.4571 251.814 82.4571 250.085C82.4571 248.202 81.0737 246.818 79.1908 246.818Z" fill="white"/>
<path d="M75.4633 253.966C75.4633 253.966 75.2711 254.312 75.1558 254.504C70.4676 262.459 65.7794 270.413 61.0527 278.368C60.8606 278.675 60.7069 278.983 60.5532 279.252C60.3226 279.713 60.3994 279.905 60.9374 280.212C61.3986 280.481 61.6291 280.443 61.9366 279.943C62.1287 279.636 62.2824 279.329 62.4746 279.06C67.1628 271.105 71.851 263.15 76.5777 255.196C76.8467 254.735 77.1157 254.235 77.3847 253.774C76.5905 253.133 75.9628 253.185 75.5017 253.928L75.4633 253.966Z" fill="white"/>
<path d="M123.152 189.868C122.691 191.098 122.23 192.327 121.769 193.557C119.233 200.359 116.697 207.199 114.16 214.039C114.007 214.5 113.853 214.962 113.699 215.384C113.814 215.807 114.122 215.961 114.468 216.038C114.775 216.114 115.044 216.038 115.198 215.769C115.428 215.269 115.582 214.731 115.774 214.231C117.811 208.775 119.848 203.318 121.884 197.861C122.807 195.402 123.69 192.904 124.613 190.444C124.805 189.945 124.613 189.676 124.152 189.484C123.69 189.292 123.383 189.407 123.191 189.868H123.152Z" fill="white"/>
<path d="M108.742 167.118C109.664 166.811 110.548 167.042 111.393 167.272C112.815 167.656 114.122 168.31 115.236 169.27C116.62 170.462 118.042 170.154 119.463 169.386C119.732 169.232 119.848 168.963 119.809 168.694C119.771 168.425 119.617 168.156 119.31 168.079C118.426 167.849 117.58 167.58 116.697 167.426C113.968 166.965 111.278 166.35 108.857 164.89C107.551 164.083 106.014 164.083 104.515 164.429C105.168 164.89 105.437 165.543 105.629 166.273C105.668 166.465 105.86 166.773 105.937 166.773C106.897 166.696 107.743 167.503 108.704 167.157L108.742 167.118Z" fill="white"/>
</svg>
